<svg width="73" height="72" viewBox="0 0 73 72" fill="none" xmlns="http://www.w3.org/2000/svg">
<rect x="0.0615234" width="72" height="72" rx="36" fill="#0EDDC9"/>
<path d="M36 72C55.8822 72 72 55.8822 72 36C72 16.1177 55.8822 0 36 0C16.1177 0 0 16.1177 0 36C0 55.8822 16.1177 72 36 72Z" fill="#10DBCE"/>
<path d="M43.0806 51H27.9203C27.4126 51 27 51.4379 27 51.976V52.1639C27 52.6873 27.3752 53.1717 27.8552 53.2685C29.2354 53.5416 32.0266 54 35.2099 54H35.5152H35.7901C38.9742 54 41.7655 53.5416 43.1457 53.2685C43.6241 53.1717 44 52.6873 44 52.1639V51.976C44 51.4381 43.5875 51 43.0806 51ZM43.4258 52.1631C43.4258 52.3915 43.2452 52.628 43.0401 52.6695C41.6797 52.9378 38.9282 53.3904 35.7901 53.3904H35.4802H35.2092C32.0727 53.3904 29.3212 52.9378 27.9607 52.6695C27.7549 52.628 27.5735 52.3915 27.5735 52.1631V51.9753C27.5735 51.7737 27.7289 51.6087 27.9194 51.6087H43.0806C43.2711 51.6087 43.4265 51.7737 43.4265 51.9753V52.1631H43.4258Z" fill="white"/>
<path d="M42.8627 16H28.1374C25.7367 16 23 18.5539 23 20.7943V52.2057C23 54.4467 25.7367 57 28.1374 57H42.8627C45.2633 57 48 54.4461 48 52.2057V20.7943C47.9993 18.5533 45.2626 16 42.8627 16ZM46.821 52.2057C46.821 53.9192 44.6751 55.9449 42.862 55.9449H28.1374C26.3244 55.9449 24.1783 53.9186 24.1783 52.2057V20.7943C24.1783 19.0808 26.3244 17.0551 28.1374 17.0551H42.8627C44.6758 17.0551 46.8217 19.0814 46.8217 20.7943V52.2057H46.821Z" fill="white"/>
<path d="M42.127 22H26.8731C25.8399 22 25 22.7434 25 23.6592V48.3408C25 49.2552 25.8399 50 26.8731 50H42.127C43.1601 50 44 49.2552 44 48.3408V23.6592C44 22.744 43.1593 22 42.127 22ZM43.4087 48.3408C43.4087 48.9668 42.8337 49.4761 42.127 49.4761H26.8731C26.1664 49.4761 25.5915 48.9668 25.5915 48.3408V23.6592C25.5915 23.0334 26.1664 22.5239 26.8731 22.5239H42.127C42.8336 22.5239 43.4085 23.0334 43.4085 23.6592V48.3408H43.4087Z" fill="white"/>
<path d="M33.2675 19H36.7327C36.8802 19 37 18.776 37 18.4998C37 18.224 36.8802 18 36.7327 18H33.2675C33.1198 18 33 18.224 33 18.4998C33 18.776 33.1198 19 33.2675 19Z" fill="white"/>
<path d="M28.3484 19H29.6528C29.8447 19 30 18.8808 30 18.7333V18.2645C30 18.1192 29.8447 18 29.6528 18H28.3484C28.1553 18 28 18.1192 28 18.2645V18.7333C28 18.8808 28.1553 19 28.3484 19Z" fill="white"/>
<path d="M30.4999 19C30.7763 19 31 18.7763 31 18.5001C31 18.2237 30.7763 18 30.4999 18C30.2237 18 30 18.2237 30 18.5001C30 18.7763 30.2237 19 30.4999 19Z" fill="white"/>
<path d="M35.9865 27C36.545 27 37 26.5837 37 26.0726V25.4538C37 24.9429 36.545 24.5266 35.9865 24.5266H29.6048C29.1573 24.5266 28.7114 24.4466 28.6084 24.3479L28.4229 24.1691C28.0969 23.8515 27.5756 23.997 27.3608 24.4732C27.3608 24.4732 27.2928 24.6267 27.2085 24.8159C27.124 25.0051 27.0358 25.2232 27.0187 25.3048C27.0089 25.3545 27 25.4087 27 25.4538V26.0726C27 26.5837 27.4548 27 28.0133 27H35.9865ZM27.419 25.365C27.4288 25.316 27.5057 25.1291 27.5876 24.9458L27.7361 24.6143C27.8139 24.4406 27.9258 24.3621 28.0027 24.3621C28.0441 24.3621 28.0871 24.3821 28.1293 24.4244L28.5598 24.8405C28.598 24.8783 28.6513 24.8983 28.7073 24.8983H35.9867C36.3214 24.8983 36.5947 25.1491 36.5947 25.4547V26.0735C36.5947 26.3805 36.3214 26.6298 35.9867 26.6298H28.0152C27.6803 26.6298 27.4071 26.3805 27.4071 26.0735V25.4547C27.406 25.4331 27.4127 25.3982 27.419 25.365Z" fill="white"/>
<path d="M37 32.3913C37 31.9014 36.545 31.5041 35.9865 31.5041H29.6048C29.1573 31.5041 28.7114 31.4273 28.6084 31.3329L28.4229 31.1619C28.0969 30.8579 27.5756 30.9972 27.3608 31.4528C27.3608 31.4528 27.2928 31.5998 27.2085 31.7807C27.124 31.9616 27.0358 32.1705 27.0187 32.2485C27.0089 32.2961 27 32.348 27 32.3911V35.1128C27 35.6026 27.4548 36 28.0133 36H35.985C36.5436 36 36.9983 35.6026 36.9983 35.1128V32.3911H37V32.3913ZM27.406 32.3913C27.406 32.3713 27.4118 32.3381 27.419 32.3055C27.4288 32.2586 27.5057 32.0796 27.5876 31.9044L27.7361 31.5871C27.8139 31.421 27.9258 31.3457 28.0027 31.3457C28.0441 31.3457 28.0871 31.3648 28.1293 31.4054L28.5598 31.8028C28.598 31.8391 28.6513 31.8583 28.7073 31.8583H35.9867C36.3214 31.8583 36.5947 32.0981 36.5947 32.3907V35.1121C36.5947 35.4061 36.3214 35.6446 35.9867 35.6446H28.0152C27.6803 35.6446 27.4071 35.4061 27.4071 35.1121V32.3913H27.406Z" fill="white"/>
<path d="M34.7606 38.0006C34.3407 38.0006 34 38.2731 34 38.6103V40.9487C34 41.2859 34.3407 41.5584 34.7606 41.5584H40.8287C41.2485 41.5584 41.6796 41.6354 41.7914 41.7299L41.9938 41.9012C42.2166 42.091 42.5224 41.9988 42.6759 41.6976C42.7909 41.4726 42.8896 41.2779 42.9324 41.1951C42.9338 41.1921 42.9383 41.1823 42.9437 41.1731C42.9498 41.161 42.9703 41.1066 42.984 41.0506C42.9923 41.0152 43 40.9774 43 40.9481V38.6098C43 38.2725 42.6594 38 42.2394 38H34.7606V38.0006Z" fill="white"/>
<path d="M38.8569 28.0005C38.384 28.0005 38 28.2517 38 28.5625V29.0313C38 29.3421 38.384 29.5933 38.8569 29.5933H40.5532C41.0261 29.5933 41.5122 29.6643 41.6382 29.7514L41.8662 29.9093C42.1174 30.0835 42.4618 29.9992 42.635 29.7216C42.7643 29.5142 42.8758 29.3348 42.9238 29.2585C42.9255 29.2557 42.9306 29.2467 42.9367 29.2382C42.9436 29.227 42.9667 29.1769 42.9822 29.1253C42.9914 29.0926 43 29.0578 43 29.0308V28.5621C43 28.2513 42.6162 28 42.1431 28H38.8571V28.0005H38.8569Z" fill="white"/>
</svg>
