<svg width="222" height="255" viewBox="0 0 222 255" fill="none" xmlns="http://www.w3.org/2000/svg">
<path d="M203.152 183.293L150.939 162.475L138.711 152.174C135.482 149.444 130.713 149.646 127.718 152.623L110.718 169.525L93.6705 152.616C90.6727 149.644 85.9097 149.451 82.6831 152.172L70.4563 162.473L18.2408 183.295C1.43001 189.992 1.44354 249.535 0 255H221.421C219.981 249.548 219.972 189.983 203.152 183.293Z" fill="#6406F1"/>
<path d="M176.34 53.921C172.714 23.6392 144.667 0 110.71 0C76.7542 0 48.7063 23.6392 45.0805 53.921C42.0679 55.8505 40.0659 59.2186 40.0659 63.0602V87.6601C40.0659 93.6527 44.9243 98.5135 50.9193 98.5135L60.7245 98.4889C66.7816 130.136 88.2761 148.141 110.71 148.141C133.145 148.141 146.178 137.477 154.822 117.823C148.223 123 138.631 127.734 125.217 128.712C123.984 130.548 121.889 131.757 119.511 131.757H113.244C109.451 131.757 106.376 128.683 106.376 124.889C106.376 121.095 109.451 118.021 113.244 118.021H119.511C121.732 118.021 123.702 119.08 124.957 120.717C146.525 118.985 156.668 105.904 160.713 98.5184L170.502 98.5147C176.497 98.5147 181.356 93.6539 181.356 87.6614V63.0614C181.354 59.2186 179.352 55.8505 176.34 53.921ZM160.324 55.0294C153.923 34.8222 135.43 22.8095 110.71 22.8095C85.99 22.8095 67.4865 34.8148 61.0788 55.0122C60.0873 54.1166 58.9323 53.4032 57.6597 52.9203C61.7566 29.9263 83.9849 12.3012 110.71 12.3012C137.436 12.3012 159.664 29.9263 163.761 52.9203C162.481 53.4069 161.319 54.1252 160.324 55.0294Z" fill="#D4B7FA"/>
</svg>
