<svg width="72" height="98" viewBox="0 0 72 98" fill="none" xmlns="http://www.w3.org/2000/svg">
<rect width="72" height="72" rx="36" fill="white"/>
<path d="M27.8366 87.2C28.658 87.2 29.288 87.4147 29.7266 87.844C30.1746 88.264 30.3986 88.8613 30.3986 89.636C30.3986 90.0467 30.3053 90.4247 30.1186 90.77C29.932 91.1153 29.6566 91.3907 29.2926 91.596C28.938 91.8013 28.4993 91.9133 27.9766 91.932L27.9486 91.54C28.2753 91.54 28.6113 91.5867 28.9566 91.68C29.302 91.7733 29.6193 91.9227 29.9086 92.128C30.2073 92.3333 30.4453 92.604 30.6226 92.94C30.8093 93.276 30.9026 93.6913 30.9026 94.186C30.9026 94.718 30.814 95.166 30.6366 95.53C30.4593 95.8847 30.2213 96.174 29.9226 96.398C29.6333 96.6127 29.3066 96.7667 28.9426 96.86C28.588 96.9533 28.2286 97 27.8646 97H24.1826C24.024 97 23.8886 96.944 23.7766 96.832C23.674 96.72 23.6226 96.5847 23.6226 96.426V87.76C23.6226 87.6013 23.674 87.4707 23.7766 87.368C23.8886 87.256 24.024 87.2 24.1826 87.2H27.8366ZM27.6686 88.306H24.6586L24.8266 88.054V91.54L24.6726 91.358H27.6966C28.1073 91.358 28.4573 91.2273 28.7466 90.966C29.0453 90.6953 29.1946 90.2987 29.1946 89.776C29.1946 89.3093 29.0593 88.95 28.7886 88.698C28.518 88.4367 28.1446 88.306 27.6686 88.306ZM27.7806 92.478H24.7286L24.8266 92.38V96.034L24.7146 95.908H27.8226C28.3733 95.908 28.8213 95.768 29.1666 95.488C29.5213 95.208 29.6986 94.774 29.6986 94.186C29.6986 93.7287 29.6053 93.3787 29.4186 93.136C29.232 92.884 28.9893 92.7113 28.6906 92.618C28.4013 92.5247 28.098 92.478 27.7806 92.478ZM36.6051 87.2C37.1184 87.2 37.5804 87.326 37.9911 87.578C38.4018 87.83 38.7238 88.1753 38.9571 88.614C39.1998 89.0527 39.3211 89.552 39.3211 90.112C39.3211 90.6627 39.1998 91.162 38.9571 91.61C38.7238 92.058 38.4018 92.4127 37.9911 92.674C37.5804 92.9353 37.1184 93.066 36.6051 93.066H33.7631L33.8611 92.898V96.426C33.8611 96.5847 33.8098 96.72 33.7071 96.832C33.6044 96.944 33.4738 97 33.3151 97C33.1471 97 33.0118 96.944 32.9091 96.832C32.8158 96.72 32.7691 96.5847 32.7691 96.426V87.76C32.7691 87.6013 32.8204 87.4707 32.9231 87.368C33.0351 87.256 33.1704 87.2 33.3291 87.2H36.6051ZM36.6051 91.988C36.9131 91.988 37.1838 91.904 37.4171 91.736C37.6504 91.568 37.8371 91.3393 37.9771 91.05C38.1171 90.7607 38.1871 90.448 38.1871 90.112C38.1871 89.7573 38.1171 89.4447 37.9771 89.174C37.8371 88.9033 37.6504 88.6887 37.4171 88.53C37.1838 88.362 36.9131 88.278 36.6051 88.278H33.7631L33.8611 88.124V92.128L33.7631 91.988H36.6051ZM49.984 92.1C49.984 92.8187 49.8673 93.486 49.634 94.102C49.4006 94.7087 49.074 95.2407 48.654 95.698C48.234 96.1553 47.7346 96.51 47.156 96.762C46.5773 97.014 45.9473 97.14 45.266 97.14C44.5753 97.14 43.9406 97.014 43.362 96.762C42.7926 96.51 42.298 96.1553 41.878 95.698C41.458 95.2407 41.1313 94.7087 40.898 94.102C40.6646 93.486 40.548 92.8187 40.548 92.1C40.548 91.372 40.6646 90.7047 40.898 90.098C41.1313 89.482 41.458 88.95 41.878 88.502C42.298 88.0447 42.7926 87.69 43.362 87.438C43.9406 87.186 44.5753 87.06 45.266 87.06C45.9473 87.06 46.5773 87.186 47.156 87.438C47.7346 87.69 48.234 88.0447 48.654 88.502C49.074 88.95 49.4006 89.482 49.634 90.098C49.8673 90.7047 49.984 91.372 49.984 92.1ZM48.78 92.1C48.78 91.3347 48.626 90.658 48.318 90.07C48.0193 89.482 47.6086 89.02 47.086 88.684C46.5633 88.348 45.9566 88.18 45.266 88.18C44.5753 88.18 43.964 88.348 43.432 88.684C42.9093 89.02 42.4986 89.482 42.2 90.07C41.9013 90.658 41.752 91.3347 41.752 92.1C41.752 92.856 41.9013 93.5327 42.2 94.13C42.4986 94.718 42.9093 95.18 43.432 95.516C43.964 95.852 44.5753 96.02 45.266 96.02C45.9566 96.02 46.5633 95.852 47.086 95.516C47.6086 95.18 48.0193 94.718 48.318 94.13C48.626 93.5327 48.78 92.856 48.78 92.1Z" fill="#17171A"/>
<path d="M46.8971 24.5335C46.3232 19.7411 41.8845 16 36.5105 16C31.1366 16 26.6978 19.7411 26.1239 24.5335C25.6472 24.8389 25.3303 25.3719 25.3303 25.9799V29.8731C25.3303 30.8215 26.0992 31.5907 27.048 31.5907L28.5998 31.5869C29.5583 36.5953 32.9601 39.4448 36.5105 39.4448C40.061 39.4448 42.1236 37.7571 43.4916 34.6467C42.4473 35.466 40.9292 36.2152 38.8063 36.37C38.6112 36.6605 38.2796 36.8519 37.9033 36.8519H36.9115C36.3112 36.8519 35.8246 36.3654 35.8246 35.7649C35.8246 35.1645 36.3112 34.678 36.9115 34.678H37.9033C38.2548 34.678 38.5666 34.8456 38.7652 35.1047C42.1785 34.8306 43.7838 32.7604 44.4239 31.5915L45.9731 31.5909C46.9219 31.5909 47.6909 30.8217 47.6909 29.8733V25.9801C47.6906 25.3719 47.3737 24.8389 46.8971 24.5335ZM44.3624 24.709C43.3493 21.511 40.4226 19.6098 36.5105 19.6098C32.5983 19.6098 29.6699 21.5098 28.6558 24.7062C28.4989 24.5645 28.3161 24.4516 28.1147 24.3752C28.7631 20.7361 32.2809 17.9468 36.5105 17.9468C40.7401 17.9468 44.2579 20.7361 44.9063 24.3752C44.7037 24.4522 44.5198 24.5659 44.3624 24.709Z" fill="#D4B7FA"/>
<path d="M51.1508 44.6515L42.8876 41.3569L40.9524 39.7266C40.4414 39.2946 39.6866 39.3266 39.2127 39.7977L36.5222 42.4726L33.8243 39.7966C33.3499 39.3262 32.5961 39.2957 32.0854 39.7263L30.1504 41.3566L21.8868 44.6518C19.2263 45.7117 19.2285 55.135 19 55.9999H54.0421C53.8142 55.137 53.8128 45.7103 51.1508 44.6515Z" fill="#6406F1"/>
</svg>
