<svg width="123" height="93" viewBox="0 0 123 93" fill="none" xmlns="http://www.w3.org/2000/svg">
<path fill-rule="evenodd" clip-rule="evenodd" d="M24.83 39.37H0V83.55H24.83V39.37Z" fill="#6406F1"/>
<path d="M29.83 79.84V42.91H46.44C53.48 44.17 60.52 47.99 67.56 52.42H80.46C86.3 52.77 89.36 58.69 83.68 62.58C79.16 65.9 73.19 65.71 67.07 65.16C62.85 64.95 62.67 70.62 67.07 70.64C68.6 70.76 70.26 70.4 71.71 70.4C79.35 70.39 85.63 68.93 89.48 62.9L91.41 58.39L110.6 48.88C120.2 45.72 127.02 55.76 119.95 62.75C106.05 72.86 91.8 81.18 77.22 87.9C66.63 94.34 56.04 94.12 45.46 87.9L29.83 79.84Z" fill="#6406F1"/>
<path fill-rule="evenodd" clip-rule="evenodd" d="M111.22 22.11C111.22 9.89 101.31 0 89.11 0C76.9 0 67.01 9.91 67 22.11C67 34.33 76.91 44.22 89.11 44.22C101.33 44.22 111.22 34.31 111.22 22.11ZM96.38 10.72H81.86C81.74 10.72 81.63 10.82 81.63 10.96V14.71H86.55V14.7C87.44 14.7 88.24 15.04 88.82 15.6C89.04 15.81 89.23 16.06 89.38 16.33H81.85C81.72 16.33 81.62 16.43 81.62 16.56V18.77C81.62 18.9 81.73 19 81.85 19H89.38C89.24 19.27 89.05 19.51 88.82 19.73C88.24 20.28 87.43 20.63 86.55 20.63V20.62H81.63V24.25C81.6146 24.2995 81.6121 24.352 81.6226 24.4027C81.6331 24.4535 81.6563 24.5007 81.69 24.54L90.38 34.45L94.14 34.43C94.31 34.43 94.7 33.87 94.48 33.62L86.34 24.34H86.55V24.33C88.3518 24.3345 90.0857 23.6431 91.39 22.4C92.34 21.49 93.02 20.31 93.3 18.99H96.38C96.51 18.99 96.61 18.89 96.61 18.76V16.55C96.61 16.42 96.5 16.32 96.38 16.32H93.31C93.08 15.22 92.56 14.22 91.85 13.39H96.38C96.51 13.39 96.61 13.29 96.61 13.16V10.95C96.61 10.82 96.5 10.72 96.38 10.72Z" fill="#E9E5FE"/>
</svg>
