<svg width="72" height="98" viewBox="0 0 72 98" fill="none" xmlns="http://www.w3.org/2000/svg">
<rect width="72" height="72" rx="36" fill="white"/>
<path d="M27.5837 87.2C28.405 87.2 29.035 87.4147 29.4737 87.844C29.9217 88.264 30.1457 88.8613 30.1457 89.636C30.1457 90.0467 30.0524 90.4247 29.8657 90.77C29.679 91.1153 29.4037 91.3907 29.0397 91.596C28.685 91.8013 28.2464 91.9133 27.7237 91.932L27.6957 91.54C28.0224 91.54 28.3584 91.5867 28.7037 91.68C29.049 91.7733 29.3664 91.9227 29.6557 92.128C29.9544 92.3333 30.1924 92.604 30.3697 92.94C30.5564 93.276 30.6497 93.6913 30.6497 94.186C30.6497 94.718 30.561 95.166 30.3837 95.53C30.2064 95.8847 29.9684 96.174 29.6697 96.398C29.3804 96.6127 29.0537 96.7667 28.6897 96.86C28.335 96.9533 27.9757 97 27.6117 97H23.9297C23.771 97 23.6357 96.944 23.5237 96.832C23.421 96.72 23.3697 96.5847 23.3697 96.426V87.76C23.3697 87.6013 23.421 87.4707 23.5237 87.368C23.6357 87.256 23.771 87.2 23.9297 87.2H27.5837ZM27.4157 88.306H24.4057L24.5737 88.054V91.54L24.4197 91.358H27.4437C27.8544 91.358 28.2044 91.2273 28.4937 90.966C28.7924 90.6953 28.9417 90.2987 28.9417 89.776C28.9417 89.3093 28.8064 88.95 28.5357 88.698C28.265 88.4367 27.8917 88.306 27.4157 88.306ZM27.5277 92.478H24.4757L24.5737 92.38V96.034L24.4617 95.908H27.5697C28.1204 95.908 28.5684 95.768 28.9137 95.488C29.2684 95.208 29.4457 94.774 29.4457 94.186C29.4457 93.7287 29.3524 93.3787 29.1657 93.136C28.979 92.884 28.7364 92.7113 28.4377 92.618C28.1484 92.5247 27.845 92.478 27.5277 92.478ZM35.3722 97.14C34.6815 97.14 34.0748 97.0373 33.5522 96.832C33.0295 96.6267 32.5255 96.3 32.0402 95.852C31.9748 95.7867 31.9188 95.7167 31.8722 95.642C31.8348 95.558 31.8162 95.4693 31.8162 95.376C31.8162 95.2267 31.8675 95.096 31.9702 94.984C32.0822 94.8627 32.2175 94.802 32.3762 94.802C32.5068 94.802 32.6235 94.8533 32.7262 94.956C33.0902 95.3107 33.4822 95.5813 33.9022 95.768C34.3315 95.9547 34.8122 96.048 35.3442 96.048C35.7548 96.048 36.1235 95.9827 36.4502 95.852C36.7862 95.7213 37.0522 95.5393 37.2482 95.306C37.4442 95.0727 37.5422 94.802 37.5422 94.494C37.5328 94.1207 37.4208 93.8127 37.2062 93.57C37.0008 93.3273 36.7115 93.1267 36.3382 92.968C35.9742 92.8 35.5495 92.66 35.0642 92.548C34.6348 92.4453 34.2382 92.3193 33.8742 92.17C33.5195 92.0207 33.2115 91.8387 32.9502 91.624C32.6888 91.4 32.4835 91.134 32.3342 90.826C32.1942 90.5087 32.1242 90.14 32.1242 89.72C32.1242 89.188 32.2642 88.7213 32.5442 88.32C32.8242 87.9187 33.2115 87.6107 33.7062 87.396C34.2008 87.172 34.7702 87.06 35.4142 87.06C35.9835 87.06 36.5202 87.1533 37.0242 87.34C37.5375 87.5267 37.9482 87.7833 38.2562 88.11C38.4428 88.2873 38.5362 88.46 38.5362 88.628C38.5362 88.768 38.4755 88.8987 38.3542 89.02C38.2422 89.132 38.1115 89.188 37.9622 89.188C37.8595 89.188 37.7662 89.1507 37.6822 89.076C37.5235 88.8987 37.3228 88.74 37.0802 88.6C36.8375 88.46 36.5715 88.348 36.2822 88.264C35.9928 88.18 35.7035 88.138 35.4142 88.138C34.9848 88.138 34.6068 88.2033 34.2802 88.334C33.9535 88.4553 33.6968 88.6327 33.5102 88.866C33.3328 89.09 33.2442 89.3607 33.2442 89.678C33.2442 90.0327 33.3468 90.3267 33.5522 90.56C33.7575 90.784 34.0328 90.9707 34.3782 91.12C34.7235 91.26 35.1062 91.386 35.5262 91.498C35.9835 91.61 36.4035 91.7407 36.7862 91.89C37.1782 92.03 37.5142 92.2073 37.7942 92.422C38.0742 92.6367 38.2888 92.912 38.4382 93.248C38.5968 93.5747 38.6762 93.9807 38.6762 94.466C38.6762 94.9793 38.5315 95.4367 38.2422 95.838C37.9528 96.2393 37.5562 96.5567 37.0522 96.79C36.5575 97.014 35.9975 97.1307 35.3722 97.14ZM41.1292 97C40.9612 97 40.8212 96.944 40.7092 96.832C40.6066 96.72 40.5552 96.5847 40.5552 96.426V87.76C40.5552 87.6013 40.6066 87.4707 40.7092 87.368C40.8212 87.256 40.9566 87.2 41.1152 87.2H46.0292C46.1879 87.2 46.3232 87.2513 46.4352 87.354C46.5472 87.4567 46.6032 87.5873 46.6032 87.746C46.6032 87.8953 46.5472 88.0213 46.4352 88.124C46.3232 88.2267 46.1879 88.278 46.0292 88.278H41.6192L41.7032 88.166V91.596L41.6332 91.442H45.3992C45.5579 91.442 45.6932 91.498 45.8052 91.61C45.9172 91.7127 45.9732 91.8433 45.9732 92.002C45.9732 92.142 45.9172 92.268 45.8052 92.38C45.6932 92.4827 45.5579 92.534 45.3992 92.534H41.6052L41.7032 92.408V96.426C41.7032 96.5847 41.6472 96.72 41.5352 96.832C41.4232 96.944 41.2879 97 41.1292 97ZM49.6333 96.426C49.6333 96.5847 49.5726 96.72 49.4513 96.832C49.3393 96.944 49.2039 97 49.0453 97C48.8679 97 48.7279 96.944 48.6253 96.832C48.5226 96.72 48.4713 96.5847 48.4713 96.426V87.774C48.4713 87.606 48.5273 87.4707 48.6393 87.368C48.7513 87.256 48.8913 87.2 49.0593 87.2C49.2179 87.2 49.3533 87.256 49.4653 87.368C49.5773 87.4707 49.6333 87.606 49.6333 87.774V96.426Z" fill="#17171A"/>
<g clip-path="url(#clip0_24_1153)">
<path fill-rule="evenodd" clip-rule="evenodd" d="M20.6796 32.9333H10V51.9355H20.6796V32.9333Z" fill="#6406F1"/>
<path d="M22.8301 50.3398V34.4559H29.9742C33.0021 34.9979 36.0301 36.6409 39.058 38.5463H44.6064C47.1182 38.6968 48.4344 41.243 45.9914 42.9161C44.0473 44.3441 41.4795 44.2624 38.8473 44.0258C37.0322 43.9355 36.9548 46.3742 38.8473 46.3828C39.5053 46.4344 40.2193 46.2796 40.843 46.2796C44.129 46.2753 46.8301 45.6473 48.486 43.0538L49.3161 41.114L57.5699 37.0237C61.6989 35.6645 64.6322 39.9828 61.5914 42.9893C55.6129 47.3377 49.4838 50.9161 43.2129 53.8065C38.658 56.5764 34.1032 56.4817 29.5527 53.8065L22.8301 50.3398Z" fill="#6406F1"/>
<path fill-rule="evenodd" clip-rule="evenodd" d="M57.8365 25.5097C57.8365 20.2538 53.5741 16 48.3268 16C43.0752 16 38.8214 20.2624 38.8171 25.5097C38.8171 30.7656 43.0795 35.0194 48.3268 35.0194C53.5827 35.0194 57.8365 30.757 57.8365 25.5097ZM51.4537 20.6108H45.2085C45.1569 20.6108 45.1096 20.6538 45.1096 20.714V22.3269H47.2257V22.3226C47.6085 22.3226 47.9526 22.4688 48.2021 22.7097C48.2967 22.8 48.3784 22.9075 48.4429 23.0237H45.2042C45.1483 23.0237 45.1053 23.0667 45.1053 23.1226V24.0731C45.1053 24.129 45.1526 24.172 45.2042 24.172H48.4429C48.3827 24.2882 48.301 24.3914 48.2021 24.486C47.9526 24.7226 47.6042 24.8731 47.2257 24.8731V24.8688H45.1096V26.4301C45.103 26.4514 45.1019 26.474 45.1064 26.4958C45.1109 26.5176 45.1209 26.5379 45.1354 26.5548L48.8731 30.8172L50.4903 30.8086C50.5634 30.8086 50.7311 30.5677 50.6365 30.4602L47.1354 26.4688H47.2257V26.4645C48.0007 26.4665 48.7465 26.1691 49.3075 25.6344C49.7161 25.243 50.0085 24.7355 50.129 24.1677H51.4537C51.5096 24.1677 51.5526 24.1247 51.5526 24.0688V23.1183C51.5526 23.0624 51.5053 23.0194 51.4537 23.0194H50.1333C50.0343 22.5462 49.8107 22.1161 49.5053 21.7591H51.4537C51.5096 21.7591 51.5526 21.7161 51.5526 21.6602V20.7097C51.5526 20.6538 51.5053 20.6108 51.4537 20.6108Z" fill="#E9E5FE"/>
</g>
<defs>
<clipPath id="clip0_24_1153">
<rect width="52.9032" height="40" fill="white" transform="translate(10 16)"/>
</clipPath>
</defs>
</svg>
