<svg width="52" height="58" viewBox="0 0 52 58" fill="none" xmlns="http://www.w3.org/2000/svg">
<g clip-path="url(#clip0_117_1594)">
<path d="M50.2577 40.0338C46.8293 37.2726 44.1904 33.7245 42.9993 31.0438C45.4992 26.6193 46.2598 21.4409 45.136 16.498C44.0121 11.555 41.0825 7.19378 36.9067 4.24734C32.7309 1.3009 27.6016 -0.0242681 22.4985 0.524943C17.3953 1.07416 12.676 3.45926 9.24194 7.22469C5.80788 10.9901 3.89973 15.872 3.88196 20.9378C3.86419 26.0037 5.73805 30.8984 9.14561 34.6872C12.5532 38.476 17.2556 40.8933 22.3548 41.4774C27.454 42.0614 32.5925 40.7714 36.7888 37.8535C43.399 40.2948 50.7528 40.438 50.2577 40.0338Z" fill="white" stroke="#383838" stroke-width="0.678055" stroke-miterlimit="10"/>
<path d="M15.1934 14.2572C19.7214 10.6011 26.7273 11.8198 27.5446 18.3214C28.1173 22.835 23.8398 35.7871 34.1806 32.5903" stroke="#6606EF" stroke-width="1.01708" stroke-miterlimit="10"/>
<path d="M16.3284 15.6288C16.0541 15.849 15.7199 15.9841 15.368 16.0171C15.016 16.05 14.662 15.9793 14.3507 15.814C14.0394 15.6486 13.7846 15.396 13.6187 15.0879C13.4527 14.7799 13.3829 14.4302 13.4181 14.083C13.4532 13.7358 13.5918 13.4067 13.8163 13.1372C14.0408 12.8677 14.3412 12.6698 14.6796 12.5686C15.0179 12.4673 15.379 12.4672 15.7174 12.5683C16.0558 12.6694 16.3563 12.8671 16.5809 13.1365C16.7308 13.3163 16.8432 13.5235 16.9117 13.7462C16.9801 13.969 17.0033 14.2029 16.9798 14.4345C16.9563 14.6661 16.8867 14.8909 16.7749 15.0958C16.6631 15.3008 16.5114 15.4819 16.3284 15.6288Z" fill="#6606EF"/>
<path d="M34.7194 34.2799C35.0565 34.1747 35.3544 33.9732 35.5756 33.701C35.7968 33.4288 35.9314 33.098 35.9623 32.7504C35.9932 32.4028 35.9191 32.054 35.7493 31.7479C35.5795 31.4418 35.3216 31.1923 35.0083 31.0307C34.6949 30.8691 34.34 30.8027 33.9885 30.8399C33.6369 30.8771 33.3044 31.0163 33.0329 31.2398C32.7614 31.4633 32.5631 31.7612 32.4629 32.0959C32.3628 32.4305 32.3653 32.7869 32.4703 33.1201C32.5402 33.3424 32.654 33.5488 32.8051 33.7275C32.9561 33.9062 33.1415 34.0536 33.3505 34.1614C33.5595 34.2692 33.788 34.3351 34.023 34.3555C34.2579 34.3758 34.4945 34.3501 34.7194 34.2799Z" fill="#6606EF"/>
<path d="M32.0742 10.3482C32.7991 10.3482 33.3867 9.76835 33.3867 9.05303C33.3867 8.3377 32.7991 7.75781 32.0742 7.75781C31.3493 7.75781 30.7617 8.3377 30.7617 9.05303C30.7617 9.76835 31.3493 10.3482 32.0742 10.3482Z" stroke="#6606EF" stroke-width="1.01708" stroke-miterlimit="10"/>
<path d="M0.0482307 48.9255H0.927194C0.959011 48.9255 0.97492 48.9452 0.97492 48.9726V51.7848C3.84249 49.8799 5.29218 48.9268 5.324 48.9255H6.98448V48.953L3.62374 51.2079C4.72543 51.2079 5.66604 51.7031 6.44557 52.6934C6.85536 53.2861 7.06422 53.9917 7.04215 54.7089V57.9528C7.0431 57.959 7.04259 57.9654 7.04065 57.9714C7.03872 57.9774 7.03542 57.9829 7.031 57.9874C7.02659 57.992 7.02117 57.9954 7.01518 57.9976C7.00918 57.9998 7.00276 58.0005 6.99641 57.9999H6.12143C6.11508 58.0005 6.10866 57.9998 6.10266 57.9976C6.09667 57.9954 6.09125 57.992 6.08684 57.9874C6.08242 57.9829 6.07912 57.9774 6.07718 57.9714C6.07525 57.9654 6.07474 57.959 6.07569 57.9528V54.5911C6.07569 53.5549 5.53081 52.77 4.44106 52.2362C4.13541 52.1347 3.8167 52.0765 3.49448 52.0635C2.61552 52.0635 1.89432 52.473 1.33088 53.292C1.10284 53.654 0.979728 54.0707 0.97492 54.4969V57.9528C0.97594 57.9592 0.975409 57.9658 0.973371 57.9719C0.971333 57.9781 0.967845 57.9837 0.963193 57.9883C0.958541 57.9929 0.952855 57.9963 0.946599 57.9983C0.940343 58.0004 0.933694 58.0009 0.927194 57.9999H0.0482307C0.0417307 58.0009 0.0350817 58.0004 0.0288257 57.9983C0.0225698 57.9963 0.0168839 57.9929 0.0122314 57.9883C0.00757899 57.9837 0.00409169 57.9781 0.00205374 57.9719C1.57973e-05 57.9658 -0.000515121 57.9592 0.00050426 57.9528V48.9726C0.00050426 48.9412 0.0164131 48.9255 0.0482307 48.9255Z" fill="white"/>
<path d="M11.164 51.208H11.335C12.544 51.208 13.5297 51.7542 14.292 52.8466C14.6309 53.3812 14.8082 54 14.8031 54.6305C14.8031 55.859 14.2065 56.8402 13.0134 57.5742C12.545 57.843 12.0158 57.9914 11.4742 58.0059H10.9949C10.1266 58.0059 9.2887 57.5879 8.48133 56.7519C8.0026 56.1639 7.73539 55.4357 7.72168 54.6815V54.4853C7.72168 53.3431 8.32489 52.3874 9.53131 51.6182C10.0363 51.3594 10.595 51.219 11.164 51.208ZM8.69609 54.5049V54.7227C8.69609 55.5313 9.11105 56.2214 9.94096 56.7931C10.3059 56.9974 10.7149 57.1131 11.1341 57.1307H11.3827C12.2484 57.1307 12.9723 56.6728 13.5543 55.757C13.7218 55.4039 13.8133 55.0203 13.8227 54.6305V54.603C13.8227 53.5472 13.2785 52.7623 12.1901 52.2481C11.8913 52.1449 11.5779 52.0892 11.2614 52.0833C10.1465 52.0833 9.33112 52.6537 8.81541 53.7945C8.74517 54.0253 8.70507 54.2641 8.69609 54.5049Z" fill="white"/>
<path d="M18.914 51.208H19.0909C20.0269 51.2193 20.9215 51.5903 21.5846 52.2422V51.261C21.5846 51.2296 21.6006 51.2139 21.6324 51.2139H22.5113C22.5432 51.2139 22.5591 51.2296 22.5591 51.261V57.9588C22.5601 57.9652 22.5596 57.9718 22.5575 57.978C22.5555 57.9841 22.552 57.9897 22.5473 57.9943C22.5427 57.9989 22.537 58.0024 22.5307 58.0044C22.5245 58.0064 22.5178 58.0069 22.5113 58.0059H21.6324C21.6259 58.0069 21.6192 58.0064 21.613 58.0044C21.6067 58.0024 21.601 57.9989 21.5964 57.9943C21.5917 57.9897 21.5882 57.9841 21.5862 57.978C21.5842 57.9718 21.5836 57.9652 21.5846 57.9588V56.9776C20.8277 57.6684 20.0455 58.0138 19.2381 58.0138H18.7449C17.8752 58.0138 17.0374 57.5958 16.2313 56.7598C15.7517 56.1723 15.4843 55.4437 15.4717 54.6894V54.4931C15.4717 53.351 16.0742 52.3953 17.2793 51.626C17.7845 51.3647 18.3438 51.2217 18.914 51.208ZM16.4461 54.5049V54.7227C16.4461 55.5273 16.8637 56.2175 17.6989 56.7931C18.0637 56.9979 18.4728 57.1136 18.8921 57.1307H19.1407C19.899 57.1307 20.5618 56.7617 21.1293 56.0238C21.425 55.5912 21.5797 55.0797 21.5727 54.5579C21.5727 53.5989 21.0689 52.8427 20.0614 52.2893C19.7275 52.1557 19.3716 52.0839 19.0114 52.0774C17.8951 52.0774 17.0798 52.6478 16.5654 53.7886C16.4937 54.0211 16.4536 54.262 16.4461 54.5049Z" fill="white"/>
<path d="M26.6611 51.208H26.8301C27.9715 51.208 28.9234 51.7052 29.6857 52.6995L29.807 52.8957L29.7593 52.9232H28.6855C28.4387 52.6625 28.1413 52.4536 27.8109 52.3089C27.4805 52.1643 27.1239 52.0869 26.7625 52.0813C25.6462 52.0813 24.8309 52.6517 24.3165 53.7925C24.2441 54.025 24.2033 54.2658 24.1952 54.5088V54.7267C24.1952 55.5352 24.6095 56.2253 25.4381 56.797C25.8028 57.002 26.2119 57.1177 26.6312 57.1346H26.8798C27.4989 57.1346 28.0922 56.8625 28.6596 56.3182H29.7553C29.7871 56.3182 29.8031 56.3378 29.8031 56.3653C28.9917 57.4577 28.0484 58.0039 26.9733 58.0039H26.49C25.6217 58.0039 24.7838 57.5859 23.9764 56.7499C23.4968 56.1625 23.2294 55.4339 23.2168 54.6796V54.4833C23.2168 53.3412 23.8193 52.3855 25.0244 51.6162C25.531 51.3579 26.091 51.2183 26.6611 51.208Z" fill="white"/>
<path d="M30.5267 48.9336H31.3997C31.4355 48.9336 31.4534 48.9533 31.4534 48.9788V52.2423C32.1332 51.5816 33.0507 51.2139 34.0048 51.2199C35.4021 51.2199 36.4627 51.8655 37.1866 53.1568C37.4298 53.6444 37.5473 54.1836 37.5286 54.7268V57.9628C37.5296 57.9691 37.5291 57.9754 37.5271 57.9814C37.5252 57.9874 37.5219 57.9929 37.5175 57.9975C37.5131 58.002 37.5076 58.0055 37.5016 58.0077C37.4956 58.0098 37.4892 58.0106 37.4829 58.0099H36.6019C36.5954 58.0109 36.5888 58.0104 36.5825 58.0084C36.5763 58.0064 36.5706 58.0029 36.5659 57.9984C36.5613 57.9938 36.5578 57.9882 36.5558 57.982C36.5537 57.9758 36.5532 57.9692 36.5542 57.9628V54.5914C36.5542 53.5552 36.012 52.7702 34.9275 52.2364C34.6212 52.1388 34.3027 52.0833 33.981 52.0716C33.098 52.0716 32.3768 52.4785 31.8174 53.2922C31.5887 53.6522 31.4629 54.0665 31.4534 54.4913V57.9471C31.4534 57.9785 31.4355 57.9942 31.3997 57.9942H30.5267C30.5202 57.9952 30.5136 57.9947 30.5073 57.9927C30.5011 57.9907 30.4954 57.9873 30.4907 57.9827C30.4861 57.9781 30.4826 57.9725 30.4806 57.9663C30.4785 57.9601 30.478 57.9535 30.479 57.9471V48.9788C30.479 48.9727 30.4803 48.9666 30.4827 48.961C30.4851 48.9554 30.4887 48.9504 30.4931 48.9461C30.4976 48.9419 30.5029 48.9386 30.5086 48.9365C30.5144 48.9343 30.5206 48.9334 30.5267 48.9336Z" fill="white"/>
<path d="M46.0565 51.208H46.2235C47.1612 51.2166 48.058 51.5879 48.7212 52.2422V51.261C48.7212 51.2296 48.7371 51.2139 48.7689 51.2139H49.6479C49.6797 51.2139 49.6956 51.2296 49.6956 51.261V57.9588C49.6966 57.9652 49.6961 57.9718 49.6941 57.978C49.692 57.9841 49.6885 57.9897 49.6839 57.9943C49.6792 57.9989 49.6735 58.0024 49.6673 58.0044C49.661 58.0064 49.6544 58.0069 49.6479 58.0059H48.7689C48.7624 58.0069 48.7558 58.0064 48.7495 58.0044C48.7433 58.0024 48.7376 57.9989 48.7329 57.9943C48.7283 57.9897 48.7248 57.9841 48.7227 57.978C48.7207 57.9718 48.7202 57.9652 48.7212 57.9588V56.9776C47.9629 57.6684 47.1813 58.0138 46.3766 58.0138H45.8914C45.0217 58.0138 44.1839 57.5958 43.3778 56.7598C42.8991 56.1718 42.6319 55.4435 42.6182 54.6894V54.4931C42.6182 53.351 43.2207 52.3953 44.4258 51.626C44.9297 51.3653 45.4876 51.2223 46.0565 51.208ZM43.5886 54.5049V54.7227C43.5886 55.5313 44.0036 56.2214 44.8335 56.7931C45.198 56.9984 45.6072 57.1141 46.0266 57.1307H46.2752C47.0335 57.1307 47.6964 56.7617 48.2638 56.0238C48.5648 55.5922 48.7245 55.0799 48.7212 54.5559C48.7212 53.597 48.2174 52.8408 47.2098 52.2874C46.876 52.1536 46.5201 52.0817 46.1599 52.0754C45.0449 52.0754 44.2296 52.6458 43.7139 53.7867C43.6409 54.0197 43.5988 54.2612 43.5886 54.5049Z" fill="white"/>
<path d="M51.1068 48.9255H51.9599C51.9918 48.936 52.0077 48.9537 52.0077 48.9785V50.0068C52.0077 50.0422 51.9918 50.0598 51.9599 50.0598H51.1068C51.075 50.0598 51.0591 50.0422 51.0591 50.0068V48.9785C51.0578 48.9432 51.0737 48.9255 51.1068 48.9255ZM51.1068 51.2079H51.9599C51.9918 51.2079 52.0077 51.2236 52.0077 51.255V57.9528C52.0087 57.9592 52.0081 57.9658 52.0061 57.9719C52.0041 57.9781 52.0006 57.9837 51.9959 57.9883C51.9913 57.9929 51.9856 57.9963 51.9793 57.9983C51.9731 58.0004 51.9664 58.0009 51.9599 57.9999H51.1068C51.1003 58.0009 51.0937 58.0004 51.0874 57.9983C51.0812 57.9963 51.0755 57.9929 51.0708 57.9883C51.0662 57.9837 51.0627 57.9781 51.0606 57.9719C51.0586 57.9658 51.0581 57.9592 51.0591 57.9528V51.255C51.0578 51.2236 51.0737 51.2079 51.1068 51.2079Z" fill="white"/>
<path d="M39.7586 56.8657H40.6137C40.6265 56.8676 40.6382 56.874 40.6466 56.8838C40.6551 56.8935 40.6596 56.9059 40.6595 56.9187V57.947C40.6595 57.9824 40.6436 58 40.6137 58H39.7586C39.7288 58 39.7129 57.9824 39.7129 57.947V56.9109C39.7169 56.8834 39.7328 56.8657 39.7586 56.8657Z" fill="white"/>
<path d="M23.5314 18.0173C16.2213 16.1883 10.8262 22.998 14.3699 29.2915C18.4863 36.6055 30.0162 35.3869 37.4377 20.3526" stroke="#FF9408" stroke-width="1.01708" stroke-miterlimit="10"/>
<path d="M23.9702 16.3C24.312 16.3879 24.6199 16.5735 24.855 16.8337C25.09 17.0938 25.2419 17.4168 25.2913 17.7619C25.3408 18.107 25.2857 18.4589 25.1329 18.7732C24.9801 19.0874 24.7366 19.3501 24.4328 19.528C24.1291 19.7059 23.7788 19.7912 23.4261 19.773C23.0734 19.7549 22.734 19.6342 22.4506 19.4261C22.1673 19.218 21.9527 18.9318 21.8339 18.6035C21.715 18.2753 21.6972 17.9197 21.7828 17.5815C21.8401 17.355 21.9423 17.142 22.0835 16.9547C22.2248 16.7674 22.4022 16.6097 22.6056 16.4905C22.809 16.3713 23.0344 16.2931 23.2686 16.2604C23.5028 16.2278 23.7413 16.2412 23.9702 16.3Z" fill="#FF9408"/>
<path d="M39.0402 21.1276C39.1943 20.8135 39.2507 20.4614 39.2022 20.1157C39.1537 19.77 39.0026 19.4463 38.7678 19.1853C38.533 18.9243 38.2252 18.7378 37.8831 18.6494C37.541 18.5609 37.1801 18.5744 36.8458 18.6882C36.5115 18.802 36.2188 19.011 36.0048 19.2888C35.7907 19.5665 35.6649 19.9007 35.6431 20.249C35.6213 20.5973 35.7045 20.9442 35.8823 21.2458C36.0601 21.5475 36.3244 21.7904 36.642 21.944C36.8537 22.0463 37.0838 22.1064 37.319 22.1207C37.5543 22.1351 37.7902 22.1034 38.013 22.0275C38.2358 21.9517 38.4413 21.8331 38.6176 21.6787C38.7939 21.5242 38.9375 21.337 39.0402 21.1276Z" fill="#FF9408"/>
<path d="M32.4855 15.4758C32.4855 20.0326 30.8389 26.4478 37.6201 27.2152" stroke="#0EDDC9" stroke-width="1.01708" stroke-miterlimit="10"/>
<path d="M32.4861 17.2459C33.4767 17.2459 34.2798 16.4534 34.2798 15.4758C34.2798 14.4982 33.4767 13.7057 32.4861 13.7057C31.4955 13.7057 30.6924 14.4982 30.6924 15.4758C30.6924 16.4534 31.4955 17.2459 32.4861 17.2459Z" fill="#0EDDC9"/>
<path d="M37.4175 28.9735C37.7688 29.0122 38.1238 28.9474 38.4378 28.7872C38.7518 28.627 39.0107 28.3786 39.1819 28.0734C39.353 27.7681 39.4288 27.4197 39.3995 27.0721C39.3703 26.7245 39.2374 26.3932 39.0176 26.12C38.7978 25.8468 38.5009 25.6439 38.1644 25.537C37.8279 25.4301 37.4669 25.4239 37.1269 25.5192C36.7868 25.6146 36.483 25.8071 36.2537 26.0726C36.0245 26.3381 35.88 26.6647 35.8385 27.0111C35.8108 27.2424 35.8298 27.4768 35.8943 27.7008C35.9588 27.9249 36.0675 28.1341 36.2143 28.3165C36.361 28.4989 36.5429 28.6508 36.7494 28.7636C36.9559 28.8764 37.1829 28.9477 37.4175 28.9735Z" fill="#0EDDC9"/>
</g>
<defs>
<clipPath id="clip0_117_1594">
<rect width="52" height="58" fill="white"/>
</clipPath>
</defs>
</svg>
