<svg width="72" height="72" viewBox="0 0 72 72" fill="none" xmlns="http://www.w3.org/2000/svg">
<rect width="72" height="72" rx="36" fill="white"/>
<path d="M30.9036 40.3362C24.8817 40.3362 20 43.9421 20 48.3901H41.8073C41.8073 43.9421 36.9255 40.3362 30.9036 40.3362Z" fill="#FF9408" fill-opacity="0.5"/>
<path d="M30.9041 36.1079C34.9187 36.1079 38.1732 32.502 38.1732 28.054C38.1732 23.6059 34.9187 20 30.9041 20C26.8895 20 23.635 23.6059 23.635 28.054C23.635 32.502 26.8895 36.1079 30.9041 36.1079Z" fill="#FF9408" fill-opacity="0.5"/>
<path d="M51.001 39.1921H35.0167C34.465 39.1921 34.0177 39.67 34.0177 40.2595V50.933C34.0177 51.5225 34.465 52.0004 35.0167 52.0004H51.001C51.5527 52.0004 52 51.5225 52 50.933V40.2595C52 39.67 51.5527 39.1921 51.001 39.1921Z" fill="#FF9408"/>
<path d="M39.6963 40.5402C39.6963 38.1822 41.4215 36.2708 43.5497 36.2708C45.6778 36.2708 47.403 38.1822 47.403 40.5402" stroke="#FF9408" stroke-width="1.16216" stroke-linecap="round" stroke-linejoin="round"/>
<path d="M42.7145 47.2644L41.768 46.2158" stroke="white" stroke-width="1.16" stroke-linecap="round" stroke-linejoin="round"/>
<path d="M45.5538 44.1184L42.7145 47.2643" stroke="white" stroke-width="1.16" stroke-linecap="round" stroke-linejoin="round"/>
</svg>
