<svg width="32" height="32" viewBox="0 0 32 32" fill="none" xmlns="http://www.w3.org/2000/svg">
<path d="M10.9036 20.3362C4.88172 20.3362 0 23.942 0 28.3901H21.8073C21.8073 23.942 16.9255 20.3362 10.9036 20.3362Z" fill="#6606EF" fill-opacity="0.5"/>
<path d="M10.9041 16.1079C14.9187 16.1079 18.1732 12.502 18.1732 8.05393C18.1732 3.60587 14.9187 0 10.9041 0C6.88953 0 3.63505 3.60587 3.63505 8.05393C3.63505 12.502 6.88953 16.1079 10.9041 16.1079Z" fill="#6606EF" fill-opacity="0.5"/>
<path d="M31.001 19.1919H15.0167C14.465 19.1919 14.0177 19.6698 14.0177 20.2592V30.9327C14.0177 31.5222 14.465 32.0001 15.0167 32.0001H31.001C31.5527 32.0001 32 31.5222 32 30.9327V20.2592C32 19.6698 31.5527 19.1919 31.001 19.1919Z" fill="#6606EF"/>
<path d="M19.6963 20.5399C19.6963 18.182 21.4215 16.2705 23.5497 16.2705C25.6778 16.2705 27.403 18.182 27.403 20.5399" stroke="#6606EF" stroke-width="1.16216" stroke-linecap="round" stroke-linejoin="round"/>
<path d="M20.8558 25.3191L26.5344 25.3191" stroke="white" stroke-width="1.16" stroke-linecap="round" stroke-linejoin="round"/>
<path d="M23.6951 22.1731L23.6951 28.4648" stroke="white" stroke-width="1.16" stroke-linecap="round" stroke-linejoin="round"/>
</svg>
