<svg width="32" height="32" viewBox="0 0 32 32" fill="none" xmlns="http://www.w3.org/2000/svg">
<path d="M10.9036 20.3362C4.88172 20.3362 0 23.9421 0 28.3901H21.8073C21.8073 23.9421 16.9255 20.3362 10.9036 20.3362Z" fill="#FF9408" fill-opacity="0.5"/>
<path d="M10.9041 16.1079C14.9187 16.1079 18.1732 12.502 18.1732 8.05395C18.1732 3.60588 14.9187 0 10.9041 0C6.88953 0 3.63505 3.60588 3.63505 8.05395C3.63505 12.502 6.88953 16.1079 10.9041 16.1079Z" fill="#FF9408" fill-opacity="0.5"/>
<path d="M31.001 19.1921H15.0167C14.465 19.1921 14.0177 19.67 14.0177 20.2595V30.933C14.0177 31.5225 14.465 32.0004 15.0167 32.0004H31.001C31.5527 32.0004 32 31.5225 32 30.933V20.2595C32 19.67 31.5527 19.1921 31.001 19.1921Z" fill="#FF9408"/>
<path d="M19.6963 20.5402C19.6963 18.1822 21.4215 16.2708 23.5497 16.2708C25.6778 16.2708 27.403 18.1822 27.403 20.5402" stroke="#FF9408" stroke-width="1.16216" stroke-linecap="round" stroke-linejoin="round"/>
<path d="M22.7145 27.2644L21.768 26.2158" stroke="white" stroke-width="1.16" stroke-linecap="round" stroke-linejoin="round"/>
<path d="M25.5538 24.1184L22.7145 27.2643" stroke="white" stroke-width="1.16" stroke-linecap="round" stroke-linejoin="round"/>
</svg>
