<svg width="32" height="32" viewBox="0 0 32 32" fill="none" xmlns="http://www.w3.org/2000/svg">
<path d="M10.9036 20.3364C4.88172 20.3364 0 23.9423 0 28.3904H21.8073C21.8073 23.9423 16.9255 20.3364 10.9036 20.3364Z" fill="#0EDDC9" fill-opacity="0.5"/>
<path d="M10.9041 16.1079C14.9187 16.1079 18.1732 12.502 18.1732 8.05395C18.1732 3.60588 14.9187 0 10.9041 0C6.88953 0 3.63505 3.60588 3.63505 8.05395C3.63505 12.502 6.88953 16.1079 10.9041 16.1079Z" fill="#0EDDC9" fill-opacity="0.5"/>
<path d="M31.001 19.1919H15.0167C14.465 19.1919 14.0177 19.6698 14.0177 20.2592V30.9328C14.0177 31.5222 14.465 32.0001 15.0167 32.0001H31.001C31.5527 32.0001 32 31.5222 32 30.9328V20.2592C32 19.6698 31.5527 19.1919 31.001 19.1919Z" fill="#0EDDC9"/>
<path d="M19.6963 20.5399C19.6963 18.182 21.4215 16.2705 23.5497 16.2705C25.6778 16.2705 27.403 18.182 27.403 20.5399" stroke="#0EDDC9" stroke-width="1.16216" stroke-linecap="round" stroke-linejoin="round"/>
<g style="mix-blend-mode:color-burn">
<path d="M23.6609 28.854L23.6609 24.6595" stroke="white" stroke-width="1.16" stroke-linecap="round" stroke-linejoin="round"/>
</g>
<g style="mix-blend-mode:color-burn">
<path d="M21.768 28.854L21.768 26.7568" stroke="white" stroke-width="1.16" stroke-linecap="round" stroke-linejoin="round"/>
</g>
<g style="mix-blend-mode:color-burn">
<path d="M25.5538 22.5623L25.5538 28.854" stroke="white" stroke-width="1.16" stroke-linecap="round" stroke-linejoin="round"/>
</g>
<path d="M27.2011 22.0212H25.0403C24.8715 22.0212 24.7347 22.1752 24.7347 22.3651C24.7347 22.555 24.8715 22.7089 25.0403 22.7089H26.4918L24.0904 26.2902L22.8117 24.8405C22.7499 24.771 22.6656 24.7296 22.5774 24.7351C22.4901 24.741 22.4093 24.7858 22.3554 24.8632L18.9941 29.6758C18.8898 29.8251 18.9128 30.0407 19.0456 30.1579C19.1015 30.2074 19.1681 30.231 19.2342 30.231C19.3246 30.231 19.4143 30.1857 19.4745 30.0994L22.6231 25.5901L23.9075 27.0354C23.97 27.1059 24.0567 27.1408 24.1451 27.1353C24.2335 27.1282 24.2848 27.0783 24.3379 26.9986L26.8355 23.2063V24.7571C26.8355 24.947 26.9723 25.101 27.1411 25.101C27.3098 25.101 27.4466 24.947 27.4466 24.7571V22.3221C27.4467 22.1322 27.3698 22.0212 27.2011 22.0212Z" fill="white"/>
</svg>
