<svg width="72" height="72" viewBox="0 0 72 72" fill="none" xmlns="http://www.w3.org/2000/svg">
<rect width="72" height="72" rx="36" fill="white"/>
<path d="M30.9036 40.3362C24.8817 40.3362 20 43.942 20 48.3901H41.8073C41.8073 43.942 36.9255 40.3362 30.9036 40.3362Z" fill="#6606EF" fill-opacity="0.5"/>
<path d="M30.9041 36.1079C34.9187 36.1079 38.1732 32.502 38.1732 28.0539C38.1732 23.6059 34.9187 20 30.9041 20C26.8895 20 23.635 23.6059 23.635 28.0539C23.635 32.502 26.8895 36.1079 30.9041 36.1079Z" fill="#6606EF" fill-opacity="0.5"/>
<path d="M51.001 39.1919H35.0167C34.465 39.1919 34.0177 39.6698 34.0177 40.2592V50.9327C34.0177 51.5222 34.465 52.0001 35.0167 52.0001H51.001C51.5527 52.0001 52 51.5222 52 50.9327V40.2592C52 39.6698 51.5527 39.1919 51.001 39.1919Z" fill="#6606EF"/>
<path d="M39.6963 40.5399C39.6963 38.182 41.4215 36.2705 43.5497 36.2705C45.6778 36.2705 47.403 38.182 47.403 40.5399" stroke="#6606EF" stroke-width="1.16216" stroke-linecap="round" stroke-linejoin="round"/>
<path d="M40.8558 45.3191L46.5344 45.3191" stroke="white" stroke-width="1.16" stroke-linecap="round" stroke-linejoin="round"/>
<path d="M43.6951 42.1731L43.6951 48.4648" stroke="white" stroke-width="1.16" stroke-linecap="round" stroke-linejoin="round"/>
</svg>
