<svg width="72" height="72" viewBox="0 0 72 72" fill="none" xmlns="http://www.w3.org/2000/svg">
<rect width="72" height="72" rx="36" fill="white"/>
<path d="M30.9036 40.3364C24.8817 40.3364 20 43.9423 20 48.3904H41.8073C41.8073 43.9423 36.9255 40.3364 30.9036 40.3364Z" fill="#0EDDC9" fill-opacity="0.5"/>
<path d="M30.9041 36.1079C34.9187 36.1079 38.1732 32.502 38.1732 28.054C38.1732 23.6059 34.9187 20 30.9041 20C26.8895 20 23.635 23.6059 23.635 28.054C23.635 32.502 26.8895 36.1079 30.9041 36.1079Z" fill="#0EDDC9" fill-opacity="0.5"/>
<path d="M51.001 39.1919H35.0167C34.465 39.1919 34.0177 39.6698 34.0177 40.2592V50.9328C34.0177 51.5222 34.465 52.0001 35.0167 52.0001H51.001C51.5527 52.0001 52 51.5222 52 50.9328V40.2592C52 39.6698 51.5527 39.1919 51.001 39.1919Z" fill="#0EDDC9"/>
<path d="M39.6963 40.5399C39.6963 38.182 41.4215 36.2705 43.5497 36.2705C45.6778 36.2705 47.403 38.182 47.403 40.5399" stroke="#0EDDC9" stroke-width="1.16216" stroke-linecap="round" stroke-linejoin="round"/>
<g style="mix-blend-mode:color-burn">
<path d="M43.6609 48.854L43.6609 44.6595" stroke="white" stroke-width="1.16" stroke-linecap="round" stroke-linejoin="round"/>
</g>
<g style="mix-blend-mode:color-burn">
<path d="M41.768 48.854L41.768 46.7568" stroke="white" stroke-width="1.16" stroke-linecap="round" stroke-linejoin="round"/>
</g>
<g style="mix-blend-mode:color-burn">
<path d="M45.5538 42.5623L45.5538 48.854" stroke="white" stroke-width="1.16" stroke-linecap="round" stroke-linejoin="round"/>
</g>
<path d="M47.2011 42.0212H45.0402C44.8715 42.0212 44.7347 42.1752 44.7347 42.3651C44.7347 42.555 44.8715 42.7089 45.0402 42.7089H46.4918L44.0904 46.2902L42.8117 44.8405C42.7499 44.771 42.6656 44.7296 42.5774 44.7351C42.4901 44.741 42.4093 44.7858 42.3554 44.8632L38.9941 49.6758C38.8898 49.8251 38.9127 50.0407 39.0455 50.1579C39.1015 50.2074 39.168 50.231 39.2341 50.231C39.3246 50.231 39.4142 50.1857 39.4745 50.0994L42.6231 45.5901L43.9074 47.0354C43.9699 47.1059 44.0567 47.1408 44.1451 47.1353C44.2335 47.1282 44.2848 47.0783 44.3379 46.9986L46.8355 43.2063V44.7571C46.8355 44.947 46.9723 45.101 47.1411 45.101C47.3098 45.101 47.4466 44.947 47.4466 44.7571V42.3221C47.4467 42.1322 47.3698 42.0212 47.2011 42.0212Z" fill="white"/>
</svg>
