<svg width="119" height="123" viewBox="0 0 119 123" fill="none" xmlns="http://www.w3.org/2000/svg">
<path fill-rule="evenodd" clip-rule="evenodd" d="M73.63 68.55C75.1551 66.4891 77.0141 64.6978 79.13 63.25C82.91 60.66 87.43 59.17 92.79 58.25C93.2037 58.1771 93.6295 58.2715 93.9736 58.5125C94.3178 58.7535 94.5521 59.1213 94.625 59.535C94.6979 59.9487 94.6035 60.3745 94.3625 60.7186C94.1216 61.0628 93.7537 61.2971 93.34 61.37C88.34 62.24 84.27 63.58 80.91 65.88C78.0378 67.8884 75.7055 70.5744 74.12 73.7C86.99 74.99 94.6 73.7 100.12 69.7C105.64 65.7 109.3 58.81 114.12 48.89L109.71 49.11C99.96 49.56 89.29 50.06 82.61 55.92C80.7707 57.5594 79.0961 59.3747 77.61 61.34C76.158 63.2583 74.8223 65.2619 73.61 67.34V68.55H73.63ZM70.91 6.00001C76.0738 6.00001 81.026 8.05131 84.6774 11.7026C88.3287 15.354 90.38 20.3062 90.38 25.47C90.38 30.6338 88.3287 35.586 84.6774 39.2374C81.026 42.8887 76.0738 44.94 70.91 44.94C45.3 44.93 45.3 6.00001 70.91 6.00001ZM62.44 23.2L63.87 20H69.29C69.214 19.7557 69.0918 19.5283 68.93 19.33C68.7522 19.1044 68.5395 18.9086 68.3 18.75C68.038 18.5844 67.7556 18.4533 67.46 18.36C67.1368 18.2572 66.7992 18.2065 66.46 18.21H62.46L63.89 14.97H79.39L77.96 18.21H74.19C74.3442 18.3239 74.485 18.4547 74.61 18.6C74.7517 18.7214 74.8822 18.8553 75 19C75.09 19.1583 75.1701 19.3219 75.24 19.49C75.3021 19.6305 75.3458 19.7783 75.37 19.93H79.43L77.99 23.16H75C74.7637 23.7362 74.4249 24.2647 74 24.72C73.5672 25.2235 73.0695 25.6674 72.52 26.04C71.9463 26.4416 71.3291 26.7771 70.68 27.04C70.0373 27.2991 69.3658 27.4804 68.68 27.58L76.85 36H70.41L63.15 28V25H66.36C66.6695 24.9997 66.9768 24.9491 67.27 24.85C67.5673 24.7521 67.8499 24.6141 68.11 24.44C68.3594 24.2789 68.5821 24.0799 68.77 23.85C68.9433 23.6436 69.0757 23.406 69.16 23.15L62.44 23.2ZM2.83 76.94H18.58C19.3306 76.94 20.0504 77.2382 20.5811 77.7689C21.1118 78.2996 21.41 79.0194 21.41 79.77V112.21C21.3995 112.954 21.0967 113.663 20.5671 114.185C20.0375 114.707 19.3237 115 18.58 115H2.83C2.08632 115 1.37249 114.707 0.842898 114.185C0.313305 113.663 0.0105114 112.954 0 112.21L0 79.77C0 79.0194 0.29816 78.2996 0.828888 77.7689C1.35962 77.2382 2.07944 76.94 2.83 76.94V76.94ZM25.72 111.83V80H40C46.07 81.09 52.14 84.38 58.21 88.2H69.37C74.37 88.51 77.04 93.61 72.15 96.96C68.25 99.82 63.1 99.66 57.83 99.18C54.19 99.01 54.03 103.89 57.83 103.91C59.14 104.01 60.58 103.7 61.83 103.7C68.41 103.7 73.83 102.44 77.15 97.24L78.82 93.35L95.36 85.14C103.64 82.42 109.52 91.08 103.43 97.14C91.8939 105.562 79.5539 112.824 66.59 118.82C57.46 124.38 48.33 124.19 39.2 118.82L25.72 111.82V111.83ZM71 8.27126e-06C77.5315 -0.00525321 83.8152 2.49985 88.5516 6.99726C93.288 11.4947 96.1148 17.6404 96.4475 24.1634C96.7801 30.6864 94.5931 37.0877 90.3388 42.0436C86.0844 46.9995 80.0881 50.1308 73.59 50.79V61.5C74.1 60.77 74.59 60.08 75.12 59.41C76.725 57.2825 78.5335 55.3165 80.52 53.54C88.02 46.95 99.29 46.42 109.58 45.94C111.95 45.83 114.27 45.72 116.58 45.53C116.862 45.5116 117.143 45.5631 117.4 45.68C117.776 45.8633 118.065 46.1884 118.202 46.584C118.338 46.9796 118.313 47.4133 118.13 47.79C112.48 59.47 108.48 67.47 101.93 72.24C95.68 76.78 87.38 78.24 73.56 76.81V80.47C78.7053 80.9929 83.7647 82.1587 88.62 83.94L79.18 88.62H77.56C77.0486 87.8042 76.4067 87.0779 75.66 86.47C74.0416 85.1649 72.0712 84.3712 70 84.19C69.8035 84.1801 69.6065 84.1801 69.41 84.19H59.41C58.05 83.35 56.69 82.53 55.32 81.76C59.4798 80.797 63.7306 80.2807 68 80.22V72.46C64.0883 72.8792 60.1331 72.5982 56.32 71.63C54.0152 70.985 51.8683 69.8715 50.0135 68.359C48.1586 66.8466 46.6357 64.9678 45.54 62.84L45.48 62.75L41 53.54C40.888 53.3118 40.8225 53.0636 40.8072 52.8099C40.7919 52.5562 40.8271 52.3019 40.9109 52.0619C40.9946 51.8219 41.1251 51.6009 41.2949 51.4118C41.4647 51.2226 41.6704 51.0691 41.9 50.96C42.1945 50.8143 42.5221 50.7488 42.85 50.77L57.78 51.69H58.02H58.07C60.85 52.04 63.9 52.42 66.67 54.85L68 56.18V50.74C61.5574 49.9698 55.6519 46.769 51.4899 41.7912C47.3279 36.8135 45.2235 30.4345 45.6064 23.9573C45.9894 17.4801 48.8309 11.3936 53.5504 6.94095C58.27 2.48832 64.5115 0.00562482 71 8.27126e-06V8.27126e-06ZM87 9.55001C83.3192 5.86915 78.476 3.57843 73.2955 3.06817C68.1151 2.55791 62.918 3.85968 58.5898 6.75166C54.2616 9.64365 51.07 13.9469 49.5589 18.9283C48.0478 23.9096 48.3106 29.2608 50.3026 34.07C52.2947 38.8793 55.8926 42.8491 60.4834 45.303C65.0742 47.7568 70.3739 48.543 75.4794 47.5275C80.5848 46.512 85.1803 43.7577 88.4826 39.7338C91.785 35.7099 93.59 30.6655 93.59 25.46C93.5933 22.5048 93.0128 19.578 91.8819 16.8477C90.751 14.1174 89.092 11.6374 87 9.55001V9.55001ZM68 68.55V68.25C67.5374 67.6825 66.999 67.1811 66.4 66.76C64.9238 65.8294 63.2795 65.1975 61.56 64.9C61.3565 64.8567 61.1634 64.7737 60.992 64.6557C60.8205 64.5378 60.6739 64.3873 60.5606 64.2127C60.4474 64.0381 60.3696 63.8429 60.3317 63.6383C60.2938 63.4336 60.2967 63.2236 60.34 63.02C60.3833 62.8165 60.4663 62.6234 60.5843 62.452C60.7022 62.2805 60.8528 62.1339 61.0273 62.0206C61.2019 61.9074 61.3971 61.8296 61.6017 61.7917C61.8064 61.7539 62.0165 61.7567 62.22 61.8C64.2697 62.1845 66.2298 62.9476 68 64.05V63.65C67.93 63.44 67.85 63.24 67.77 63.03C66.9819 61.0288 65.7391 59.2383 64.14 57.8C62.25 56.14 59.83 55.8 57.61 55.56H57.56L45.94 54.84L48.94 61.05C49.8025 62.7142 50.9975 64.1835 52.451 65.367C53.9045 66.5504 55.5856 67.4228 57.39 67.93C60.856 68.7787 64.4455 69.0022 67.99 68.59L68 68.55Z" fill="#6507EA"/>
<path fill-rule="evenodd" clip-rule="evenodd" d="M73.8263 68.55C75.3514 66.4891 77.2104 64.6978 79.3263 63.25C83.1063 60.66 87.6263 59.17 92.9863 58.25C93.4 58.1771 93.8258 58.2715 94.1699 58.5125C94.514 58.7535 94.7483 59.1213 94.8213 59.535C94.8942 59.9487 94.7998 60.3745 94.5588 60.7186C94.3178 61.0628 93.95 61.2971 93.5363 61.37C88.5363 62.24 84.4663 63.58 81.1063 65.88C78.2341 67.8884 75.9018 70.5744 74.3163 73.7C87.1863 74.99 94.7963 73.7 100.316 69.7C105.836 65.7 109.496 58.81 114.316 48.89L109.906 49.11C100.156 49.56 89.4863 50.06 82.8063 55.92C80.967 57.5594 79.2924 59.3747 77.8063 61.34C76.3543 63.2583 75.0186 65.2619 73.8063 67.34V68.55H73.8263ZM71.1063 6.00001C76.27 6.00001 81.2223 8.05131 84.8736 11.7026C88.525 15.354 90.5763 20.3062 90.5763 25.47C90.5763 30.6338 88.525 35.586 84.8736 39.2374C81.2223 42.8887 76.27 44.94 71.1063 44.94C45.4963 44.93 45.4963 6.00001 71.1063 6.00001ZM62.6363 23.2L64.0663 20H69.4863C69.4102 19.7557 69.288 19.5283 69.1263 19.33C68.9485 19.1044 68.7358 18.9086 68.4963 18.75C68.2342 18.5844 67.9519 18.4533 67.6563 18.36C67.333 18.2572 66.9955 18.2065 66.6563 18.21H62.6563L64.0863 14.97H79.5863L78.1563 18.21H74.3863C74.5404 18.3239 74.6813 18.4547 74.8063 18.6C74.948 18.7214 75.0785 18.8553 75.1963 19C75.2862 19.1583 75.3664 19.3219 75.4363 19.49C75.4984 19.6305 75.5421 19.7783 75.5663 19.93H79.6263L78.1863 23.16H75.1963C74.96 23.7362 74.6212 24.2647 74.1963 24.72C73.7635 25.2235 73.2658 25.6674 72.7163 26.04C72.1426 26.4416 71.5253 26.7771 70.8763 27.04C70.2335 27.2991 69.5621 27.4804 68.8763 27.58L77.0463 36H70.6063L63.3463 28V25H66.5563C66.8657 24.9997 67.1731 24.9491 67.4663 24.85C67.7636 24.7521 68.0462 24.6141 68.3063 24.44C68.5557 24.2789 68.7783 24.0799 68.9663 23.85C69.1396 23.6436 69.272 23.406 69.3563 23.15L62.6363 23.2ZM71.1963 8.27126e-06C77.7278 -0.00525321 84.0115 2.49985 88.7479 6.99726C93.4843 11.4947 96.3111 17.6404 96.6437 24.1634C96.9764 30.6864 94.7894 37.0877 90.535 42.0436C86.2807 46.9995 80.2844 50.1308 73.7863 50.79V61.5C74.2963 60.77 74.7863 60.08 75.3163 59.41C76.9212 57.2825 78.7298 55.3165 80.7163 53.54C88.2163 46.95 99.4863 46.42 109.776 45.94C112.146 45.83 114.466 45.72 116.776 45.53C117.058 45.5116 117.34 45.5631 117.596 45.68C117.973 45.8633 118.261 46.1884 118.398 46.584C118.535 46.9796 118.509 47.4133 118.326 47.79C112.676 59.47 108.676 67.47 102.126 72.24C95.8763 76.78 87.5763 78.24 73.7563 76.81V80.47C78.9015 80.9929 83.961 82.1587 88.8163 83.94L79.3763 88.62H77.7563C77.2448 87.8042 76.603 87.0779 75.8563 86.47C74.2378 85.1649 72.2675 84.3712 70.1963 84.19C69.9997 84.1801 69.8028 84.1801 69.6063 84.19H59.6063C58.2463 83.35 56.8863 82.53 55.5163 81.76C59.6761 80.797 63.9268 80.2807 68.1963 80.22V72.46C64.2845 72.8792 60.3294 72.5982 56.5163 71.63C54.2115 70.985 52.0646 69.8715 50.2097 68.359C48.3549 66.8466 46.832 64.9678 45.7363 62.84L45.6763 62.75L41.1963 53.54C41.0843 53.3118 41.0188 53.0636 41.0035 52.8099C40.9882 52.5562 41.0234 52.3019 41.1071 52.0619C41.1909 51.8219 41.3214 51.6009 41.4912 51.4118C41.661 51.2226 41.8667 51.0691 42.0963 50.96C42.3908 50.8143 42.7184 50.7488 43.0463 50.77L57.9763 51.69H58.2163H58.2663C61.0463 52.04 64.0963 52.42 66.8663 54.85L68.1963 56.18V50.74C61.7537 49.9698 55.8482 46.769 51.6862 41.7912C47.5242 36.8135 45.4197 30.4345 45.8027 23.9573C46.1857 17.4801 49.0271 11.3936 53.7467 6.94095C58.4663 2.48832 64.7078 0.00562482 71.1963 8.27126e-06ZM87.1963 9.55001C83.5155 5.86915 78.6722 3.57843 73.4918 3.06817C68.3114 2.55791 63.1143 3.85968 58.7861 6.75166C54.4578 9.64365 51.2663 13.9469 49.7552 18.9283C48.2441 23.9096 48.5069 29.2608 50.4989 34.07C52.4909 38.8793 56.0889 42.8491 60.6797 45.303C65.2705 47.7568 70.5701 48.543 75.6756 47.5275C80.7811 46.512 85.3765 43.7577 88.6789 39.7338C91.9812 35.7099 93.7862 30.6655 93.7863 25.46C93.7896 22.5048 93.2091 19.578 92.0782 16.8477C90.9473 14.1174 89.2882 11.6374 87.1963 9.55001ZM68.1963 68.55V68.25C67.7336 67.6825 67.1953 67.1811 66.5963 66.76C65.1201 65.8294 63.4757 65.1975 61.7563 64.9C61.5527 64.8567 61.3597 64.7737 61.1882 64.6557C61.0168 64.5378 60.8702 64.3873 60.7569 64.2127C60.6436 64.0381 60.5658 63.8429 60.528 63.6383C60.4901 63.4336 60.4929 63.2236 60.5363 63.02C60.5796 62.8165 60.6626 62.6234 60.7805 62.452C60.8985 62.2805 61.049 62.1339 61.2236 62.0206C61.3982 61.9074 61.5934 61.8296 61.798 61.7917C62.0026 61.7539 62.2127 61.7567 62.4163 61.8C64.466 62.1845 66.4261 62.9476 68.1963 64.05V63.65C68.1263 63.44 68.0463 63.24 67.9663 63.03C67.1781 61.0288 65.9354 59.2383 64.3363 57.8C62.4463 56.14 60.0263 55.8 57.8063 55.56H57.7563L46.1363 54.84L49.1363 61.05C49.9987 62.7142 51.1937 64.1835 52.6473 65.367C54.1008 66.5504 55.7818 67.4228 57.5863 67.93C61.0522 68.7787 64.6418 69.0022 68.1863 68.59L68.1963 68.55Z" fill="#B482FA"/>
</svg>
