<svg width="73" height="72" viewBox="0 0 73 72" fill="none" xmlns="http://www.w3.org/2000/svg">
<rect width="72" height="72" rx="36" fill="#FF9408"/>
<rect opacity="0.3" x="2" y="16" width="32" height="22" rx="4" fill="white" fill-opacity="0.5"/>
<rect opacity="0.3" x="16" y="46" width="40" height="14" rx="4" fill="white" fill-opacity="0.5"/>
<rect opacity="0.3" x="42" y="2" width="16" height="30" rx="4" fill="white" fill-opacity="0.5"/>
<path d="M36 52C44.8366 52 52 44.8366 52 36C52 27.1634 44.8366 20 36 20C27.1634 20 20 27.1634 20 36C20 44.8366 27.1634 52 36 52Z" fill="white"/>
<path d="M40.3574 36.8474C40.984 36.4558 40.984 35.5431 40.3573 35.1514L34.1013 31.2414C33.4352 30.8251 32.5713 31.304 32.5713 32.0894V39.9095C32.5713 40.6949 33.4352 41.1738 34.1013 40.7575L40.3574 36.8474Z" fill="#FF9408"/>
<g clip-path="url(#clip0_548_1872)">
<path d="M36.2747 72C56.1569 72 72.2747 55.8823 72.2747 36C72.2747 16.1178 56.1569 0 36.2747 0C16.3924 0 0.274658 16.1178 0.274658 36C0.274658 55.8823 16.3924 72 36.2747 72Z" fill="#FF9408"/>
<path d="M28.132 28.9258C27.8731 28.9258 27.6631 29.1356 27.6631 29.3946C27.6631 29.6535 27.8731 29.8634 28.132 29.8634H31.9956C32.0783 29.5241 32.2194 29.2076 32.4086 28.9258H28.132Z" fill="white"/>
<path d="M45.693 25.6536H25.5883C25.2324 25.6536 24.9437 25.9421 24.9437 26.2982V39.7701C24.9437 40.1261 25.2323 40.4147 25.5883 40.4147H28.942L28.9485 39.1255H26.2331V26.9428H45.0484V39.1255H38.3748V40.4147H45.6929C46.0489 40.4147 46.3376 40.1261 46.3376 39.7701V26.2982C46.3376 25.9421 46.0489 25.6536 45.693 25.6536Z" fill="white"/>
<path d="M34.8458 28.5024C33.711 28.5024 32.7911 29.4222 32.7911 30.5571C32.7911 31.1088 33.0125 31.6466 33.4274 32.0427C33.783 32.0427 35.9158 32.0427 36.2643 32.0427C36.656 31.6685 36.9004 31.1416 36.9004 30.5571C36.9005 29.4222 35.9805 28.5024 34.8458 28.5024Z" fill="white"/>
<path d="M43.9364 30.1977C43.8189 30.0871 43.6816 30.0115 43.5367 29.9689L43.3169 28.9224C43.2504 28.6058 42.9398 28.403 42.623 28.4695C42.3873 28.5189 42.2148 28.7039 42.1694 28.9258H37.2829C37.4723 29.2077 37.6135 29.5242 37.6959 29.8634H42.317L42.4212 30.3595L40.405 32.4974C39.9879 32.5461 37.1728 32.8752 36.7751 32.9218C36.7751 32.9218 33.1686 32.9218 32.193 32.9218C30.9114 32.9218 29.8535 33.9644 29.8471 35.256L29.8108 42.4669C29.8073 43.1637 30.3045 43.5333 30.7968 43.5357C30.7985 43.5357 30.8002 43.5357 30.8019 43.5357C31.3469 43.5356 31.7902 43.0951 31.7929 42.5493L31.8036 40.4327L31.8295 35.266C31.8326 35.1524 31.9263 35.0624 32.0398 35.064C32.1534 35.0657 32.2445 35.1581 32.2445 35.2716C32.2439 44.5279 32.223 37.4734 32.223 50.2768C32.5878 50.1167 32.9865 50.0204 33.4049 50.0024V49.7676C33.2054 49.3636 33.093 48.9097 33.093 48.4296C33.093 47.3123 33.7007 46.335 34.6024 45.8087V42.4224H35.116V45.57C35.4322 45.4579 35.7722 45.3963 36.1264 45.3963C36.6188 45.3963 37.0837 45.515 37.4954 45.7241L37.4916 34.8342C38.1099 34.7618 40.5873 34.4723 40.9938 34.4248C41.2254 34.3977 41.4399 34.2898 41.5998 34.1202L43.9774 31.5992C44.3531 31.2008 44.3347 30.5733 43.9364 30.1977Z" fill="white"/>
<path d="M40.9554 53.3023C40.9493 52.0553 39.9278 51.0473 38.6891 51.0473C38.0493 51.0473 34.1874 51.0473 33.5474 51.0473C32.3039 51.0473 31.2872 52.059 31.281 53.3024L31.2697 55.545H32.1154C32.1154 54.2438 33.1789 53.2026 34.4579 53.2026H37.8618C39.15 53.2026 40.2042 54.2519 40.2042 55.545H40.9667L40.9554 53.3023Z" fill="white"/>
<path d="M36.1262 46.4447C35.0301 46.4447 34.1414 47.3334 34.1414 48.4297C34.1414 49.527 35.0331 50.4145 36.1262 50.4145C37.2157 50.4145 38.1111 49.5319 38.1111 48.4297C38.1112 47.3334 37.2225 46.4447 36.1262 46.4447Z" fill="white"/>
<path d="M22.8316 46.4447C21.7379 46.4447 20.8468 47.3307 20.8468 48.4297C20.8468 49.5323 21.7428 50.4145 22.8316 50.4145C23.9252 50.4145 24.8166 49.5267 24.8166 48.4297C24.8166 47.3334 23.9279 46.4447 22.8316 46.4447Z" fill="white"/>
<path d="M37.8619 53.8713H34.4581C33.5337 53.8713 32.7844 54.6207 32.7844 55.5451H39.5356C39.5356 54.6207 38.7863 53.8713 37.8619 53.8713Z" fill="white"/>
<path d="M24.4131 53.8713H21.0094C20.0848 53.8713 19.3355 54.6207 19.3355 55.5451C20.0337 55.5451 25.3947 55.5451 26.0869 55.5451C26.0869 54.6207 25.3374 53.8713 24.4131 53.8713Z" fill="white"/>
<path d="M29.5417 44.2502C29.0854 44.1466 28.6318 44.4326 28.5284 44.8887L27.5247 49.3139C27.2964 49.481 25.4123 50.8592 25.1552 51.0473C24.6342 51.0473 20.5685 51.0473 20.269 51.0473C19.0318 51.0473 18.0088 52.0537 18.0024 53.3022L17.9912 55.5451H18.6668C18.6668 54.2518 19.7208 53.2026 21.0094 53.2026H24.4131C24.8489 53.2026 25.257 53.3225 25.6068 53.5307L25.6201 52.8059L28.7807 50.4939C28.9457 50.3733 29.0614 50.197 29.1066 49.9977L30.1803 45.2635C30.2838 44.8074 29.9979 44.3537 29.5417 44.2502Z" fill="white"/>
<path d="M36.3525 19.855C36.0935 19.855 35.8836 20.0647 35.8836 20.3237C35.8836 20.5826 36.0935 20.7925 36.3525 20.7925H40.2161C40.2987 20.4532 40.4399 20.1367 40.6291 19.855H36.3525Z" fill="white" fill-opacity="0.3"/>
<path d="M53.9135 16.5827H33.8088C33.4529 16.5827 33.1642 16.8713 33.1642 17.2273V30.6992C33.1642 31.0553 33.4528 31.3438 33.8088 31.3438H37.1625L37.169 30.0546H34.4535V17.8719H53.2689V30.0546H46.5953V31.3438H53.9134C54.2694 31.3438 54.5581 31.0553 54.5581 30.6992V17.2273C54.5581 16.8713 54.2694 16.5827 53.9135 16.5827Z" fill="white" fill-opacity="0.3"/>
<path d="M43.0664 19.4315C41.9315 19.4315 41.0117 20.3514 41.0117 21.4862C41.0117 22.038 41.233 22.5757 41.6479 22.9718C42.0035 22.9718 44.1363 22.9718 44.4848 22.9718C44.8766 22.5977 45.1209 22.0707 45.1209 21.4862C45.121 20.3514 44.2011 19.4315 43.0664 19.4315Z" fill="white" fill-opacity="0.3"/>
<path d="M52.1569 21.1269C52.0394 21.0162 51.902 20.9407 51.7572 20.898L51.5374 19.8516C51.4709 19.5349 51.1602 19.3321 50.8434 19.3986C50.6077 19.4481 50.4353 19.633 50.3899 19.855H45.5034C45.6927 20.1369 45.8339 20.4534 45.9164 20.7925H50.5374L50.6416 21.2886L48.6255 23.4265C48.2084 23.4752 45.3933 23.8043 44.9956 23.851C44.9956 23.851 41.389 23.851 40.4135 23.851C39.1318 23.851 38.0739 24.8936 38.0675 26.1852L38.0313 33.3961C38.0277 34.0928 38.5249 34.4625 39.0173 34.4649C39.019 34.4649 39.0207 34.4649 39.0224 34.4649C39.5674 34.4647 40.0107 34.0242 40.0134 33.4784L40.024 31.3618L40.05 26.1951C40.0531 26.0816 40.1468 25.9916 40.2603 25.9931C40.3738 25.9948 40.465 26.0872 40.465 26.2008C40.4644 35.457 40.4434 28.4026 40.4434 41.206C40.8082 41.0458 41.2069 40.9496 41.6253 40.9316V40.6967C41.4259 40.2928 41.3135 39.8388 41.3135 39.3588C41.3135 38.2415 41.9211 37.2641 42.8228 36.7378V33.3516H43.3364V36.4992C43.6527 36.3871 43.9927 36.3254 44.3469 36.3254C44.8392 36.3254 45.3041 36.4442 45.7159 36.6532L45.712 25.7634C46.3304 25.6909 48.8077 25.4014 49.2142 25.3539C49.4458 25.3268 49.6604 25.219 49.8203 25.0493L52.1978 22.5283C52.5736 22.1299 52.5551 21.5025 52.1569 21.1269Z" fill="white" fill-opacity="0.3"/>
<path d="M49.1758 44.2314C49.1697 42.9844 48.1483 41.9764 46.9095 41.9764C46.2697 41.9764 42.4078 41.9764 41.7679 41.9764C40.5243 41.9764 39.5077 42.9881 39.5014 44.2315L39.4901 46.4742H40.3358C40.3358 45.1729 41.3994 44.1318 42.6784 44.1318H46.0822C47.3704 44.1318 48.4246 45.181 48.4246 46.4742H49.1872L49.1758 44.2314Z" fill="white" fill-opacity="0.3"/>
<path d="M44.3468 37.3738C43.2506 37.3738 42.3619 38.2624 42.3619 39.3587C42.3619 40.456 43.2536 41.3436 44.3468 41.3436C45.4363 41.3436 46.3316 40.461 46.3316 39.3587C46.3317 38.2624 45.4431 37.3738 44.3468 37.3738Z" fill="white" fill-opacity="0.3"/>
<path d="M31.0521 37.3738C29.9583 37.3738 29.0673 38.2597 29.0673 39.3587C29.0673 40.4614 29.9633 41.3436 31.0521 41.3436C32.1457 41.3436 33.037 40.4557 33.037 39.3587C33.037 38.2624 32.1484 37.3738 31.0521 37.3738Z" fill="white" fill-opacity="0.3"/>
<path d="M46.0824 44.8004H42.6785C41.7542 44.8004 41.0048 45.5498 41.0048 46.4741H47.7561C47.7561 45.5498 47.0068 44.8004 46.0824 44.8004Z" fill="white" fill-opacity="0.3"/>
<path d="M32.6335 44.8004H29.2298C28.3053 44.8004 27.556 45.5498 27.556 46.4741C28.2541 46.4741 33.6152 46.4741 34.3074 46.4741C34.3074 45.5498 33.5579 44.8004 32.6335 44.8004Z" fill="white" fill-opacity="0.3"/>
<path d="M37.7621 35.1794C37.3059 35.0757 36.8522 35.3618 36.7489 35.8179L35.7452 40.243C35.5168 40.4101 33.6328 41.7883 33.3757 41.9764C32.8547 41.9764 28.7889 41.9764 28.4894 41.9764C27.2523 41.9764 26.2292 42.9828 26.2229 44.2314L26.2117 46.4743H26.8873C26.8873 45.181 27.9412 44.1317 29.2299 44.1317H32.6336C33.0694 44.1317 33.4774 44.2516 33.8272 44.4598L33.8406 43.735L37.0012 41.4231C37.1662 41.3025 37.2818 41.1262 37.327 40.9269L38.4008 36.1926C38.5043 35.7365 38.2184 35.2828 37.7621 35.1794Z" fill="white" fill-opacity="0.3"/>
</g>
<defs>
<clipPath id="clip0_548_1872">
<rect width="72" height="72" fill="white" transform="translate(0.274658)"/>
</clipPath>
</defs>
</svg>
