<svg width="47" height="47" viewBox="0 0 47 47" fill="none" xmlns="http://www.w3.org/2000/svg">
<path d="M11.752 23H12.2519H12.2534H12.2537V23.5C12.2596 23.5 12.2655 23.5 12.2713 23.5L11.752 23ZM11.752 23L11.7519 23.4999L11.75 32.9143L11.7499 33.1677L11.9543 33.3176L12.0387 33.3795L12.0386 33.3795L12.0471 33.3855C15.5132 35.8186 20.0029 37.125 25.375 37.125C31.1362 37.125 36.502 34.9078 40.4137 31.1152L40.4137 31.1153L40.4192 31.1098L40.6686 30.8604L41.0557 30.4733L40.6351 30.1228L40.4101 29.9353L40.4043 29.9304L40.3983 29.9257C39.4341 29.1706 38.2652 28.7224 37.0433 28.6393L37.0349 28.6387L37.0264 28.6384L36.6421 28.6253L36.6337 28.625L36.6252 28.625L32.6652 28.6231L32.0389 28.6228L32.1774 29.2337C32.3062 29.8019 32.375 30.3929 32.375 31V32.375M11.752 23L32.375 32.375M32.375 32.375H16.5V29.6249L28.7313 29.6231L29.4946 29.623L29.1896 28.9233L29.1258 28.7771L29.1223 28.769L29.1185 28.761C28.7209 27.9301 28.1092 27.22 27.3464 26.7037C26.5835 26.1873 25.697 25.8834 24.7778 25.823L24.769 25.8224L24.7602 25.8221L24.4527 25.8127L24.4451 25.8125H24.4375H19.1509L32.375 32.375ZM11.75 19.75V20.2507L12.2507 20.25C15.0839 20.2458 17.8354 21.199 20.0589 22.9549L20.1951 23.0625H20.3687H24.4375C26.7871 23.0625 28.8996 24.0832 30.3517 25.7065L30.5007 25.8731L30.7242 25.8731L36.6248 25.875H36.6251C38.303 25.8745 39.9466 26.3497 41.3653 27.2454C42.6984 28.087 43.7816 29.2674 44.5058 30.6636C40.1513 36.2534 33.2064 39.875 25.375 39.875C20.2164 39.875 15.8767 38.7604 12.3793 36.8286L11.8668 36.5456L11.6674 37.0959C11.5713 37.3612 11.3957 37.5903 11.1645 37.7521C10.9334 37.9139 10.658 38.0005 10.3759 38H10.375H4.75C4.38533 38 4.03559 37.8551 3.77773 37.5973C3.51987 37.3394 3.375 36.9897 3.375 36.625V19.75C3.375 19.3853 3.51987 19.0356 3.77773 18.7777C4.03559 18.5199 4.38533 18.375 4.75 18.375H10.375C10.7397 18.375 11.0894 18.5199 11.3473 18.7777C11.6051 19.0356 11.75 19.3853 11.75 19.75ZM9 21.625V21.125H8.5H6.625H6.125V21.625V34.75V35.25H6.625H8.5H9V34.75V21.625ZM26.2311 8.05509L26.2322 8.05619L26.8959 8.72181L27.2495 9.07636L27.6036 8.72231L28.2673 8.05856L28.2688 8.05706C28.6571 7.66548 29.1189 7.35444 29.6277 7.14181C30.1365 6.92918 30.6823 6.81914 31.2338 6.81801C31.7852 6.81688 32.3314 6.92469 32.8411 7.13523C33.3508 7.34578 33.8139 7.65492 34.2038 8.04491C34.5936 8.4349 34.9026 8.89806 35.113 9.4078C35.3234 9.91753 35.4311 10.4638 35.4298 11.0153C35.4285 11.5667 35.3183 12.1125 35.1056 12.6212C34.8928 13.13 34.5816 13.5917 34.1899 13.9799L34.1884 13.9814L27.25 20.9179L20.3098 13.9777L20.3083 13.9762C19.9167 13.5879 19.6057 13.1261 19.3931 12.6173C19.1804 12.1085 19.0704 11.5627 19.0693 11.0113C19.0681 10.4598 19.1759 9.91356 19.3865 9.40389C19.597 8.89421 19.9062 8.43114 20.2962 8.04126C20.6861 7.65138 21.1493 7.34236 21.659 7.13196C22.1688 6.92156 22.715 6.81391 23.2665 6.8152C23.818 6.81648 24.3637 6.92667 24.8725 7.13945C25.3812 7.35223 25.8429 7.66339 26.2311 8.05509ZM27.2485 12.9621L24.2889 9.99738L24.2716 9.98015L24.2529 9.96466L24.1253 9.85966L24.1091 9.84627L24.0917 9.83429C23.8148 9.64295 23.4796 9.55484 23.1444 9.58531C22.8092 9.61579 22.4953 9.7629 22.2575 10.001L22.1112 10.1474V10.1735C21.9595 10.3813 21.8655 10.6273 21.8412 10.8862C21.8096 11.2208 21.8963 11.5558 22.0862 11.8331L22.1001 11.8535L22.116 11.8724L22.2248 12.0017L22.2387 12.0184L22.2541 12.0337L26.8966 16.6725L27.25 17.0256L27.6034 16.6725L32.2458 12.0338C32.2459 12.0337 32.2459 12.0337 32.2459 12.0337C32.484 11.7959 32.6311 11.482 32.6616 11.1469C32.692 10.8117 32.6039 10.4764 32.4126 10.1995L32.4002 10.1816L32.3863 10.1647L32.2775 10.0335L32.2624 10.0153L32.2457 9.99857C32.0075 9.76088 31.6934 9.61429 31.3582 9.58435C31.0231 9.5544 30.688 9.643 30.4114 9.83469L30.3938 9.84692L30.3772 9.86062L30.246 9.96937L30.228 9.98425L30.2115 10.0007L27.2485 12.9621Z" fill="#6606EF" stroke="white"/>
<rect x="1" y="1" width="45" height="45" stroke="white"/>
</svg>
