<svg width="45" height="45" viewBox="0 0 45 45" fill="none" xmlns="http://www.w3.org/2000/svg">
<path d="M42.8306 43.7619L42.9659 44.0484H43.2827H44.5V44.5H0.5V44.0484H1.71871H2.03475L2.17035 43.7629L15.8251 15.0161H21.7742H22.2742V14.5161V0.5H22.7258V1.45161V1.95161H23.2258H38.0755L36.6339 5.55619L36.5418 5.78643L36.6694 5.99908L38.8665 9.66129H23.2258H22.7258V10.1613V14.5161V15.0161H23.2258H24.0859L25.5275 17.6588L25.6696 17.9194H25.9665H30.6272L33.9729 25.0042L34.2762 25.6465L34.7786 25.1442L37.0692 22.8536L37.4228 22.5L37.0692 22.1464L35.0195 20.0968H43.0484V28.1256L40.9987 26.076L40.6452 25.7224L40.2916 26.076L36.5922 29.7754L36.3433 30.0242L36.4936 30.3425L42.8306 43.7619ZM23.2258 2.40323H22.7258V2.90323V8.70968V9.20968H23.2258H37.186H38.0691L37.6147 8.4524L36.0389 5.82647L37.1341 3.08896L37.4085 2.40323H36.6699H23.2258ZM14.1439 41.424L23.9516 31.6163L28.6787 36.3434L29.0323 36.6969L29.3858 36.3434L40.6452 25.084L41.7432 26.1821L42.5968 27.0357V25.8285V21.0484V20.5484H42.0968H37.3166H36.1095L36.9631 21.4019L38.0611 22.5L29.3952 31.166L24.6681 26.4389L24.3145 26.0853L23.961 26.4389L11.5598 38.84L11.2063 39.1936L11.5598 39.5471L13.4368 41.424L13.7903 41.7776L14.1439 41.424ZM2.87401 43.3339L2.53461 44.0484H3.32565H41.6773H42.4663L42.1294 43.3349L36.3077 31.0056L36.0044 30.3632L35.502 30.8656L29.0323 37.3353L24.3052 32.6082L23.9516 32.2547L23.5981 32.6082L13.7903 42.416L10.5679 39.1936L24.3145 25.4469L29.0416 30.174L29.3952 30.5276L29.7487 30.174L33.6877 26.2351L33.9365 25.9862L33.7862 25.668L30.4758 18.6575L30.3406 18.371H30.0237H26.7576H25.9152L26.3187 19.1104L28.2653 22.6787L27.8687 22.8951L23.9594 15.7283L23.8173 15.4677H23.5205H16.4265H16.1104L15.9748 15.7532L2.87401 43.3339Z" fill="#0EDDC9" stroke="#6606EF"/>
<path d="M25.1777 6.75825V6.30664H25.6293V6.75825H25.1777Z" fill="#6606EF" stroke="#6606EF"/>
<path d="M28.0811 6.75825V6.30664H28.5327V6.75825H28.0811Z" fill="#6606EF" stroke="#6606EF"/>
<path d="M30.9834 6.75825V6.30664H31.435V6.75825H30.9834Z" fill="#6606EF" stroke="#6606EF"/>
</svg>
