<svg width="60" height="60" viewBox="0 0 60 60" fill="none" xmlns="http://www.w3.org/2000/svg">
<rect x="1" y="1" width="58" height="58" rx="29" fill="#89AA5A"/>
<path d="M38.1931 10H20.8067C19.2592 10 18 11.2051 18 12.6862V46.9002C18 48.3813 19.2592 49.587 20.8068 49.587H38.1931C39.7408 49.587 41 48.3812 41 46.9002V12.6862C40.9998 11.2051 39.7406 10 38.1931 10ZM39.9024 46.9001C39.9024 47.8027 39.1356 48.5366 38.1931 48.5366H20.8067C19.8643 48.5366 19.0975 47.8027 19.0975 46.9001V12.6862C19.0975 11.785 19.8642 11.0504 20.8067 11.0504H38.1931C39.1355 11.0504 39.9024 11.785 39.9024 12.6862V46.9001Z" fill="white" stroke="white"/>
<path d="M38.5416 14.3682H20.458C20.3066 14.3682 20.1836 14.4858 20.1836 14.6308V44.6676C20.1836 44.8126 20.3065 44.9303 20.458 44.9303H38.5416C38.6931 44.9303 38.816 44.8126 38.816 44.6676V14.6308C38.816 14.4858 38.6932 14.3682 38.5416 14.3682ZM37.5356 44.405H21.4641C21.0602 44.405 20.7324 44.0913 20.7324 43.7048V15.5936C20.7324 15.2071 21.0602 14.8934 21.4641 14.8934H37.5356C37.9395 14.8934 38.2673 15.2071 38.2673 15.5936V43.7048C38.2673 44.0913 37.9395 44.405 37.5356 44.405Z" fill="white" stroke="white"/>
<path d="M27.956 12.7689H31.0431C31.1945 12.7689 31.3175 12.6512 31.3175 12.5063C31.3175 12.3613 31.1946 12.2437 31.0431 12.2437H27.956C27.8046 12.2437 27.6816 12.3613 27.6816 12.5063C27.6817 12.6512 27.8046 12.7689 27.956 12.7689Z" fill="white" stroke="white"/>
<path d="M31.0804 45.5303H27.9195C27.2705 45.5303 26.7422 46.0358 26.7422 46.6563V46.837C26.7422 47.4581 27.2712 47.9638 27.9195 47.9638H31.0804C31.7294 47.9638 32.2577 47.4575 32.2577 46.837V46.6563C32.2584 46.0359 31.7294 45.5303 31.0804 45.5303ZM31.7096 46.837C31.7096 47.1689 31.4272 47.4386 31.0811 47.4386H27.9202C27.5733 47.4386 27.2917 47.1683 27.2917 46.837V46.6563C27.2917 46.3251 27.5741 46.0555 27.9202 46.0555H31.0811C31.4279 46.0555 31.7096 46.3258 31.7096 46.6563V46.837Z" fill="white" stroke="white"/>
<path d="M24.9111 33.9651C24.7866 34.3207 24.5116 34.6134 24.4537 34.713C24.4156 34.7795 24.4106 34.8516 24.4252 34.9119C24.4383 34.9636 24.5013 35.1324 24.753 35.1324C25.0186 35.1324 26.449 34.8537 27.3066 34.1548C27.6139 33.9041 27.8781 33.6156 28.0039 33.603C28.1298 33.5897 28.4056 33.846 28.6954 34.1156C29.2902 34.6702 30.1455 35.0729 31.1356 35.2556C31.5322 35.3292 32.0282 35.6261 32.3458 35.8648C33.1133 36.4418 34.306 36.6729 34.5328 36.6729C34.7303 36.6729 34.8284 36.5594 34.854 36.453C34.8686 36.3942 34.8642 36.3234 34.8284 36.2584C34.7742 36.1603 34.5349 35.9083 34.4296 35.6113C34.325 35.3144 34.5788 34.9699 34.9381 34.7934C36.1344 34.2073 36.8712 33.2375 36.8712 32.1843C36.8712 30.4308 34.8372 29.0037 32.3369 29.0037C32.315 29.0037 32.2931 29.0043 32.2711 29.0051C32.2344 29.0065 32.1079 28.7467 31.9162 28.4631C31.8043 28.2971 31.6718 28.1375 31.5196 27.9848C30.5728 27.0339 28.9777 26.4653 27.2538 26.4653C24.4259 26.4653 22.124 28.0752 22.124 30.0541C22.124 31.2761 23.0057 32.3971 24.4266 33.0512C24.7933 33.2172 25.0362 33.6092 24.9111 33.9651ZM32.4313 29.7852C32.4189 29.6535 32.7269 29.5464 33.1272 29.6004C34.9374 29.8441 36.3035 30.9099 36.3035 32.1836C36.3035 33.2522 35.3406 34.2087 33.8479 34.6198C33.703 34.6605 33.616 34.8019 33.6504 34.942C33.6979 35.1408 33.7463 35.3228 33.7953 35.4867C33.8845 35.7857 33.6622 35.9404 33.2956 35.7794C32.8434 35.5805 32.446 35.3095 32.3092 34.9824C32.2683 34.8837 32.1702 34.8172 32.0597 34.8116C31.0009 34.7619 30.0585 34.4615 29.3897 33.9791C29.067 33.7466 29.1856 33.4286 29.5653 33.2977C31.2957 32.6989 32.443 31.4307 32.443 30.0239C32.443 29.9448 32.4387 29.8651 32.4313 29.7852ZM31.11 28.3595C31.6024 28.8545 31.8475 29.4357 31.8167 30.0394C31.7349 31.6674 29.9122 32.9776 27.578 33.0876C27.4683 33.0925 27.3695 33.1597 27.3278 33.2577C27.1442 33.6947 26.5741 34.0308 26.0078 34.2563C25.6347 34.4047 25.4386 34.2024 25.5476 33.8439C25.6068 33.6478 25.6654 33.4293 25.7224 33.1891C25.7569 33.0484 25.6698 32.9062 25.5242 32.8663C23.8055 32.3922 22.6962 31.2879 22.6962 30.0527C22.6962 28.3742 24.742 27.0087 27.2561 27.0087C28.8271 27.0094 30.2678 27.5135 31.11 28.3595Z" fill="white" stroke="white"/>
<path d="M24.3507 30.3944C24.5697 30.3944 24.7473 30.2244 24.7473 30.0148C24.7473 29.8052 24.5697 29.6353 24.3507 29.6353C24.1317 29.6353 23.9541 29.8052 23.9541 30.0148C23.9541 30.2244 24.1317 30.3944 24.3507 30.3944Z" fill="white" stroke="white"/>
<path d="M27.0343 30.3944C27.2533 30.3944 27.4309 30.2244 27.4309 30.0148C27.4309 29.8052 27.2533 29.6353 27.0343 29.6353C26.8153 29.6353 26.6377 29.8052 26.6377 30.0148C26.6377 30.2244 26.8153 30.3944 27.0343 30.3944Z" fill="white" stroke="white"/>
<path d="M29.7169 30.3944C29.9359 30.3944 30.1135 30.2244 30.1135 30.0148C30.1135 29.8052 29.9359 29.6353 29.7169 29.6353C29.4979 29.6353 29.3203 29.8052 29.3203 30.0148C29.3203 30.2244 29.4979 30.3944 29.7169 30.3944Z" fill="white" stroke="white"/>
<rect x="1" y="1" width="58" height="58" rx="29" stroke="#A9D077" stroke-width="2"/>
</svg>
