<svg width="67" height="45" viewBox="0 0 67 45" fill="none" xmlns="http://www.w3.org/2000/svg">
<path d="M55.2662 14.016L55.4258 14.4947C55.3598 14.2967 55.3076 14.14 55.2663 14.016C55.2617 14.0023 55.2573 13.989 55.253 13.976L55.2529 13.9761L55.2662 14.016ZM55.2662 14.016L55.2396 13.9894L55.2662 14.016ZM14.7077 30.2287H15.2376L15.5352 29.7903L22.0405 20.2049C22.9313 18.9957 23.8536 18.1499 24.8653 17.6011C25.8757 17.0531 27.0305 16.7713 28.4311 16.7713H38.1386C39.5675 16.7713 40.7208 17.0326 41.7191 17.5671C42.7191 18.1025 43.6318 18.9486 44.523 20.2223L51.0622 29.8184L51.3599 30.2553H51.8886H63.3247C64.2144 30.2553 64.7772 30.5618 65.1233 30.9423C65.4848 31.3396 65.6807 31.8966 65.6758 32.4918C65.666 33.6939 64.8892 34.7447 63.4843 34.7447H50.3726C49.5376 34.7447 48.669 34.4451 48.1727 33.7006L48.1662 33.6907L48.1594 33.681L43.1594 26.5534L41.3454 23.9675L41.3407 27.1262L41.3156 44H25.4137L25.3886 27.1262L25.3839 23.9675L23.5699 26.5534L18.5699 33.681L18.5615 33.6931L18.5534 33.7053C18.0869 34.4137 17.2265 34.7181 16.3832 34.7181H3.27155C1.79519 34.7181 1.01476 33.646 1.00019 32.4611C0.992915 31.869 1.18788 31.3134 1.54977 30.9162C1.8967 30.5355 2.46128 30.2287 3.35133 30.2287H14.7077ZM58.0166 23.2337C58.3727 23.5899 58.8013 23.7751 59.2316 23.8491L58.2993 24.7814L51.6793 18.1395L52.6309 17.1878C52.6902 17.6052 52.8486 18.0394 53.2054 18.4217L53.2172 18.4343L53.2293 18.4465C53.8036 19.0208 54.5798 19.1814 55.2787 19.0859C55.9761 18.9905 56.6574 18.6401 57.1967 18.1007C57.7361 17.5614 58.0866 16.8801 58.1819 16.1826C58.2774 15.4838 58.1168 14.7076 57.5425 14.1333C57.1617 13.7526 56.735 13.569 56.3557 13.4896L57.6332 12.2121L59.6389 14.2177C60.2422 14.821 61.2477 14.821 61.851 14.2178L61.1439 13.5106L61.851 14.2177C62.106 13.9627 62.2255 13.6559 62.273 13.4024C62.3143 13.1823 62.3142 12.9358 62.252 12.6985C62.1997 12.3867 62.2625 12.2507 62.3155 12.1852C62.3648 12.1439 62.4785 12.087 62.6947 12.1193C62.9294 12.1544 63.2547 12.2989 63.5725 12.6447L63.5724 12.6447L63.5785 12.6512C63.8401 12.9309 64.0045 13.275 64.0553 13.564C64.08 13.705 64.0735 13.8079 64.0591 13.8711C64.0459 13.9296 64.0288 13.9455 64.0272 13.9472C64.0082 13.9661 63.9785 13.9887 63.9047 14.0038C63.8212 14.021 63.6843 14.0267 63.482 13.9904C63.2633 13.9488 63.03 13.961 62.8367 13.9962C62.6425 14.0315 62.3389 14.1165 62.0729 14.3382L62.038 14.3672L62.0059 14.3993C61.4026 15.0026 61.4026 16.0081 62.0059 16.6114L62.0091 16.6146L64.2547 18.8399L62.9707 20.1493C62.8997 19.7587 62.7219 19.3127 62.3297 18.9206C61.7554 18.3463 60.9792 18.1856 60.2804 18.2812C59.583 18.3765 58.9016 18.727 58.3623 19.2663C57.823 19.8056 57.4725 20.4869 57.3772 21.1844C57.2817 21.8832 57.4423 22.6594 58.0166 23.2337ZM55.1105 13.5463C55.1117 13.5507 55.124 13.5886 55.2334 13.9171L55.2333 13.9172L55.1098 13.5465C55.11 13.5465 55.1103 13.5464 55.1105 13.5463ZM9.10478 20.0029L9.09999 20.0173L9.09564 20.0318C9.0517 20.1783 9.01621 20.3402 8.98896 20.516H8.28189C8.33498 20.0098 8.40053 19.6938 8.4632 19.5267C8.47912 19.4842 8.54413 19.3615 8.73155 19.1578C8.91124 18.9625 9.16483 18.734 9.4972 18.4755L9.50107 18.4725L10.2419 17.8904C10.2425 17.8899 10.2431 17.8895 10.2437 17.889C10.4826 17.7031 10.81 17.4344 11.0432 17.074C11.4142 16.5456 11.612 15.9527 11.612 15.2926C11.612 14.5804 11.3883 13.9015 10.979 13.3357C10.3987 12.4818 9.47384 12.2181 8.51091 12.2181C7.50226 12.2181 6.57168 12.5805 6.01961 13.4504C5.64008 14.0385 5.42092 14.6834 5.38463 15.373L5.38325 15.3992V15.4255V15.4521V15.4524V15.4528V15.4531V15.4534V15.4537V15.454V15.4543V15.4546V15.4549V15.4552V15.4556V15.4559V15.4562V15.4565V15.4568V15.4571V15.4574V15.4577V15.458V15.4584V15.4587V15.459V15.4593V15.4596V15.4599V15.4602V15.4605V15.4609V15.4612V15.4615V15.4618V15.4621V15.4624V15.4627V15.463V15.4633V15.4637V15.464V15.4643V15.4646V15.4649V15.4652V15.4655V15.4658V15.4662V15.4665V15.4668V15.4671V15.4674V15.4677V15.468V15.4683V15.4686V15.469V15.4693V15.4696V15.4699V15.4702V15.4705V15.4708V15.4711V15.4715V15.4718V15.4721V15.4724V15.4727V15.473V15.4733V15.4736V15.4739V15.4743V15.4746V15.4749V15.4752V15.4755V15.4758V15.4761V15.4764V15.4767V15.4771V15.4774V15.4777V15.478V15.4783V15.4786V15.4789V15.4792V15.4796V15.4799V15.4802V15.4805V15.4808V15.4811V15.4814V15.4817V15.482V15.4824V15.4827V15.483V15.4833V15.4836V15.4839V15.4842V15.4845V15.4849V15.4852V15.4855V15.4858V15.4861V15.4864V15.4867V15.487V15.4873V15.4877V15.488V15.4883V15.4886V15.4889V15.4892V15.4895V15.4898V15.4902V15.4905V15.4908V15.4911V15.4914V15.4917V15.492V15.4923V15.4926V15.493V15.4933V15.4936V15.4939V15.4942V15.4945V15.4948V15.4951V15.4955V15.4958V15.4961V15.4964V15.4967V15.497V15.4973V15.4976V15.4979V15.4983V15.4986V15.4989V15.4992V15.4995V15.4998V15.5001V15.5004V15.5007V15.5011V15.5014V15.5017V15.502V15.5023V15.5026V15.5029V15.5032V15.5036V15.5039V15.5042V15.5045V15.5048V15.5051V15.5054V15.5057V15.506V15.5064V15.5067V15.507V15.5073V15.5076V15.5079V15.5082V15.5085V15.5089V15.5092V15.5095V15.5098V15.5101V15.5104V15.5107V15.511V15.5113V15.5117V15.512V15.5123V15.5126V15.5129V15.5132V15.5135V15.5138V15.5142V15.5145V15.5148V15.5151V15.5154V15.5157V15.516V15.5163V15.5166V15.517V15.5173V15.5176V15.5179V15.5182V15.5185V15.5188V15.5191V15.5194V15.5198V15.5201V15.5204V15.5207V15.521V15.5213V15.5216V15.5219V15.5223V15.5226V15.5229V15.5232V15.5235V15.5238V15.5241V15.5244V15.5247V15.5251V15.5254V15.5257V15.526V15.5263V15.5266V15.5269V15.5272V15.5276V15.5279V15.5282V15.5285V15.5288V15.5291V15.5294V15.5297V15.53V15.5304V15.5307V15.531V15.5313V15.5316V15.5319V15.5322V15.5325V15.5329V15.5332V15.5335V15.5338V15.5341V15.5344V15.5347V15.535V15.5353V15.5357V15.536V15.5363V15.5366V15.5369V15.5372V15.5375V15.5378V15.5381V15.5385V15.5388V15.5391V15.5394V15.5397V15.54V15.5403V15.5406V15.541V15.5413V15.5416V15.5419V15.5422V15.5425V15.5428V15.5431V15.5434V15.5438V15.5441V15.5441C5.34312 15.7595 5.16723 15.9149 4.92048 15.9149C4.6833 15.9149 4.51158 15.7713 4.46299 15.5689C4.46488 15.5403 4.46697 15.5082 4.46907 15.4746C4.47386 15.3979 4.48089 15.2814 4.48339 15.1912C4.62589 13.7761 5.16642 12.8977 5.99284 12.3574C6.60573 11.9707 7.36953 11.7447 8.37793 11.7447C9.74674 11.7447 10.7898 12.0564 11.5511 12.6325L11.5611 12.6401L11.5713 12.6474C12.2944 13.1666 12.6705 13.9217 12.6705 15.1064C12.6705 15.8048 12.507 16.3026 12.2071 16.7117C12.0082 16.9681 11.6008 17.3849 10.9289 17.9075L11.5428 18.6968L10.9289 17.9075L10.221 18.458C9.64412 18.8852 9.29431 19.4343 9.10478 20.0029ZM39.612 7.31383C39.612 10.8041 36.815 13.6011 33.3247 13.6011C29.8611 13.6011 27.0375 10.8041 27.0375 7.28723C27.0375 3.79697 29.8345 1 33.3247 1C36.8103 1 39.612 3.81881 39.612 7.31383ZM8.64389 25.1968C8.15894 25.1968 7.75559 24.7935 7.75559 24.3085C7.75559 23.8236 8.15894 23.4202 8.64389 23.4202C9.12883 23.4202 9.53218 23.8236 9.53218 24.3085C9.53218 24.7935 9.12884 25.1968 8.64389 25.1968Z" fill="white" stroke="#89AA5A" stroke-width="2"/>
</svg>
