<svg width="46" height="45" viewBox="0 0 46 45" fill="none" xmlns="http://www.w3.org/2000/svg">
<path d="M7.16368 8.88987C9.61855 8.88987 11.6086 6.8998 11.6086 4.44493C11.6086 1.99006 9.61855 0 7.16368 0C4.70881 0 2.71875 1.99006 2.71875 4.44493C2.71875 6.8998 4.70881 8.88987 7.16368 8.88987Z" fill="#F7BB3C"/>
<path d="M2.2041 24.4652H2.64492V33.2816C2.64492 34.4942 3.63676 35.4857 4.84902 35.4857H9.47763C10.6899 35.4857 11.6817 34.4942 11.6817 33.2816V32.7676C11.2776 31.9958 11.0205 31.1146 11.0205 30.1962V18.6614C11.0205 16.4206 12.3797 14.4736 14.3266 13.6287V12.7471C14.3266 11.5348 13.3348 10.543 12.1225 10.543H2.2041C0.991845 10.543 0 11.5348 0 12.7471V22.2614C0 23.4737 0.95511 24.4652 2.2041 24.4652Z" fill="#F7BB3C"/>
<path d="M37.9469 8.88987C40.4018 8.88987 42.3918 6.8998 42.3918 4.44493C42.3918 1.99006 40.4018 0 37.9469 0C35.492 0 33.502 1.99006 33.502 4.44493C33.502 6.8998 35.492 8.88987 37.9469 8.88987Z" fill="#F7BB3C"/>
<path d="M30.7471 12.7104V13.5921C32.6944 14.437 34.0532 16.3839 34.0532 18.6248V30.1228C34.0532 31.0412 33.8328 31.9228 33.3924 32.6943V33.2086C33.3924 34.4208 34.3838 35.4127 35.5965 35.4127H40.2251C41.4373 35.4127 42.4292 34.4208 42.4292 33.2086V24.3922H42.8696C44.0822 24.3922 45.0737 23.4003 45.0737 22.1881V12.7104C45.0737 11.4982 44.0822 10.5063 42.8696 10.5063H32.9512C31.7393 10.5063 30.7471 11.4978 30.7471 12.7104Z" fill="#F7BB3C"/>
<path d="M14.3633 18.661V22.261V30.1958C14.3633 31.4081 15.3551 32.3999 16.5674 32.3999H17.4123V42.7959C17.4123 44.0082 18.4041 45 19.6164 45H25.5307C26.743 45 27.7348 44.0082 27.7348 42.7959V32.3632H28.5797C29.792 32.3632 30.7838 31.3717 30.7838 30.1591V22.2614V18.6614C30.7838 17.4491 29.792 16.4573 28.5797 16.4573H16.5674C15.3184 16.4569 14.3633 17.4491 14.3633 18.661Z" fill="#F7BB3C"/>
<path d="M22.5554 14.6205C25.3754 14.6205 27.6615 12.3344 27.6615 9.51437C27.6615 6.69431 25.3754 4.4082 22.5554 4.4082C19.7353 4.4082 17.4492 6.69431 17.4492 9.51437C17.4492 12.3344 19.7353 14.6205 22.5554 14.6205Z" fill="#F7BB3C"/>
</svg>
