<svg width="60" height="60" viewBox="0 0 60 60" fill="none" xmlns="http://www.w3.org/2000/svg">
<rect x="1" y="1" width="58" height="58" rx="29" fill="white"/>
<path d="M20.9779 29.2333C20.1706 28.426 18.9435 28.289 17.9929 28.8211V20.5081C17.9929 20.0859 17.8871 19.6881 17.7013 19.339C17.8132 19.3058 17.9302 19.2883 18.0496 19.2883C18.7222 19.2883 19.2694 19.8355 19.2694 20.5081V26.6451C19.2694 26.9976 19.5552 27.2834 19.9077 27.2834C20.2603 27.2834 20.546 26.9976 20.546 26.6451V20.5081C20.546 19.1316 19.4261 18.0117 18.0496 18.0117C17.5943 18.0117 17.1553 18.1347 16.7722 18.3635C16.3986 18.1404 15.9623 18.0117 15.4964 18.0117C14.1199 18.0117 13 19.1315 13 20.5087L13.0104 32.223C13.0108 32.7576 13.2088 33.5122 13.4707 33.9784C13.475 33.986 13.4795 33.9935 13.4841 34.001L20.8368 45.9075C20.9894 46.1858 21.1271 46.7155 21.1271 47.0276V49.3617C21.1271 49.7142 21.4129 50 21.7654 50C22.1179 50 22.4037 49.7142 22.4037 49.3617V47.0276C22.4037 46.4929 22.206 45.738 21.944 45.2718C21.9397 45.2641 21.9352 45.2567 21.9306 45.2492L14.578 33.3428C14.4253 33.0642 14.2873 32.5344 14.2871 32.222L14.2767 20.5082C14.2767 19.8356 14.8239 19.2884 15.4965 19.2884C16.1691 19.2884 16.7163 19.8355 16.7163 20.5082V30.9986C16.7163 31.0136 16.7175 31.0283 16.7186 31.043C16.7295 31.6674 16.9721 32.2884 17.4475 32.7638L23.1647 38.4809C23.414 38.7302 23.8181 38.7302 24.0673 38.4809C24.3166 38.2316 24.3166 37.8275 24.0673 37.5783L18.3501 31.8612C17.8746 31.3856 17.8746 30.6117 18.3501 30.1361C18.8257 29.6606 19.5996 29.6606 20.0752 30.1361L27.1098 37.1707C27.895 37.9559 28.5584 39.5574 28.5584 40.6679V49.3617C28.5584 49.7142 28.8442 50 29.1967 50C29.5492 50 29.835 49.7142 29.835 49.3617V40.6678C29.835 39.2225 29.0345 37.2898 28.0124 36.2679L20.9779 29.2333Z" fill="#F7D36E"/>
<path d="M45.4499 18.0117C44.984 18.0117 44.5478 18.1403 44.1741 18.3635C43.7911 18.1347 43.352 18.0117 42.8967 18.0117C41.5202 18.0117 40.4003 19.1315 40.4003 20.5081V26.6451C40.4003 26.9976 40.6861 27.2834 41.0386 27.2834C41.3911 27.2834 41.6769 26.9976 41.6769 26.6451V20.5081C41.6769 19.8355 42.2241 19.2883 42.8967 19.2883C43.0161 19.2883 43.1332 19.3058 43.245 19.339C43.0592 19.6881 42.9535 20.0859 42.9535 20.5081V28.8211C42.0029 28.2891 40.7758 28.426 39.9684 29.2334L32.9339 36.268C31.9119 37.2899 31.1113 39.2226 31.1113 40.6679V49.3616C31.1113 49.7141 31.3971 49.9999 31.7496 49.9999C32.1021 49.9999 32.3879 49.7141 32.3879 49.3616V40.6677C32.3879 39.5572 33.0513 37.9557 33.8365 37.1705L40.8711 30.136C41.3466 29.6604 42.1205 29.6604 42.5962 30.136C43.0718 30.6115 43.0718 31.3854 42.5962 31.8611L36.879 37.5782C36.6297 37.8275 36.6297 38.2315 36.879 38.4808C37.1283 38.7301 37.5324 38.7301 37.7816 38.4808L43.4988 32.7637C43.9742 32.2883 44.2167 31.6673 44.2278 31.043C44.2288 31.0282 44.23 31.0135 44.23 30.9985V20.5081C44.23 19.8355 44.7772 19.2882 45.4498 19.2882C46.1224 19.2882 46.6696 19.8354 46.6696 20.5075L46.6592 32.2218C46.659 32.5342 46.5209 33.0641 46.3683 33.3426L39.0157 45.2491C39.0111 45.2565 39.0066 45.2641 39.0023 45.2717C38.7403 45.7379 38.5426 46.4928 38.5426 47.0275V49.3616C38.5426 49.7141 38.8284 49.9999 39.1809 49.9999C39.5335 49.9999 39.8192 49.7141 39.8192 49.3616V47.0275C39.8192 46.7154 39.9569 46.1858 40.1095 45.9074L47.4622 34.0009C47.4668 33.9935 47.4712 33.9859 47.4756 33.9783C47.7375 33.5121 47.9355 32.7576 47.9359 32.223L47.9463 20.5081C47.9462 19.1315 46.8263 18.0117 45.4499 18.0117Z" fill="#F7D36E"/>
<g filter="url(#filter0_i_1013_2215)">
<path d="M40.482 15.6386C40.482 12.5294 37.9525 10 34.8435 10C33.1284 10 31.5231 10.7823 30.4625 12.0908C29.4361 10.8166 27.8633 10 26.1034 10C22.9943 10 20.4648 12.5294 20.4648 15.6386C20.4648 16.8769 20.859 18.0523 21.6047 19.0377L29.9644 30.0872C30.0851 30.2467 30.2734 30.3404 30.4734 30.3404C30.6734 30.3404 30.8618 30.2467 30.9825 30.0872L39.3422 19.0377C40.0878 18.0523 40.482 16.8769 40.482 15.6386ZM38.3242 18.2675L30.4734 28.6442L22.6227 18.2674C22.0462 17.5055 21.7415 16.5964 21.7415 15.6386C21.7415 13.2334 23.6983 11.2766 26.1035 11.2766C28.4851 11.2766 30.4226 13.2141 30.4226 15.5957C30.4226 15.9483 30.7084 16.234 31.0609 16.234C31.4134 16.234 31.6992 15.9483 31.6992 15.5957C31.6992 14.7626 31.5162 13.9714 31.1882 13.2603C31.99 12.0295 33.3642 11.2766 34.8435 11.2766C37.2487 11.2766 39.2054 13.2334 39.2054 15.6386C39.2054 16.5965 38.9007 17.5055 38.3242 18.2675Z" fill="#F97F6B"/>
</g>
<path d="M40.482 15.6386C40.482 12.5294 37.9525 10 34.8435 10C33.1284 10 31.5231 10.7823 30.4625 12.0908C29.4361 10.8166 27.8633 10 26.1034 10C22.9943 10 20.4648 12.5294 20.4648 15.6386C20.4648 16.8769 20.859 18.0523 21.6047 19.0377L29.9644 30.0872C30.0851 30.2467 30.2734 30.3404 30.4734 30.3404C30.6734 30.3404 30.8618 30.2467 30.9825 30.0872L39.3422 19.0377C40.0878 18.0523 40.482 16.8769 40.482 15.6386ZM38.3242 18.2675L30.4734 28.6442L22.6227 18.2674C22.0462 17.5055 21.7415 16.5964 21.7415 15.6386C21.7415 13.2334 23.6983 11.2766 26.1035 11.2766C28.4851 11.2766 30.4226 13.2141 30.4226 15.5957C30.4226 15.9483 30.7084 16.234 31.0609 16.234C31.4134 16.234 31.6992 15.9483 31.6992 15.5957C31.6992 14.7626 31.5162 13.9714 31.1882 13.2603C31.99 12.0295 33.3642 11.2766 34.8435 11.2766C37.2487 11.2766 39.2054 13.2334 39.2054 15.6386C39.2054 16.5965 38.9007 17.5055 38.3242 18.2675Z" stroke="#F97F6B"/>
<rect x="1" y="1" width="58" height="58" rx="29" stroke="#F7BB3C" stroke-width="2"/>
<defs>
<filter id="filter0_i_1013_2215" x="19.9648" y="9.5" width="21.0176" height="25.3403" filterUnits="userSpaceOnUse" color-interpolation-filters="sRGB">
<feFlood flood-opacity="0" result="BackgroundImageFix"/>
<feBlend mode="normal" in="SourceGraphic" in2="BackgroundImageFix" result="shape"/>
<feColorMatrix in="SourceAlpha" type="matrix" values="0 0 0 0 0 0 0 0 0 0 0 0 0 0 0 0 0 0 127 0" result="hardAlpha"/>
<feOffset dy="4"/>
<feGaussianBlur stdDeviation="2"/>
<feComposite in2="hardAlpha" operator="arithmetic" k2="-1" k3="1"/>
<feColorMatrix type="matrix" values="0 0 0 0 0 0 0 0 0 0 0 0 0 0 0 0 0 0 0.25 0"/>
<feBlend mode="normal" in2="shape" result="effect1_innerShadow_1013_2215"/>
</filter>
</defs>
</svg>
