<svg width="60" height="60" viewBox="0 0 60 60" fill="none" xmlns="http://www.w3.org/2000/svg">
<rect x="1" y="1" width="58" height="58" rx="29" fill="white"/>
<path d="M23.5105 22.3403H21.3828V24.468H23.5105V22.3403Z" fill="white"/>
<path d="M23.5105 28.2979H21.3828V30.4255H23.5105V28.2979Z" fill="white"/>
<path d="M23.5105 34.2554H21.3828V36.383H23.5105V34.2554Z" fill="white"/>
<path d="M23.5105 40.2129H21.3828V42.3406H23.5105V40.2129Z" fill="white"/>
<path d="M36.2764 41.2764C36.2764 40.9238 36.5622 40.6381 36.9147 40.6381H44.3615V11.2764H16.2764V48.7232H36.2764V41.2764ZM39.8934 35.9572H26.7019C26.3494 35.9572 26.0636 35.6715 26.0636 35.3189C26.0636 34.9663 26.3494 34.6806 26.7019 34.6806H39.8934C40.2459 34.6806 40.5317 34.9663 40.5317 35.3189C40.5317 35.6715 40.2459 35.9572 39.8934 35.9572ZM39.8934 29.9998H26.7019C26.3494 29.9998 26.0636 29.7141 26.0636 29.3615C26.0636 29.0089 26.3494 28.7232 26.7019 28.7232H39.8934C40.2459 28.7232 40.5317 29.0089 40.5317 29.3615C40.5317 29.7141 40.2459 29.9998 39.8934 29.9998ZM27.6562 16.8083H39.8934C40.2459 16.8083 40.5317 17.094 40.5317 17.4466C40.5317 17.7992 40.2459 18.0849 39.8934 18.0849H27.6562C27.3037 18.0849 27.0179 17.7992 27.0179 17.4466C27.0179 17.094 27.3037 16.8083 27.6562 16.8083ZM39.8934 22.7657C40.2459 22.7657 40.5317 23.0514 40.5317 23.404C40.5317 23.7566 40.2459 24.0423 39.8934 24.0423H26.7019C26.3494 24.0423 26.0636 23.7566 26.0636 23.404C26.0636 23.0514 26.3494 22.7657 26.7019 22.7657H39.8934ZM20.7187 17.4207C20.9679 17.1715 21.3721 17.1715 21.6213 17.4207L22.4466 18.246L25.3995 15.293C25.6488 15.0439 26.053 15.0439 26.3022 15.293C26.5514 15.5424 26.5514 15.9465 26.3022 16.1958L22.8979 19.6C22.7733 19.7246 22.6099 19.7869 22.4466 19.7869C22.2833 19.7869 22.1199 19.7246 21.9953 19.6L20.7187 18.3234C20.4694 18.0742 20.4694 17.6701 20.7187 17.4207ZM24.787 42.9785C24.787 43.3311 24.5012 43.6168 24.1487 43.6168H20.7445C20.3919 43.6168 20.1062 43.3311 20.1062 42.9785V39.5742C20.1062 39.2216 20.3919 38.9359 20.7445 38.9359H24.1487C24.5012 38.9359 24.787 39.2216 24.787 39.5742V42.9785ZM24.787 37.021C24.787 37.3736 24.5012 37.6593 24.1487 37.6593H20.7445C20.3919 37.6593 20.1062 37.3736 20.1062 37.021V33.6168C20.1062 33.2642 20.3919 32.9785 20.7445 32.9785H24.1487C24.5012 32.9785 24.787 33.2642 24.787 33.6168V37.021ZM24.787 31.0636C24.787 31.4162 24.5012 31.7019 24.1487 31.7019H20.7445C20.3919 31.7019 20.1062 31.4162 20.1062 31.0636V27.6593C20.1062 27.3067 20.3919 27.021 20.7445 27.021H24.1487C24.5012 27.021 24.787 27.3067 24.787 27.6593V31.0636ZM24.787 25.1062C24.787 25.4587 24.5012 25.7445 24.1487 25.7445H20.7445C20.3919 25.7445 20.1062 25.4587 20.1062 25.1062V21.7019C20.1062 21.3493 20.3919 21.0636 20.7445 21.0636H24.1487C24.5012 21.0636 24.787 21.3493 24.787 21.7019V25.1062ZM34.3615 41.9147H26.7019C26.3494 41.9147 26.0636 41.629 26.0636 41.2764C26.0636 40.9238 26.3494 40.6381 26.7019 40.6381H34.3615C34.714 40.6381 34.9998 40.9238 34.9998 41.2764C34.9998 41.629 34.714 41.9147 34.3615 41.9147Z" fill="white"/>
<path d="M37.5527 41.915V47.8209L43.4586 41.915H37.5527Z" fill="#FFCC75"/>
<path d="M45.5025 41.6694C45.5122 41.6569 45.5218 41.6445 45.5306 41.6314C45.5329 41.6279 45.5348 41.6242 45.5371 41.6206C45.5461 41.6066 45.5549 41.5924 45.5627 41.5777C45.5642 41.5751 45.5652 41.5723 45.5666 41.5697C45.5747 41.5538 45.5826 41.5378 45.5894 41.5213C45.5902 41.5194 45.5907 41.5174 45.5915 41.5157C45.5985 41.4983 45.605 41.4807 45.6105 41.4626C45.6111 41.4605 45.6115 41.4582 45.6122 41.4561C45.6174 41.4384 45.622 41.4205 45.6257 41.4023C45.6267 41.3971 45.6271 41.3919 45.6281 41.3867C45.6307 41.3713 45.6334 41.3561 45.635 41.3403C45.6371 41.3192 45.6382 41.298 45.6382 41.2766V10.6383C45.6382 10.2857 45.3524 10 44.9999 10H15.6382C15.2858 10 15 10.2857 15 10.6383V49.3617C15 49.7143 15.2858 50 15.6383 50H36.9149C36.9363 50 36.9575 49.9989 36.9786 49.9968C36.9945 49.9951 37.01 49.9925 37.0254 49.9898C37.0304 49.9889 37.0355 49.9885 37.0405 49.9876C37.0587 49.9839 37.0765 49.9791 37.0941 49.9741C37.0963 49.9734 37.0987 49.973 37.1009 49.9723C37.1186 49.967 37.1358 49.9606 37.1528 49.9538C37.1551 49.9529 37.1574 49.9522 37.1597 49.9513C37.1757 49.9446 37.1912 49.937 37.2066 49.9291C37.2098 49.9274 37.2131 49.9261 37.2162 49.9244C37.2302 49.9169 37.2437 49.9085 37.257 49.9C37.2613 49.8974 37.2657 49.895 37.2699 49.8922C37.2823 49.8838 37.2941 49.8747 37.3059 49.8655C37.3106 49.8619 37.3155 49.8586 37.3201 49.8549C37.3345 49.8431 37.3482 49.8305 37.3614 49.8175C37.363 49.8159 37.3648 49.8147 37.3663 49.8131L45.4514 41.728C45.4527 41.7267 45.4537 41.7254 45.455 41.7241C45.4683 41.7105 45.4812 41.6965 45.4934 41.6817C45.4965 41.6777 45.4993 41.6734 45.5025 41.6694ZM16.2766 11.2766H44.3617V40.6383H36.9149C36.5624 40.6383 36.2766 40.924 36.2766 41.2766V48.7234H16.2766V11.2766ZM37.5532 41.9149H43.4591L37.5532 47.8208V41.9149Z" fill="#0EDDC9"/>
<path d="M27.6569 18.0852H39.894C40.2466 18.0852 40.5323 17.7995 40.5323 17.4469C40.5323 17.0943 40.2466 16.8086 39.894 16.8086H27.6569C27.3043 16.8086 27.0186 17.0943 27.0186 17.4469C27.0186 17.7995 27.3043 18.0852 27.6569 18.0852Z" fill="#0EDDC9"/>
<path d="M21.9958 19.6003C22.1204 19.7249 22.2838 19.7872 22.4471 19.7872C22.6104 19.7872 22.7738 19.7249 22.8984 19.6003L26.3027 16.1961C26.5519 15.9467 26.5519 15.5426 26.3027 15.2933C26.0534 15.0441 25.6492 15.0441 25.4 15.2933L22.4471 18.2463L21.6218 17.421C21.3725 17.1718 20.9684 17.1718 20.7192 17.421C20.4699 17.6704 20.4699 18.0744 20.7192 18.3237L21.9958 19.6003Z" fill="#0EDDC9"/>
<path d="M26.0635 23.4044C26.0635 23.757 26.3493 24.0427 26.7018 24.0427H39.8933C40.2458 24.0427 40.5316 23.757 40.5316 23.4044C40.5316 23.0518 40.2458 22.7661 39.8933 22.7661H26.7018C26.3493 22.7661 26.0635 23.0518 26.0635 23.4044Z" fill="#0EDDC9"/>
<path d="M24.149 21.064H20.7447C20.3922 21.064 20.1064 21.3497 20.1064 21.7023V25.1065C20.1064 25.4591 20.3922 25.7448 20.7447 25.7448H24.149C24.5015 25.7448 24.7873 25.4591 24.7873 25.1065V21.7023C24.7873 21.3497 24.5015 21.064 24.149 21.064ZM23.5107 24.4682H21.383V22.3406H23.5107V24.4682Z" fill="#0EDDC9"/>
<path d="M39.8933 28.7236H26.7018C26.3493 28.7236 26.0635 29.0093 26.0635 29.3619C26.0635 29.7145 26.3493 30.0002 26.7018 30.0002H39.8933C40.2458 30.0002 40.5316 29.7145 40.5316 29.3619C40.5316 29.0093 40.2458 28.7236 39.8933 28.7236Z" fill="#0EDDC9"/>
<path d="M24.149 27.0215H20.7447C20.3922 27.0215 20.1064 27.3072 20.1064 27.6598V31.064C20.1064 31.4166 20.3922 31.7023 20.7447 31.7023H24.149C24.5015 31.7023 24.7873 31.4166 24.7873 31.064V27.6598C24.7873 27.3072 24.5015 27.0215 24.149 27.0215ZM23.5107 30.4257H21.383V28.2981H23.5107V30.4257Z" fill="#0EDDC9"/>
<path d="M39.8933 34.6807H26.7018C26.3493 34.6807 26.0635 34.9664 26.0635 35.319C26.0635 35.6716 26.3493 35.9573 26.7018 35.9573H39.8933C40.2458 35.9573 40.5316 35.6716 40.5316 35.319C40.5316 34.9664 40.2458 34.6807 39.8933 34.6807Z" fill="#0EDDC9"/>
<path d="M24.149 32.979H20.7447C20.3922 32.979 20.1064 33.2647 20.1064 33.6173V37.0216C20.1064 37.3742 20.3922 37.6599 20.7447 37.6599H24.149C24.5015 37.6599 24.7873 37.3742 24.7873 37.0216V33.6173C24.7873 33.2647 24.5015 32.979 24.149 32.979ZM23.5107 36.3833H21.383V34.2556H23.5107V36.3833Z" fill="#0EDDC9"/>
<path d="M34.3613 40.6382H26.7018C26.3493 40.6382 26.0635 40.9239 26.0635 41.2765C26.0635 41.6291 26.3493 41.9148 26.7018 41.9148H34.3613C34.7139 41.9148 34.9996 41.6291 34.9996 41.2765C34.9996 40.9239 34.7139 40.6382 34.3613 40.6382Z" fill="#0EDDC9"/>
<path d="M24.149 38.936H20.7447C20.3922 38.936 20.1064 39.2217 20.1064 39.5743V42.9786C20.1064 43.3312 20.3922 43.6169 20.7447 43.6169H24.149C24.5015 43.6169 24.7873 43.3312 24.7873 42.9786V39.5743C24.7873 39.2217 24.5015 38.936 24.149 38.936ZM23.5107 42.3403H21.383V40.2126H23.5107V42.3403Z" fill="#0EDDC9"/>
<rect x="1" y="1" width="58" height="58" rx="29" stroke="#0EDDC9" stroke-width="2"/>
</svg>
