<svg width="60" height="60" viewBox="0 0 60 60" fill="none" xmlns="http://www.w3.org/2000/svg">
<rect x="1" y="1" width="58" height="58" rx="29" fill="white"/>
<path d="M34.3554 10.9998L31.8428 14.769L35.612 17.2817L38.1246 13.5125L34.3554 10.9998Z" fill="#A9D077"/>
<path d="M32.9462 42.9186C33.1937 42.8288 33.4236 42.6905 33.6183 42.4996C34.043 42.0824 34.2414 41.5053 34.1629 40.9148L33.1001 32.9444V27.2818L37.7351 25.6266C38.3168 25.4187 38.7471 24.9124 38.8576 24.3045L39.5623 20.427L45.3254 24.0941L46 23.0339L39.7652 19.0667C39.7507 18.6602 39.6037 18.2664 39.3375 17.9474C38.985 17.5253 38.4675 17.2828 37.9173 17.2828C37.661 17.2828 37.4192 17.3387 37.1968 17.4317L32.1812 14.2402L31.5066 15.3006L36.2591 18.3244C36.1799 18.4883 36.1184 18.6631 36.0889 18.8515L35.506 22.6396L31.8188 23.8877C31.131 23.2784 30.2454 22.9361 29.3314 22.9361C28.5223 22.9361 27.7442 23.1986 27.057 23.7137L26.863 23.8745C26.8158 23.9153 25.7869 24.85 24.9346 25.6244V23.6314C24.9346 22.6792 24.2587 21.8513 23.3623 21.7055C22.8103 21.6144 22.2517 21.7703 21.8303 22.1288C21.4075 22.4876 21.1658 23.0107 21.1658 23.5641V28.6852C21.1658 30.0174 22.25 31.1016 23.5822 31.1016C24.1808 31.1016 24.755 30.8812 25.1984 30.4811L25.5628 30.1539V32.9447L24.5063 40.8691C24.3857 41.7736 24.9033 42.6259 25.7179 42.9181C24.716 43.2007 23.7406 43.5977 22.8179 44.121L15.7207 48.1429L16.3401 49.2358L23.4372 45.2139C27.0735 43.1543 31.591 43.1536 35.2266 45.2139L42.3238 49.2358L42.9431 48.1429L35.8459 44.121C34.9228 43.5982 33.9474 43.2013 32.9462 42.9186ZM24.3577 29.5476C24.1448 29.7398 23.869 29.8454 23.582 29.8454C22.9425 29.8454 22.4218 29.3247 22.4218 28.6852V23.5641C22.4218 23.3795 22.5022 23.2049 22.6436 23.0855C22.7868 22.9642 22.9696 22.9153 23.1605 22.9448C23.4508 22.9925 23.6782 23.294 23.6782 23.6312V28.4634L24.7285 27.5087C24.7285 27.5087 27.5801 24.917 27.6757 24.8323L27.8334 24.701C28.8673 23.9271 30.3328 24.0828 31.187 25.0282L31.4633 25.3341L36.6309 23.5848L37.3295 19.0421C37.3313 19.0314 37.3376 19.0232 37.3395 19.0127L38.4174 19.6986L37.6209 24.0797C37.5901 24.2468 37.472 24.3862 37.3119 24.4434L31.8438 26.397V32.9861L32.9172 41.0808C32.943 41.2755 32.8777 41.4658 32.7375 41.6034C32.6559 41.6845 32.4769 41.8151 32.2023 41.7717C31.9429 41.7322 31.7262 41.4877 31.6867 41.19L30.509 32.3579H28.1529L26.9682 41.244C26.9443 41.4211 26.8457 41.5787 26.6961 41.6773C26.5447 41.7778 26.3595 41.8049 26.1742 41.7547C25.8935 41.6768 25.7068 41.3615 25.7502 41.0355L26.8124 33.0689L26.8187 27.3329L24.3577 29.5476ZM27.6366 42.5217C27.9474 42.2284 28.1566 41.8402 28.2138 41.4106L29.2527 33.6143H29.4091L30.4417 41.3566C30.5032 41.817 30.7231 42.2239 31.0377 42.5236C29.9092 42.3778 28.7654 42.3772 27.6366 42.5217Z" fill="#FA7355"/>
<path d="M33.1 19.1672C33.1 17.0887 31.4097 15.3984 29.3313 15.3984C27.2528 15.3984 25.5625 17.0887 25.5625 19.1672C25.5625 21.2457 27.2528 22.936 29.3313 22.936C31.4097 22.936 33.1 21.2457 33.1 19.1672ZM29.3313 21.6797C27.9456 21.6797 26.8188 20.5529 26.8188 19.1672C26.8188 17.7815 27.9456 16.6547 29.3313 16.6547C30.717 16.6547 31.8438 17.7815 31.8438 19.1672C31.8438 20.5529 30.717 21.6797 29.3313 21.6797Z" fill="#FA7355"/>
<path d="M44.4061 27.9609H43.1498V29.2172H41.8936V30.4734H43.1498V31.7297H44.4061V30.4734H45.6623V29.2172H44.4061V27.9609Z" fill="#FA7355"/>
<path d="M39.3814 34.242V33.6138H40.0096V32.3576H39.3814V31.7295H38.1251V32.3576H37.4971V33.6138H38.1251V34.242H39.3814Z" fill="#FA7355"/>
<path d="M43.1502 33.6143H41.8939V34.8705H40.6377V36.1268H41.8939V37.383H43.1502V36.1268H44.4065V34.8705H43.1502V33.6143Z" fill="#FA7355"/>
<path d="M19.9096 16.6545H21.1658V15.3982H22.4221V14.142H21.1658V12.8857H19.9096V14.142H18.6533V15.3982H19.9096V16.6545Z" fill="#FA7355"/>
<path d="M14.8843 14.7703V14.1423H15.5125V12.886H14.8843V12.2578H13.6281V12.886H13V14.1423H13.6281V14.7703H14.8843Z" fill="#FA7355"/>
<path d="M16.7684 20.4235V19.1673H18.0246V17.911H16.7684V16.6548H15.5121V17.911H14.2559V19.1673H15.5121V20.4235H16.7684Z" fill="#FA7355"/>
<rect x="1" y="1" width="58" height="58" rx="29" stroke="#FA7355" stroke-width="2"/>
</svg>
