<svg width="45" height="45" viewBox="0 0 45 45" fill="none" xmlns="http://www.w3.org/2000/svg">
<path d="M22.5002 21.9403C24.784 21.9403 26.6419 20.0822 26.6419 17.7985C26.6419 15.5147 24.7839 13.6567 22.5002 13.6567C20.2163 13.6567 18.3584 15.5147 18.3584 17.7985C18.3584 20.0822 20.2163 21.9403 22.5002 21.9403ZM22.5002 15.4477C23.7963 15.4477 24.8509 16.5022 24.8509 17.7984C24.8509 19.0946 23.7963 20.1492 22.5002 20.1492C21.204 20.1492 20.1494 19.0947 20.1494 17.7985C20.1494 16.5023 21.204 15.4477 22.5002 15.4477Z" fill="#0EDDC9"/>
<path d="M22.5005 23.3955C18.612 23.3955 15.4482 26.5591 15.4482 30.4478C15.4482 30.9423 15.8492 31.3433 16.3438 31.3433H28.6572C29.1518 31.3433 29.5528 30.9423 29.5528 30.4478C29.5528 26.5591 26.389 23.3955 22.5005 23.3955ZM17.3156 29.5522C17.7421 27.0764 19.9048 25.1865 22.5005 25.1865C25.0962 25.1865 27.2591 27.0763 27.6854 29.5522H17.3156Z" fill="#0EDDC9"/>
<path d="M22.5002 8.17163C14.5996 8.17163 8.17188 14.5992 8.17188 22.5C8.17188 30.4008 14.5996 36.8284 22.5002 36.8284C30.4009 36.8284 36.8286 30.4008 36.8286 22.5C36.8286 14.5992 30.4009 8.17163 22.5002 8.17163ZM22.5002 35.0373C15.5871 35.0373 9.96291 29.4131 9.96291 22.5C9.96291 15.5869 15.5871 9.96267 22.5002 9.96267C29.4134 9.96267 35.0376 15.5869 35.0376 22.5C35.0376 29.4131 29.4134 35.0373 22.5002 35.0373Z" fill="#0EDDC9"/>
<path d="M44.1045 21.6045H42.4043C41.9474 11.3287 33.6713 3.05262 23.3955 2.59567V0.895518C23.3955 0.400957 22.9946 0 22.5 0C22.0054 0 21.6045 0.400957 21.6045 0.895518V2.59567C11.3287 3.05262 3.05262 11.3287 2.59567 21.6045H0.895518C0.400957 21.6045 0 22.0054 0 22.5C0 22.9946 0.400957 23.3955 0.895518 23.3955H2.59567C3.05262 33.6713 11.3287 41.9474 21.6045 42.4043V44.1045C21.6045 44.599 22.0054 45 22.5 45C22.9946 45 23.3955 44.599 23.3955 44.1045V42.4043C33.6713 41.9474 41.9474 33.6713 42.4043 23.3955H44.1045C44.599 23.3955 45 22.9946 45 22.5C45 22.0054 44.599 21.6045 44.1045 21.6045ZM39.3504 23.3955H40.6121C40.1581 32.6836 32.6838 40.1581 23.3955 40.6121V39.3504C23.3955 38.8558 22.9946 38.4549 22.5 38.4549C22.0054 38.4549 21.6045 38.8558 21.6045 39.3504V40.6121C12.3162 40.1581 4.84189 32.6836 4.38794 23.3955H5.64961C6.14417 23.3955 6.54513 22.9946 6.54513 22.5C6.54513 22.0054 6.14417 21.6045 5.64961 21.6045H4.38794C4.84189 12.3164 12.3162 4.84189 21.6045 4.38794V5.64952C21.6045 6.14408 22.0054 6.54504 22.5 6.54504C22.9946 6.54504 23.3955 6.14408 23.3955 5.64952V4.38794C32.6838 4.84189 40.1581 12.3164 40.6121 21.6045H39.3504C38.8558 21.6045 38.4549 22.0054 38.4549 22.5C38.4549 22.9946 38.8558 23.3955 39.3504 23.3955Z" fill="#0EDDC9"/>
</svg>
