<svg width="60" height="60" viewBox="0 0 60 60" fill="none" xmlns="http://www.w3.org/2000/svg">
<rect x="1" y="1" width="58" height="58" rx="29" fill="#6606EF"/>
<path d="M29.5 49C29.4271 49 29.3555 48.9814 29.2888 48.9468L13.2334 40.2881C13.0902 40.2102 13 40.0605 13 39.896V20.1046C13 19.9414 13.0902 19.7904 13.2334 19.7125L29.2888 11.0538C29.421 10.9821 29.5778 10.9821 29.7112 11.0538L45.7666 19.7125C45.9098 19.7904 46 19.9414 46 20.1046V39.896C46 40.0605 45.9098 40.2102 45.7666 40.2881L29.7112 48.9468C29.6445 48.9827 29.5729 49 29.5 49ZM13.8892 39.63L29.5 48.0488L45.1108 39.63V20.3706L29.5 11.9518L13.8892 20.3706V39.63ZM35.8876 40.3413C34.8353 40.3413 33.8473 39.9306 33.1026 39.186L26.7162 32.7884L27.3449 32.1576L33.7324 38.5551C34.308 39.1328 35.0737 39.4494 35.8876 39.4494C37.5685 39.4494 38.9356 38.0814 38.9356 36.3966C38.9356 35.5815 38.6195 34.8146 38.0427 34.2381L35.3602 31.5515L35.9901 30.9218L38.6726 33.6073C39.4161 34.3532 39.8261 35.3427 39.8261 36.3966C39.8249 38.5724 38.0588 40.3413 35.8876 40.3413ZM23.1137 40.3413C20.9425 40.3413 19.1764 38.5712 19.1764 36.3979C19.1764 35.3427 19.5864 34.3532 20.3299 33.6085L25.4812 28.4492L26.1098 29.0788L20.9585 34.2394C20.383 34.8158 20.0656 35.5827 20.0656 36.3979C20.0656 38.0814 21.4328 39.4507 23.1149 39.4507C23.93 39.4507 24.6945 39.134 25.2713 38.5564L27.9525 35.8697L28.5811 36.5005L25.8999 39.1872C25.1539 39.9306 24.1659 40.3413 23.1137 40.3413ZM35.6751 37.8674C34.7489 37.8674 33.9955 37.1128 33.9955 36.1851C33.9955 35.8833 34.0758 35.5975 34.2166 35.3526L30.7029 31.8335C30.3571 32.0623 29.9446 32.1947 29.5 32.1947C28.2921 32.1947 27.3091 31.2101 27.3091 30.0003C27.3091 29.5562 27.4412 29.1419 27.6697 28.7955L24.156 25.2764C23.9103 25.4174 23.6274 25.4978 23.3249 25.4978C22.3986 25.4978 21.6452 24.7432 21.6452 23.8155C21.6452 22.8878 22.3986 22.1333 23.3249 22.1333C24.2511 22.1333 25.0045 22.8878 25.0045 23.8155C25.0045 24.1186 24.9242 24.4018 24.7847 24.648L28.2983 28.1671C28.6441 27.9383 29.0566 27.8059 29.5012 27.8059C30.7091 27.8059 31.6922 28.7906 31.6922 30.0003C31.6922 30.4444 31.56 30.8588 31.3315 31.2051L34.8452 34.7243C35.0897 34.5845 35.375 34.5028 35.6764 34.5028C36.6027 34.5028 37.356 35.2574 37.356 36.1851C37.356 37.1128 36.6014 37.8674 35.6751 37.8674ZM35.6751 35.3935C35.2392 35.3935 34.8847 35.7485 34.8847 36.1851C34.8847 36.6217 35.2392 36.9768 35.6751 36.9768C36.1111 36.9768 36.4656 36.6217 36.4656 36.1851C36.4656 35.7485 36.1111 35.3935 35.6751 35.3935ZM29.5 28.6966C28.7824 28.6966 28.1983 29.2816 28.1983 30.0003C28.1983 30.719 28.7824 31.3041 29.5 31.3041C30.2176 31.3041 30.8017 30.719 30.8017 30.0003C30.8017 29.2816 30.2176 28.6966 29.5 28.6966ZM23.3249 23.0239C22.8889 23.0239 22.5344 23.3789 22.5344 23.8155C22.5344 24.2522 22.8889 24.6072 23.3249 24.6072C23.7608 24.6072 24.1153 24.2522 24.1153 23.8155C24.1153 23.3789 23.7608 23.0239 23.3249 23.0239ZM33.52 31.5527L32.8902 30.9231L38.0427 25.7637C38.6182 25.1861 38.9356 24.4204 38.9356 23.604C38.9356 21.9205 37.5697 20.5499 35.8876 20.5499C35.0737 20.5499 34.308 20.8678 33.7324 21.4443L31.05 24.1297L30.4213 23.5001L33.1026 20.8147C33.8473 20.07 34.8341 19.6593 35.8876 19.6593C38.0588 19.6593 39.8249 21.4282 39.8249 23.6028C39.8249 24.6554 39.4148 25.6462 38.6713 26.3909L33.52 31.5527ZM23.0112 29.0775L20.3299 26.3921C19.5864 25.6475 19.1764 24.6579 19.1764 23.604C19.1764 21.4294 20.9425 19.6606 23.1137 19.6606C24.1659 19.6606 25.1539 20.0712 25.8974 20.8159L32.285 27.2122L31.6551 27.8418L25.2688 21.4455C24.6933 20.8691 23.9275 20.5512 23.1124 20.5512C21.4315 20.5512 20.0631 21.9205 20.0631 23.6052C20.0631 24.4216 20.3805 25.1873 20.9561 25.765L23.6373 28.4504L23.0112 29.0775Z" fill="white" stroke="white"/>
<rect x="1" y="1" width="58" height="58" rx="29" stroke="#6606EF" stroke-width="2"/>
</svg>
