<svg width="45" height="45" viewBox="0 0 45 45" fill="none" xmlns="http://www.w3.org/2000/svg">
<path d="M36.1915 16.9163C35.8254 17.0457 35.6334 17.4474 35.7629 17.8135C36.2935 19.3151 36.5625 20.8919 36.5625 22.5C36.5625 30.2542 30.2541 36.5625 22.5 36.5625C14.7459 36.5625 8.4375 30.2542 8.4375 22.5C8.4375 14.7458 14.7459 8.4375 22.5 8.4375C25.8356 8.4375 29.0697 9.62596 31.6065 11.784C31.9023 12.0355 32.346 11.9998 32.5977 11.704C32.8493 11.4083 32.8135 10.9645 32.5177 10.7129C29.7269 8.33871 26.1692 7.03125 22.5 7.03125C13.9705 7.03125 7.03125 13.9705 7.03125 22.5C7.03125 31.0295 13.9705 37.9688 22.5 37.9688C31.0295 37.9688 37.9688 31.0295 37.9688 22.5C37.9688 20.7318 37.6726 18.9974 37.0888 17.345C36.9594 16.9789 36.5578 16.7868 36.1915 16.9163Z" fill="#F8BC3B"/>
<path d="M34.4806 15.1317C34.6134 15.3473 34.8438 15.4661 35.0798 15.4661C35.2057 15.4661 35.333 15.4322 35.4481 15.3615C35.7786 15.1577 35.8814 14.7245 35.6776 14.394C35.3656 13.8877 35.0204 13.394 34.6517 12.9266C34.4111 12.6217 33.969 12.5695 33.6641 12.8102C33.3592 13.0507 33.3071 13.4928 33.5476 13.7976C33.883 14.2226 34.1968 14.6715 34.4806 15.1317Z" fill="#F8BC3B"/>
<path d="M42.1875 18.2812H41.0104C40.5359 16.1852 39.7179 14.2096 38.5728 12.3934L39.4043 11.5619C40.5009 10.4653 40.5009 8.68113 39.4043 7.58443L37.4156 5.59564C36.319 4.4993 34.5347 4.49921 33.4381 5.59564L32.6066 6.42718C30.7905 5.28205 28.8149 4.46414 26.7188 3.98962V2.8125C26.7188 1.26167 25.4571 0 23.9062 0H21.0938C19.5429 0 18.2812 1.26167 18.2812 2.8125V3.98962C16.1851 4.46423 14.2095 5.28205 12.3934 6.42718L11.5619 5.59564C10.4654 4.4993 8.68104 4.49921 7.58443 5.59564L5.59573 7.58452C4.49912 8.68113 4.49912 10.4653 5.59573 11.562L6.42718 12.3934C5.28205 14.2097 4.46414 16.1853 3.98962 18.2812H2.8125C1.26167 18.2812 0 19.5429 0 21.0938V23.9062C0 25.4571 1.26167 26.7188 2.8125 26.7188H3.98962C4.46414 28.8148 5.28205 30.7903 6.42718 32.6065L5.59573 33.4381C4.49912 34.5347 4.49912 36.3189 5.59573 37.4156L7.58443 39.4044C8.68096 40.5008 10.4652 40.5011 11.5619 39.4043L12.3934 38.5727C14.2096 39.7179 16.1851 40.5359 18.2812 41.0103V42.1875C18.2812 43.7383 19.5428 45 21.0937 45H23.9062C25.457 45 26.7187 43.7383 26.7187 42.1875V41.0103C28.8146 40.5359 30.7902 39.7179 32.6065 38.5728L33.4379 39.4044C34.5344 40.5008 36.3188 40.501 37.4154 39.4044L39.4041 37.4155C40.5007 36.3189 40.5007 34.5347 39.4041 33.438L38.5726 32.6066C39.7178 30.7904 40.5357 28.8148 41.0102 26.7188H42.1875C43.7383 26.7188 45 25.4571 45 23.9062V21.0938C45 19.5429 43.7383 18.2812 42.1875 18.2812ZM43.5938 23.9062C43.5938 24.6816 42.9629 25.3125 42.1875 25.3125H40.44C40.1035 25.3125 39.8142 25.5509 39.7499 25.8812C39.2992 28.1938 38.404 30.3559 37.0892 32.3077C36.9012 32.5868 36.9373 32.9599 37.1752 33.1978L38.4099 34.4325C38.9581 34.9807 38.9581 35.8729 38.4099 36.4212L36.4212 38.41C35.8728 38.9582 34.9807 38.9582 34.4324 38.41L33.1977 37.1752C32.9599 36.9374 32.5866 36.9013 32.3077 37.0892C30.3558 38.4041 28.1936 39.2992 25.8812 39.7498C25.5509 39.8141 25.3125 40.1034 25.3125 40.44V42.1875C25.3125 42.9629 24.6816 43.5938 23.9062 43.5938H21.0938C20.3184 43.5938 19.6875 42.9629 19.6875 42.1875V40.4399C19.6875 40.1034 19.4491 39.8141 19.1188 39.7497C16.8064 39.2991 14.6442 38.4039 12.6924 37.0891C12.5728 37.0085 12.4359 36.9692 12.2998 36.9692C12.1184 36.9692 11.9383 37.0392 11.8023 37.1752L10.5676 38.41C10.0193 38.9582 9.12718 38.9582 8.57883 38.41L6.59013 36.4212C6.04187 35.8729 6.04187 34.9807 6.59013 34.4325L7.8249 33.1977C8.06282 32.9598 8.09886 32.5867 7.91086 32.3076C6.5961 30.3558 5.70085 28.1936 5.25023 25.8812C5.1859 25.5509 4.89656 25.3125 4.56012 25.3125H2.8125C2.03713 25.3125 1.40625 24.6816 1.40625 23.9062V21.0938C1.40625 20.3184 2.03713 19.6875 2.8125 19.6875H4.56003C4.89647 19.6875 5.18581 19.4491 5.25015 19.1188C5.70076 16.8064 6.59593 14.6442 7.91077 12.6923C8.09877 12.4132 8.06265 12.0401 7.82473 11.8022L6.59004 10.5675C6.04178 10.0193 6.04178 9.12709 6.59004 8.57883L8.57883 6.59004C9.12718 6.04187 10.0193 6.04169 10.5676 6.59004L11.8023 7.82481C12.0402 8.06265 12.4133 8.09877 12.6923 7.91077C14.6439 6.59602 16.8061 5.70085 19.1188 5.25023C19.4491 5.1859 19.6875 4.89656 19.6875 4.56003V2.8125C19.6875 2.03713 20.3184 1.40625 21.0938 1.40625H23.9062C24.6816 1.40625 25.3125 2.03713 25.3125 2.8125V4.56003C25.3125 4.89647 25.5509 5.18581 25.8812 5.25023C28.1938 5.70094 30.356 6.5961 32.3077 7.91077C32.5867 8.09877 32.9598 8.06273 33.1977 7.82481L34.4324 6.59004C34.9807 6.04187 35.8728 6.04169 36.4212 6.59004L38.4099 8.57883C38.9581 9.12709 38.9581 10.0193 38.4099 10.5675L37.1752 11.8022C36.9373 12.0401 36.9012 12.4132 37.0892 12.6923C38.4041 14.6441 39.2992 16.8064 39.7498 19.1188C39.8141 19.4491 40.1034 19.6875 40.44 19.6875H42.1875C42.9629 19.6875 43.5938 20.3184 43.5938 21.0938V23.9062Z" fill="#F8BC3B"/>
<path d="M18.5324 25.9174L15.9125 26.5977C15.9082 26.5989 15.9038 26.6 15.8995 26.6013C14.2319 27.0685 13.3594 28.7033 13.3594 30.0768V30.8363C13.3594 31.6674 14.0868 32.3437 14.9811 32.3437L22.4886 32.3429C22.494 32.343 22.4992 32.3437 22.5047 32.3437C22.5101 32.3437 22.5154 32.343 22.5208 32.3429L30.0284 32.3421C30.9226 32.3421 31.65 31.6659 31.65 30.8347V30.0752C31.65 28.7017 30.7775 27.0668 29.1099 26.5997C29.1056 26.5984 29.1013 26.5973 29.097 26.5962L26.4771 25.9158C26.255 25.8504 26.0795 25.7354 26.0416 25.6753L26.0399 24.2503C26.0421 24.2476 26.0444 24.2453 26.0466 24.2427C26.9449 23.169 27.4396 21.7778 27.4396 20.3254V19.2641C28.3358 16.3445 27.7043 13.8131 27.3801 13.0764C27.3791 13.0739 27.3777 13.0717 27.3765 13.0693C27.3703 13.0555 27.3633 13.0421 27.3563 13.0289C27.3523 13.0213 27.3484 13.0135 27.344 13.0061C27.3372 12.9944 27.3298 12.9832 27.3224 12.972C27.3168 12.9634 27.3112 12.9547 27.3052 12.9464C27.2988 12.9375 27.2918 12.9292 27.285 12.9206C27.2773 12.9109 27.2696 12.901 27.2614 12.8918C27.2556 12.8852 27.2493 12.8792 27.2432 12.8729C27.2334 12.8626 27.2236 12.8524 27.2132 12.8429C27.2075 12.8376 27.2014 12.8327 27.1956 12.8277C27.1844 12.8181 27.1732 12.8084 27.1615 12.7995C27.1547 12.7943 27.1476 12.7898 27.1406 12.7849C27.1294 12.777 27.1182 12.769 27.1065 12.7618C27.0975 12.7562 27.088 12.7513 27.0787 12.7461C27.0686 12.7406 27.0588 12.7347 27.0485 12.7296C27.0369 12.7239 27.025 12.7188 27.013 12.7137C27.0045 12.7101 26.996 12.7061 26.9873 12.7028C26.9743 12.6977 26.9609 12.6936 26.9475 12.6894C26.9394 12.6869 26.9314 12.6839 26.9233 12.6817C26.9103 12.6781 26.8971 12.6754 26.8838 12.6725C26.8746 12.6706 26.8655 12.6683 26.8562 12.6667C26.8446 12.6648 26.8328 12.6635 26.8211 12.6621C26.8096 12.6607 26.7982 12.6591 26.7866 12.6583C26.777 12.6576 26.7674 12.6576 26.7578 12.6573C26.7436 12.6569 26.7296 12.6565 26.7153 12.657C26.7075 12.6571 26.6996 12.6579 26.6918 12.6585C26.6759 12.6594 26.66 12.6607 26.6442 12.6629C26.6418 12.6631 26.6395 12.6631 26.6371 12.6635C25.9596 12.7604 25.1329 12.5624 24.2579 12.353C22.7101 11.9822 20.9643 11.5653 19.4349 12.668C17.9561 12.795 16.9075 14.0378 16.9075 15.7176C16.9075 16.9391 17.4743 19.1208 17.6042 19.6049V20.1921C17.6042 21.7081 18.1288 23.1094 18.9699 24.1548L18.9679 25.6771C18.9301 25.7369 18.7545 25.852 18.5324 25.9174ZM19.0104 19.9517C19.0104 19.2528 19.3061 18.2308 19.5272 17.5843C22.713 17.6574 25.1168 18.4225 26.0334 18.7617V19.1519C26.0334 19.154 26.0334 19.1562 26.0334 19.1583V20.3252C26.0334 21.5647 25.5673 22.7002 24.8402 23.4861C24.8382 23.488 24.8365 23.49 24.8346 23.4919C24.2096 24.1648 23.3928 24.5799 22.5126 24.5799C20.6469 24.5799 19.0105 22.5294 19.0105 20.1917V19.9517H19.0104ZM20.3745 25.3851C21.0248 25.7685 21.7516 25.9863 22.5125 25.9863C23.2594 25.9863 23.9802 25.7929 24.635 25.4269L24.6354 25.6846C24.6354 26.0333 24.7611 26.3256 24.9562 26.5647L22.5077 28.0098L20.0694 26.5468C20.2553 26.3115 20.3741 26.0258 20.3741 25.6871L20.3745 25.3851ZM14.981 30.9374C14.8374 30.9374 14.7656 30.8555 14.7656 30.8363V30.0768C14.7656 29.235 15.2834 28.2376 16.2731 27.957L18.6552 27.3384L21.8016 29.2262V30.9366L14.981 30.9374ZM30.2438 30.0751V30.8346C30.2438 30.8539 30.172 30.9358 30.0283 30.9358L23.2078 30.9365V29.2294L26.3964 27.3475L28.7365 27.9553C29.7262 28.2361 30.2438 29.2333 30.2438 30.0751ZM19.6868 14.0624C19.689 14.0624 19.6911 14.0622 19.6933 14.0621C19.7143 14.0619 19.7352 14.0609 19.7561 14.0589C19.763 14.0583 19.7696 14.057 19.7764 14.0561C19.7924 14.0541 19.8084 14.052 19.8244 14.0488C19.833 14.0471 19.8414 14.0448 19.8499 14.0426C19.8637 14.0394 19.8774 14.0362 19.8911 14.0321C19.9005 14.0293 19.9094 14.0258 19.9187 14.0225C19.9311 14.0182 19.9435 14.014 19.9558 14.0089C19.9656 14.0049 19.9749 14.0001 19.9844 13.9957C19.9956 13.9904 20.0069 13.9854 20.0179 13.9795C20.0286 13.9738 20.0388 13.9673 20.0491 13.9611C20.0583 13.9556 20.0678 13.9503 20.0769 13.9442C20.09 13.9354 20.1023 13.9258 20.1148 13.9163C20.1204 13.912 20.1263 13.9083 20.1317 13.9038C21.1663 13.0584 22.5089 13.38 23.9304 13.7202C24.6955 13.9034 25.4813 14.0911 26.2441 14.0939C26.4275 14.7713 26.6077 15.9716 26.4141 17.4013C25.2697 16.9844 22.5845 16.1717 19.0378 16.1717C19.0363 16.1717 19.0348 16.1719 19.0333 16.1719C19.016 16.172 18.9988 16.1731 18.9816 16.1745C18.9751 16.1751 18.9684 16.1752 18.9619 16.1759C18.9473 16.1775 18.9329 16.1801 18.9185 16.1825C18.9095 16.1841 18.9004 16.1852 18.8917 16.1871C18.881 16.1894 18.8706 16.1925 18.8602 16.1952C18.8481 16.1983 18.836 16.2012 18.8242 16.2048C18.8173 16.207 18.8106 16.2099 18.8038 16.2123C18.7892 16.2175 18.7744 16.2226 18.7602 16.2288C18.7548 16.231 18.7496 16.2339 18.7443 16.2364C18.7293 16.2433 18.7143 16.2503 18.6999 16.2582C18.6916 16.2627 18.6838 16.268 18.6758 16.2729C18.6648 16.2795 18.6536 16.2858 18.6431 16.293C18.6297 16.3021 18.617 16.3121 18.6042 16.3221C18.5995 16.3258 18.5945 16.3291 18.5899 16.333C18.5751 16.3452 18.5609 16.3584 18.5471 16.3719C18.5449 16.374 18.5425 16.3761 18.5403 16.3783C18.5278 16.3907 18.5161 16.4041 18.5045 16.4176C18.5012 16.4214 18.4976 16.4249 18.4945 16.4288C18.4855 16.4397 18.4773 16.4513 18.469 16.4629C18.4636 16.4702 18.458 16.4773 18.453 16.4849C18.4472 16.4937 18.442 16.5029 18.4366 16.5119C18.4298 16.5231 18.4228 16.5343 18.4167 16.546C18.413 16.5529 18.4098 16.5603 18.4064 16.5674C18.4018 16.5766 18.3971 16.5858 18.393 16.5953C18.3444 16.2636 18.3138 15.9589 18.3138 15.7175C18.3137 14.954 18.6732 14.0624 19.6868 14.0624Z" fill="#F8BC3B"/>
</svg>
