<svg width="60" height="60" viewBox="0 0 60 60" fill="none" xmlns="http://www.w3.org/2000/svg">
<rect x="1" y="1" width="58" height="58" rx="29" fill="white"/>
<path d="M34.3786 46.7472C28.3725 46.2403 21.5056 43.9941 16.0093 40.7365L14.3793 39.7711C14.6219 39.2047 14.7624 38.6125 14.8993 38.0359C14.9399 37.863 14.9812 37.6907 15.0242 37.5201C15.1504 37.027 15.2902 36.2232 15.4522 35.2936C15.6853 33.9549 15.9752 32.2889 16.2371 31.6192L19.8175 22.4649C19.8958 22.2652 19.967 22.0499 20.0399 21.8299C20.2336 21.2419 20.4344 20.6331 20.8098 20.3039C21.0214 20.1179 21.297 19.9796 21.563 19.8573C21.594 19.8436 21.6233 19.8269 21.6502 19.8078L28.7353 14.3953C29.0904 14.1228 29.5829 14.1263 29.9332 14.4072L33.4862 17.2426C33.7109 17.4221 33.8436 17.6898 33.8496 17.9772C33.8556 18.2646 33.7354 18.5377 33.5184 18.7273L31.2518 20.7053C30.8668 21.041 30.2858 21.0201 29.9254 20.6617C29.7186 20.4554 29.617 20.1716 29.6457 19.8812C29.6749 19.5914 29.831 19.332 30.0742 19.1704L30.2751 19.0362L29.611 18.0452L29.4107 18.1788C28.8686 18.5389 28.5207 19.1167 28.4561 19.7637C28.3916 20.4107 28.6193 21.0451 29.0802 21.5049C29.8842 22.3075 31.1842 22.3504 32.0384 21.6033L33.9446 19.9396L34.531 20.8174L30.9499 23.8799L26.6719 23.3462C26.737 23.0409 26.8117 22.7374 26.899 22.4369L25.7514 22.1048C25.3503 23.4816 25.165 24.9061 25.1978 26.3402C25.2158 27.11 25.2983 27.8769 25.3784 28.6187C25.4716 29.4904 25.5601 30.3139 25.5547 31.1481C25.5386 33.646 24.5684 35.9781 22.9599 37.3848L23.7477 38.2816C24.8864 37.2858 25.7298 35.9423 26.2295 34.4057C26.4101 34.3455 26.6396 34.3496 26.8649 34.3687C27.6498 34.4385 28.4119 34.6532 29.1274 34.9746C28.8357 35.4421 28.5978 35.9412 28.4209 36.4671L29.5542 36.8469C29.7084 36.3884 29.92 35.9543 30.18 35.5482C30.1944 35.5577 30.2099 35.5649 30.2237 35.5744L30.7969 34.7402C31.9231 33.482 33.5824 32.6049 35.5125 32.3169C38.4026 31.8846 41.0895 32.8732 42.5366 34.8911L43.5091 34.197C42.909 33.3604 42.1307 32.6764 41.2329 32.1577C42.9646 30.72 45.4709 30.2024 47.6079 30.943L48 29.8166C45.3054 28.8804 42.1158 29.6377 40.0673 31.6019C38.6447 31.0611 37.0152 30.8858 35.3362 31.1374C33.1012 31.4701 31.1753 32.5041 29.8644 33.9919C28.9594 33.55 27.9774 33.2715 26.9696 33.1815C26.8375 33.1696 26.6958 33.1642 26.5511 33.1654C26.6755 32.5172 26.7454 31.8458 26.7496 31.1565C26.7556 30.2537 26.6593 29.3581 26.5661 28.4917C26.489 27.7743 26.4095 27.0325 26.3927 26.3122C26.3784 25.7135 26.4119 25.1166 26.4812 24.5245L31.0635 25.0958C31.0898 25.0976 31.1149 25.0993 31.1394 25.0993C31.2811 25.0993 31.4198 25.0487 31.528 24.9556L35.7122 21.3779C35.9423 21.1817 35.9883 20.8454 35.821 20.5949L34.7725 19.0255C34.9512 18.6987 35.054 18.3332 35.0457 17.9504C35.0319 17.3088 34.7349 16.7107 34.2333 16.31L30.681 13.4746C29.8991 12.8509 28.7992 12.8413 28.0066 13.4495L21.2384 18.6445L21.0172 18.7953C20.6974 18.9438 20.334 19.1334 20.0214 19.4077C19.4021 19.9509 19.1373 20.7506 18.9048 21.4566C18.8396 21.6551 18.7751 21.8501 18.7045 22.0314L15.1241 31.1857C14.8186 31.9669 14.5418 33.5548 14.2747 35.0896C14.1234 35.9573 13.9812 36.7772 13.8664 37.2262C13.821 37.4033 13.7785 37.5822 13.7361 37.761C13.5687 38.4682 13.4103 39.1355 13.0804 39.7032C12.9166 39.9858 13.011 40.3478 13.292 40.5141L15.3978 41.7622C21.0423 45.1068 28.0999 47.4144 34.2776 47.9356C34.7564 47.9762 35.3595 48 36.0481 48C39.4845 48 45.028 47.4001 47.6581 45.2374L46.8984 44.3173C44.1822 46.551 37.4032 47.0012 34.3786 46.7472Z" fill="#89AA5A" stroke="#89AA5A"/>
<path d="M41.75 13H44.25C44.25 15.0675 45.9325 16.75 48 16.75V19.25C45.9325 19.25 44.25 20.9325 44.25 23H41.75C41.75 20.9325 40.0675 19.25 38 19.25V16.75C40.0675 16.75 41.75 15.0675 41.75 13ZM43 19.2888C43.365 18.7975 43.7975 18.365 44.2888 18C43.7975 17.635 43.365 17.2025 43 16.7112C42.635 17.2025 42.2025 17.635 41.7113 18C42.2025 18.365 42.635 18.7975 43 19.2888Z" fill="#B2DB7E"/>
<rect x="1" y="1" width="58" height="58" rx="29" stroke="#89AA5A" stroke-width="2"/>
</svg>
