<svg width="60" height="60" viewBox="0 0 60 60" fill="none" xmlns="http://www.w3.org/2000/svg">
<rect x="1" y="1" width="58" height="58" rx="29" fill="#FF9408"/>
<rect width="41" height="41" transform="translate(9 9)" fill="#FF9408"/>
<path d="M48.7105 42.4851L41.3464 35.121L42.5321 33.9353L41.597 33.0002L40.4113 34.1859L38.762 32.5366C40.0218 30.2625 40.7419 27.6497 40.7419 24.871C40.7419 16.1201 33.6218 9 24.871 9C16.1201 9 9 16.1201 9 24.871C9 33.6218 16.1201 40.7419 24.871 40.7419C27.6497 40.7419 30.2625 40.0218 32.5366 38.762L34.1859 40.4113L33.0002 41.597L33.9353 42.5321L35.121 41.3464L42.4851 48.7105C43.317 49.5424 44.422 50 45.5978 50C48.0254 50 50 48.0254 50 45.5978C50 44.4214 49.5424 43.317 48.7105 42.4851ZM13.5722 34.0212C11.542 31.5202 10.3226 28.3361 10.3226 24.871C10.3226 16.8489 16.8489 10.3226 24.871 10.3226C32.8931 10.3226 39.4194 16.8489 39.4194 24.871C39.4194 28.3361 38.1999 31.5202 36.1704 34.0219C35.892 33.6655 35.5759 33.3428 35.2274 33.0604C37.0784 30.7254 38.0968 27.8554 38.0968 24.871C38.0968 17.7965 32.5095 12.0188 25.5184 11.6782C25.3874 11.667 25.2558 11.663 25.1236 11.6584C25.0389 11.6564 24.9563 11.6452 24.871 11.6452C24.8366 11.6452 24.8035 11.6498 24.7691 11.6505C24.5575 11.6524 24.3452 11.6637 24.1323 11.6829C17.1835 12.0697 11.6452 17.8276 11.6452 24.871C11.6452 27.8554 12.6635 30.7254 14.5152 33.0597C14.166 33.3428 13.8506 33.6648 13.5722 34.0212ZM24.871 20.9032C21.3536 20.9032 19.8518 20.3001 19.8412 20.2955L18.9194 19.9007V22.4381C18.3844 21.3265 18.1602 20.076 18.301 18.8169C18.6244 15.9178 20.9429 13.4928 23.8142 13.0497C23.9637 13.0266 24.1125 13.0114 24.2613 12.9988C24.4061 12.9915 24.5496 12.979 24.6957 12.9763C24.865 12.9724 25.033 12.975 25.2003 12.9843C25.2744 12.9863 25.3471 12.9922 25.4212 12.9955C27.6695 13.1893 29.6997 14.5112 30.7558 16.5751L30.9403 16.9355H31.3443C31.7861 16.9355 32.1452 17.2946 32.1452 17.7363V20.2419C32.1452 21.6068 31.6637 22.9241 30.8219 23.9729L30.8186 19.9159L29.9047 20.2935C29.8902 20.3001 28.3884 20.9032 24.871 20.9032ZM29.5 21.7854V24.871C29.5 27.4229 27.4229 29.5 24.871 29.5C22.319 29.5 20.2419 27.4229 20.2419 24.871V21.7854C21.1062 21.9871 22.6074 22.2258 24.871 22.2258C27.1346 22.2258 28.6357 21.9871 29.5 21.7854ZM16.9864 18.6694C16.7358 20.9085 17.4447 23.1238 18.9194 24.8035V24.871C18.9194 26.628 19.6891 28.2045 20.9032 29.2943V30.9575L16.9203 31.8773C16.4713 31.9805 16.0421 32.1399 15.6354 32.3402C13.9167 30.2208 12.9677 27.6001 12.9677 24.871C12.9677 20.6242 15.2102 16.9004 18.5662 14.7929C17.7158 15.9065 17.1458 17.2377 16.9864 18.6694ZM21.4534 32.1881L23.805 33.5987L22.329 35.0747L20.5448 32.3978L21.4534 32.1881ZM22.2258 31.1096V30.1944C23.024 30.5925 23.92 30.8226 24.871 30.8226C25.8219 30.8226 26.718 30.5931 27.5161 30.1944V31.1089L24.871 32.696L22.2258 31.1096ZM28.2885 32.1881L29.1978 32.3978L27.4136 35.0747L25.9376 33.5987L28.2885 32.1881ZM28.8387 30.9575V29.2943C29.8055 28.4267 30.486 27.251 30.7241 25.9198C32.4421 24.5483 33.4677 22.446 33.4677 20.2419V17.7363C33.4677 16.708 32.733 15.8483 31.761 15.6539C31.591 15.3557 31.3999 15.0753 31.1962 14.8061C34.541 16.9156 36.7742 20.6334 36.7742 24.871C36.7742 27.6001 35.8252 30.2208 34.1065 32.3402C33.6999 32.1399 33.2707 31.9812 32.8217 31.8773L28.8387 30.9575ZM24.871 39.4194C20.7954 39.4194 17.1087 37.7331 14.4649 35.0238C15.1183 34.0907 16.0983 33.4241 17.2172 33.1662L19.1667 32.7165L22.1233 37.1511L24.871 34.4028L27.6186 37.1505L30.5753 32.7159L32.5247 33.1655C33.643 33.4234 34.6237 34.0907 35.277 35.0231C32.6332 37.7331 28.9465 39.4194 24.871 39.4194ZM33.6985 38.0531C35.4172 36.8985 36.8992 35.4166 38.0538 33.6979L39.4762 35.1203L35.121 39.4762L33.6985 38.0531ZM36.056 40.4113L40.4113 36.056L41.7907 37.4355L37.4355 41.7907L36.056 40.4113ZM45.5978 48.6774C44.7751 48.6774 44.0021 48.3574 43.4202 47.7754L38.3706 42.7258L42.7258 38.3706L47.7754 43.4202C48.3574 44.0021 48.6774 44.7751 48.6774 45.5978C48.6774 47.296 47.296 48.6774 45.5978 48.6774Z" fill="white"/>
<rect x="1" y="1" width="58" height="58" rx="29" stroke="#FF9408" stroke-width="2"/>
</svg>
