<svg width="60" height="60" viewBox="0 0 60 60" fill="none" xmlns="http://www.w3.org/2000/svg">
<rect x="1" y="1" width="58" height="58" rx="29" fill="#89AA5A"/>
<path d="M25.9427 13.0013C25.9404 13.0013 25.9382 13.0013 25.9359 13.0013C24.2577 13.0013 22.87 13.9595 22.2456 15.5263H21.6987C21.6953 15.5263 21.6919 15.5263 21.6885 15.5263C20.2404 15.5263 18.8652 16.0629 17.8171 17.0401C16.7051 18.0754 16.0921 19.5033 16.0898 21.0575C16.0887 22.3137 16.6891 23.705 17.2577 24.5812C14.7249 25.5534 13.0034 27.9055 13 30.5C12.9966 33.0831 14.717 35.4365 17.2542 36.4175C16.6777 37.2912 16.0648 38.6749 16.0636 39.9097C16.0602 42.9726 18.5872 45.4686 21.6999 45.4749H22.2467C22.8654 47.0379 24.2565 47.9975 25.9427 48C25.945 48 25.9473 48 25.9507 48C28.1974 48 29.7686 46.2564 29.772 43.7579V17.2434C29.7743 14.7499 28.2008 13.0051 25.9427 13.0013ZM25.9427 34.4644C25.5405 34.4644 25.2135 34.102 25.2135 33.6563C25.2135 33.2107 25.5405 32.8483 25.9427 32.8483C26.3449 32.8483 26.6719 33.2107 26.6719 33.6563C26.6719 34.102 26.3449 34.4644 25.9427 34.4644ZM28.9505 28.1517H26.3529V20.1535C27.008 19.9528 27.4922 19.2937 27.4922 18.5059C27.4922 17.559 26.7972 16.7889 25.9427 16.7889C25.0882 16.7889 24.3932 17.559 24.3932 18.5059C24.3932 19.295 24.8774 19.9528 25.5326 20.1535V28.1517H23.6641C23.6629 28.1517 23.6629 28.1517 23.6618 28.1517C22.7526 28.1517 22.1157 28.8574 22.1146 29.8687V30.6768H19.4543C19.2731 29.9508 18.6784 29.4142 17.9675 29.4142C17.113 29.4142 16.418 30.1844 16.418 31.1313C16.418 32.0782 17.113 32.8483 17.9675 32.8483C18.6795 32.8483 19.2743 32.3105 19.4543 31.5858H22.1146V38.9514C21.4595 39.1522 20.9753 39.8112 20.9753 40.6003C20.9753 41.5472 21.6702 42.3173 22.5247 42.3173C23.3792 42.3173 24.0742 41.5472 24.0742 40.6003C24.0742 39.8112 23.59 39.1522 22.9349 38.9514V29.8687C22.936 29.3625 23.2072 29.0594 23.6629 29.0594H23.6641H28.9505V43.7541C28.9471 45.5923 27.916 46.8599 26.3529 47.0493V35.3039C27.008 35.1032 27.4922 34.4442 27.4922 33.6551C27.4922 32.7082 26.7972 31.938 25.9427 31.938C25.0882 31.938 24.3932 32.7082 24.3932 33.6551C24.3932 34.4442 24.8774 35.1032 25.5326 35.3039V47.0582C24.2759 46.9142 23.3097 46.1213 22.9121 44.8677C22.854 44.6858 22.6991 44.5646 22.5247 44.5646H21.6999C19.3802 44.5609 16.8805 42.7807 16.8828 39.9109C16.8851 38.6913 17.6963 37.122 18.2568 36.5034C18.3617 36.3885 18.4015 36.2193 18.3628 36.0615C18.3241 35.9037 18.2124 35.7812 18.07 35.7408C15.5646 35.0262 13.8169 32.871 13.8203 30.5C13.8237 28.1315 15.5544 25.989 18.0301 25.2718H21.0379C21.2191 25.9978 21.8138 26.5344 22.5247 26.5344C23.3792 26.5344 24.0742 25.7642 24.0742 24.8173C24.0742 23.8704 23.3792 23.1015 22.5247 23.1015C21.8127 23.1015 21.2191 23.6381 21.0379 24.3641H18.152C17.6086 23.681 16.9079 22.2291 16.909 21.0588C16.9113 19.776 17.4206 18.5968 18.3457 17.7358C19.2332 16.9088 20.4523 16.4354 21.6908 16.4354C21.693 16.4354 21.6965 16.4354 21.6999 16.4354H22.5247C22.6979 16.4354 22.8529 16.3142 22.911 16.1336C23.3576 14.741 24.4878 13.9103 25.9359 13.9103C25.9382 13.9103 25.9393 13.9103 25.9416 13.9103C27.7451 13.9141 28.9539 15.2524 28.9505 17.2434V28.1517ZM25.9427 19.3139C25.5405 19.3139 25.2135 18.9516 25.2135 18.5059C25.2135 18.0602 25.5405 17.6979 25.9427 17.6979C26.3449 17.6979 26.6719 18.0602 26.6719 18.5059C26.6719 18.9516 26.3449 19.3139 25.9427 19.3139ZM22.5247 39.7923C22.9269 39.7923 23.2539 40.1546 23.2539 40.6003C23.2539 41.046 22.9269 41.4083 22.5247 41.4083C22.1226 41.4083 21.7956 41.046 21.7956 40.6003C21.7956 40.1546 22.1226 39.7923 22.5247 39.7923ZM18.6966 31.1313C18.6966 31.5769 18.3696 31.9393 17.9675 31.9393C17.5653 31.9393 17.2383 31.5769 17.2383 31.1313C17.2383 30.6856 17.5653 30.3232 17.9675 30.3232C18.3696 30.3232 18.6966 30.6856 18.6966 31.1313ZM21.7956 24.8186C21.7956 24.3729 22.1226 24.0106 22.5247 24.0106C22.9269 24.0106 23.2539 24.3729 23.2539 24.8186C23.2539 25.2643 22.9269 25.6266 22.5247 25.6266C22.1226 25.6266 21.7956 25.2643 21.7956 24.8186ZM48 30.5C48.0023 27.9169 46.2819 25.5647 43.7458 24.5825C44.3234 23.7088 44.9352 22.3251 44.9375 21.0891C44.9398 19.5349 44.3223 18.1032 43.1989 17.0578C42.1541 16.0856 40.7345 15.5276 39.3013 15.5251H38.7544C38.1346 13.9621 36.7446 13.0025 35.0596 13C35.0562 13 35.0539 13 35.0505 13C33.943 13 32.9906 13.4078 32.2956 14.1779C31.5994 14.9519 31.2314 16.0099 31.2292 17.2434V43.7554C31.2257 46.2501 32.7992 47.9937 35.0562 47.9987C35.0596 47.9987 35.0618 47.9987 35.0641 47.9987C36.7423 47.9987 38.1289 47.0392 38.7533 45.4737H39.299C39.3035 45.4737 39.307 45.4737 39.3104 45.4737C40.7585 45.4737 42.1336 44.9358 43.1818 43.9599C44.2949 42.9246 44.9079 41.4979 44.9102 39.9425C44.9113 38.6863 44.3109 37.2937 43.7423 36.4188C46.2762 35.4466 47.9966 33.0945 48 30.5ZM35.0573 26.5356C35.4595 26.5356 35.7865 26.898 35.7865 27.3437C35.7865 27.7893 35.4595 28.1517 35.0573 28.1517C34.6551 28.1517 34.3281 27.7893 34.3281 27.3437C34.3281 26.898 34.6551 26.5356 35.0573 26.5356ZM42.971 35.7269H39.9621C39.7809 35.0009 39.1862 34.4644 38.4741 34.4644C37.6196 34.4644 36.9246 35.2345 36.9246 36.1814C36.9246 37.1283 37.6196 37.8985 38.4741 37.8985C39.1851 37.8985 39.7809 37.3619 39.9621 36.6359H42.848C43.3903 37.319 44.091 38.7709 44.0887 39.9412C44.0876 41.224 43.5783 42.4032 42.6532 43.263C41.7633 44.0925 40.5283 44.5381 39.3001 44.5634H38.4753C38.3021 44.5634 38.1471 44.6858 38.089 44.8651C37.6413 46.259 36.5111 47.0885 35.0641 47.0885C35.0618 47.0885 35.0596 47.0885 35.0584 47.0885C34.1686 47.0872 33.4121 46.7703 32.8721 46.1731C32.332 45.5759 32.0472 44.7414 32.0495 43.7566V32.8483H34.646V40.8452C33.9909 41.046 33.5067 41.705 33.5067 42.4941C33.5067 43.441 34.2017 44.2111 35.0562 44.2111C35.9106 44.2111 36.6056 43.441 36.6056 42.4941C36.6056 41.7063 36.1214 41.046 35.4663 40.8452V32.8483H37.3337C37.3348 32.8483 37.3359 32.8483 37.3371 32.8483C38.2474 32.8483 38.882 32.1426 38.8843 31.1313V30.3232H41.5435C41.7246 31.0492 42.3193 31.5858 43.0314 31.5858C43.8859 31.5858 44.5809 30.8156 44.5809 29.8687C44.5809 28.9218 43.8859 28.1517 43.0314 28.1517C42.3193 28.1517 41.7246 28.6883 41.5435 29.4142H38.8854V22.0473C39.5405 21.8466 40.0247 21.1875 40.0247 20.3997C40.0247 19.4528 39.3298 18.6827 38.4753 18.6827C37.6208 18.6827 36.9258 19.4528 36.9258 20.3997C36.9258 21.1875 37.41 21.8466 38.0651 22.0473V31.1313C38.0651 31.6375 37.7939 31.9406 37.3382 31.9406C37.3371 31.9406 37.3371 31.9406 37.3359 31.9406H32.0495V17.2434C32.0506 16.2573 32.3366 15.419 32.8755 14.8218C33.3278 14.3193 33.9385 14.0302 34.6471 13.9469V25.6948C33.992 25.8955 33.5078 26.5546 33.5078 27.3424C33.5078 28.2893 34.2028 29.0594 35.0573 29.0594C35.9118 29.0594 36.6068 28.2893 36.6068 27.3424C36.6068 26.5546 36.1226 25.8955 35.4674 25.6948V13.9406C36.7241 14.0858 37.6903 14.8774 38.0879 16.1323C38.146 16.3142 38.3021 16.4354 38.4753 16.4354H39.3001C40.5443 16.4366 41.7725 16.9189 42.6714 17.7547C43.6056 18.6246 44.1195 19.8076 44.1172 21.0891C44.116 22.3087 43.3037 23.878 42.7443 24.4966C42.6395 24.6115 42.5996 24.7807 42.6372 24.9385C42.6759 25.0964 42.7887 25.2188 42.9311 25.2592C45.4354 25.9751 47.1831 28.1302 47.1797 30.5C47.1774 32.866 45.4479 35.0072 42.971 35.7269ZM39.2044 36.1814C39.2044 36.6271 38.8774 36.9894 38.4753 36.9894C38.0731 36.9894 37.7461 36.6271 37.7461 36.1814C37.7461 35.7357 38.0731 35.3734 38.4753 35.3734C38.8774 35.3734 39.2044 35.7357 39.2044 36.1814ZM35.0573 41.6861C35.4595 41.6861 35.7865 42.0484 35.7865 42.4941C35.7865 42.9398 35.4595 43.3021 35.0573 43.3021C34.6551 43.3021 34.3281 42.9398 34.3281 42.4941C34.3281 42.0484 34.6551 41.6861 35.0573 41.6861ZM38.4753 21.2077C38.0731 21.2077 37.7461 20.8454 37.7461 20.3997C37.7461 19.954 38.0731 19.5917 38.4753 19.5917C38.8774 19.5917 39.2044 19.954 39.2044 20.3997C39.2044 20.8454 38.8774 21.2077 38.4753 21.2077ZM42.3034 29.8687C42.3034 29.4231 42.6304 29.0607 43.0325 29.0607C43.4347 29.0607 43.7617 29.4231 43.7617 29.8687C43.7617 30.3144 43.4347 30.6768 43.0325 30.6768C42.6304 30.6768 42.3034 30.3144 42.3034 29.8687Z" fill="white" stroke="white"/>
<rect x="1" y="1" width="58" height="58" rx="29" stroke="#89AA5A" stroke-width="2"/>
</svg>
