<svg width="60" height="60" viewBox="0 0 60 60" fill="none" xmlns="http://www.w3.org/2000/svg">
<rect x="1" y="1" width="58" height="58" rx="29" fill="#FA7355"/>
<path d="M43.4648 15.1372C43.4648 15.4543 43.2242 15.7117 42.9277 15.7117C42.6313 15.7117 42.3906 15.4543 42.3906 15.1372C42.3906 14.8201 42.6313 14.5627 42.9277 14.5627C43.2242 14.5627 43.4648 14.8201 43.4648 15.1372ZM40.7793 14.5627C40.4828 14.5627 40.2422 14.8201 40.2422 15.1372C40.2422 15.4543 40.4828 15.7117 40.7793 15.7117C41.0758 15.7117 41.3164 15.4543 41.3164 15.1372C41.3164 14.8201 41.0758 14.5627 40.7793 14.5627ZM38.6309 14.5627C38.3344 14.5627 38.0938 14.8201 38.0938 15.1372C38.0938 15.4543 38.3344 15.7117 38.6309 15.7117C38.9273 15.7117 39.168 15.4543 39.168 15.1372C39.168 14.8201 38.9273 14.5627 38.6309 14.5627ZM45.6133 13H13.3867C13.1729 13 13 13.185 13 13.4136V45.5863C13 45.815 13.1729 46 13.3867 46H45.6133C45.8271 46 46 45.815 46 45.5863V13.4136C46 13.185 45.8271 13 45.6133 13ZM45.2266 13.8273V16.4471H13.7734V13.8273H45.2266ZM13.7734 45.1727V17.2744H45.2266V45.1727H13.7734ZM27.3516 34.5097C27.286 34.5097 27.2205 34.4914 27.1614 34.4557C27.04 34.3822 26.9648 34.2455 26.9648 34.0961V27.2019C26.9648 27.0526 27.04 26.9147 27.1614 26.8423C27.2828 26.7711 27.4311 26.7711 27.5503 26.848L32.9214 30.2951C33.0374 30.3698 33.1094 30.5042 33.1094 30.6502C33.1094 30.7949 33.0385 30.9294 32.9214 31.0052L27.5503 34.4523C27.4891 34.4902 27.4203 34.5097 27.3516 34.5097ZM27.7383 27.9327V33.3665L31.9707 30.649L27.7383 27.9327ZM29.5 37.9568C25.7327 37.9568 22.668 34.6775 22.668 30.649C22.668 26.6205 25.7327 23.3412 29.5 23.3412C33.2673 23.3412 36.332 26.6194 36.332 30.649C36.332 34.6787 33.2673 37.9568 29.5 37.9568ZM29.5 24.1685C26.1592 24.1685 23.4414 27.0756 23.4414 30.649C23.4414 34.2225 26.1592 37.1295 29.5 37.1295C32.8408 37.1295 35.5586 34.2236 35.5586 30.649C35.5586 27.0756 32.8408 24.1685 29.5 24.1685ZM29.8867 19.1588H29.1133V21.4568H29.8867V19.1588ZM29.8867 39.8412H29.1133V42.1393H29.8867V39.8412ZM20.9062 30.2354H18.7578V31.0627H20.9062V30.2354ZM40.2422 30.2354H38.0938V31.0627H40.2422V30.2354ZM23.6971 23.8571L22.177 22.2313L21.6303 22.8161L23.1503 24.442L23.6971 23.8571ZM37.3697 38.4808L35.8508 36.8561L35.3029 37.4421L36.8219 39.0668L37.3697 38.4808ZM23.6971 37.4421L23.1503 36.8561L21.6303 38.4808L22.177 39.0668L23.6971 37.4421ZM37.3697 22.8161L36.8219 22.2313L35.3029 23.8571L35.8508 24.442L37.3697 22.8161Z" fill="white" stroke="white"/>
<rect x="1" y="1" width="58" height="58" rx="29" stroke="#FA7355" stroke-width="2"/>
</svg>
