<svg width="60" height="60" viewBox="0 0 60 60" fill="none" xmlns="http://www.w3.org/2000/svg">
<rect x="1" y="1" width="58" height="58" rx="29" fill="#F7BB3C"/>
<path d="M15 15V45H45V15H15ZM44 43.9831H16V16.0169H44V43.9831Z" fill="white" stroke="white"/>
<path d="M22.5 24.6609C23.8785 24.6609 25 23.5204 25 22.1185C25 20.7167 23.8785 19.5762 22.5 19.5762C21.1215 19.5762 20 20.7167 20 22.1185C20 23.5204 21.1215 24.6609 22.5 24.6609ZM22.5 20.5931C23.327 20.5931 24 21.2775 24 22.1185C24 22.9596 23.327 23.644 22.5 23.644C21.673 23.644 21 22.9596 21 22.1185C21 21.2775 21.673 20.5931 22.5 20.5931Z" fill="white" stroke="white"/>
<path d="M22.5 32.7967C23.8785 32.7967 25 31.6562 25 30.2543C25 28.8524 23.8785 27.7119 22.5 27.7119C21.1215 27.7119 20 28.8524 20 30.2543C20 31.6562 21.1215 32.7967 22.5 32.7967ZM22.5 28.7289C23.327 28.7289 24 29.4133 24 30.2543C24 31.0953 23.327 31.7797 22.5 31.7797C21.673 31.7797 21 31.0953 21 30.2543C21 29.4133 21.673 28.7289 22.5 28.7289Z" fill="white" stroke="white"/>
<path d="M22.5 40.9324C23.8785 40.9324 25 39.7919 25 38.39C25 36.9882 23.8785 35.8477 22.5 35.8477C21.1215 35.8477 20 36.9882 20 38.39C20 39.7919 21.1215 40.9324 22.5 40.9324ZM22.5 36.8646C23.327 36.8646 24 37.549 24 38.39C24 39.231 23.327 39.9155 22.5 39.9155C21.673 39.9155 21 39.231 21 38.39C21 37.549 21.673 36.8646 22.5 36.8646Z" fill="white" stroke="white"/>
<path d="M27.5 22.6273H39C39.276 22.6273 39.5 22.4 39.5 22.1188C39.5 21.8376 39.276 21.6104 39 21.6104H27.5C27.224 21.6104 27 21.8376 27 22.1188C27 22.4 27.224 22.6273 27.5 22.6273Z" fill="white" stroke="white"/>
<path d="M27.5 30.7626H39C39.276 30.7626 39.5 30.5353 39.5 30.2541C39.5 29.9729 39.276 29.7456 39 29.7456H27.5C27.224 29.7456 27 29.9729 27 30.2541C27 30.5353 27.224 30.7626 27.5 30.7626Z" fill="white" stroke="white"/>
<path d="M27.5 38.8983H39C39.276 38.8983 39.5 38.671 39.5 38.3898C39.5 38.1086 39.276 37.8813 39 37.8813H27.5C27.224 37.8813 27 38.1086 27 38.3898C27 38.671 27.224 38.8983 27.5 38.8983Z" fill="white" stroke="white"/>
<rect x="1" y="1" width="58" height="58" rx="29" stroke="#F7BB3C" stroke-width="2"/>
</svg>
