<svg width="60" height="60" viewBox="0 0 60 60" fill="none" xmlns="http://www.w3.org/2000/svg">
<rect x="1" y="1" width="58" height="58" rx="29" fill="#6606EF"/>
<path d="M42.6822 46.5712H43.1822V46.0712V40.3419C43.1822 34.5057 39.6706 29.3989 34.427 27.3098C36.3957 25.7423 37.5921 23.3301 37.5921 20.7338C37.5921 16.1189 33.8728 12.3569 29.2893 12.3569C24.7059 12.3569 20.9866 16.1189 20.9866 20.7338C20.9866 23.3309 22.1828 25.7431 24.1514 27.3099C18.908 29.3991 15.3965 34.5069 15.3965 40.3419V46.0712V46.5712H15.8965H16.6767H17.1767V46.0712V40.3419C17.1767 34.6416 21.0074 29.7507 26.4891 28.4397C26.8638 28.351 27.1351 28.0307 27.1694 27.6527L27.1694 27.6524C27.2034 27.2755 26.9977 26.9127 26.6473 26.7546L26.6467 26.7543C24.293 25.6967 22.7689 23.3347 22.7689 20.7349C22.7689 17.0977 25.6995 14.1457 29.2915 14.1457C32.8824 14.1457 35.813 17.0976 35.813 20.7349C35.813 23.3337 34.2899 25.6967 31.9353 26.7543L31.9346 26.7546C31.5871 26.9114 31.3765 27.273 31.4127 27.6541C31.4477 28.0342 31.7208 28.3496 32.0907 28.4392L32.0921 28.4395C37.571 29.7502 41.402 34.6413 41.402 40.3419V46.0712V46.5712H41.902H42.6822ZM34.2551 37.95L34.6037 37.5981L34.2552 37.2462L33.7025 36.6883L33.3473 36.3296L32.992 36.6883L28.2057 41.5218L26.6691 39.9703L26.3135 39.6113L25.9583 39.9707L25.4067 40.5286L25.0589 40.8805L25.4072 41.232L27.8506 43.698L28.2058 44.0564L28.561 43.6979L34.2551 37.95Z" fill="white" stroke="white"/>
<rect x="1" y="1" width="58" height="58" rx="29" stroke="#6606EF" stroke-width="2"/>
</svg>
