<svg width="60" height="60" viewBox="0 0 60 60" fill="none" xmlns="http://www.w3.org/2000/svg">
<rect x="1" y="1" width="58" height="58" rx="29" fill="white"/>
<path d="M45.2504 46.1167L45.3857 46.4032H45.7025H46.5V46.5H13.5V46.4032H14.2986H14.6146L14.7502 46.1178L25.034 24.4677H29.4516H29.9516V23.9677V13.5H30.0484V14.0968V14.5968H30.5484H41.5876L40.5655 17.1526L40.4734 17.3829L40.601 17.5955L42.1499 20.1774H30.5484H30.0484V20.6774V23.9677V24.4677H30.5484H31.1257L32.1802 26.4007L32.3223 26.6613H32.6191H36.0631L38.5579 31.9442L38.8612 32.5866L39.3636 32.0843L41.0943 30.3536L41.4478 30L41.0943 29.6464L39.7543 28.3065H45.4032V33.9554L44.0632 32.6154L43.7097 32.2619L43.3561 32.6154L40.561 35.4105L40.3122 35.6594L40.4624 35.9776L45.2504 46.1167ZM30.5484 14.6935H30.0484V15.1935V19.5806V20.0806H30.5484H41.0961H41.9792L41.5248 19.3234L40.3654 17.3913L41.1704 15.3793L41.4447 14.6935H40.7062H30.5484ZM41.5844 30L35.2097 36.3748L31.7245 32.8896L31.371 32.5361L31.0174 32.8896L21.6477 42.2593L21.2941 42.6129L21.6477 42.9665L23.0658 44.3846L23.4194 44.7381L23.7729 44.3846L31.0968 37.0607L34.5819 40.5459L34.9355 40.8994L35.289 40.5459L43.7097 32.1252L44.4529 32.8685L45.3064 33.722V32.5149V28.9032V28.4032H44.8065H41.1948H39.9877L40.8412 29.2568L41.5844 30ZM15.0611 45.6887L14.7217 46.4032H15.5127H44.4895H45.2785L44.9416 45.6897L40.543 36.3743L40.2397 35.7319L39.7373 36.2342L34.9355 41.0361L31.4503 37.5509L31.0968 37.1973L30.7432 37.5509L23.4194 44.8748L21.1575 42.6129L31.371 32.3994L34.8561 35.8846L35.2097 36.2381L35.5632 35.8846L38.5393 32.9085L38.7882 32.6597L38.6379 32.3414L36.1367 27.0446L36.0014 26.7581H35.6846H33.2168H32.3745L32.7779 27.4975L34.1902 30.0862L34.1051 30.1327L31.21 24.8251L31.0678 24.5645H30.771H25.4111H25.0951L24.9595 24.85L15.0611 45.6887Z" fill="#0EDDC9" stroke="#6606EF"/>
<path d="M32.1455 17.984V17.8872H32.2423V17.984H32.1455Z" fill="#6606EF" stroke="#6606EF"/>
<path d="M34.3389 17.984V17.8872H34.4356V17.984H34.3389Z" fill="#6606EF" stroke="#6606EF"/>
<path d="M36.5322 17.984V17.8872H36.629V17.984H36.5322Z" fill="#6606EF" stroke="#6606EF"/>
<rect x="1" y="1" width="58" height="58" rx="29" stroke="#6606EF" stroke-width="2"/>
</svg>
