<svg width="60" height="60" viewBox="0 0 60 60" fill="none" xmlns="http://www.w3.org/2000/svg">
<rect x="1" y="1" width="58" height="58" rx="29" fill="#0EDDC9"/>
<path d="M32.7392 25.7414C33.8888 25.7414 34.8242 24.6415 34.8242 23.2892C34.8242 21.9369 33.8889 20.8369 32.7392 20.8369C31.5896 20.8369 30.6543 21.9369 30.6543 23.2892C30.6543 24.6415 31.5896 25.7414 32.7392 25.7414ZM32.7392 22.0645C33.3134 22.0645 33.7807 22.6139 33.7807 23.2893C33.7807 23.9647 33.3135 24.5142 32.7392 24.5142C32.1651 24.5142 31.6979 23.9647 31.6979 23.2893C31.6979 22.6139 32.1651 22.0645 32.7392 22.0645Z" fill="white" stroke="white"/>
<path d="M42.4061 27.6847H40.3958V17.227C40.3958 14.8962 38.7837 13 36.802 13H16.5938C14.6122 12.9999 13 14.8962 13 17.227V29.3428C13 31.6736 14.6122 33.5698 16.5938 33.5698H16.5989C16.3091 34.573 15.8629 35.5134 15.2888 36.3236C14.8419 36.9543 14.811 37.8298 15.2117 38.502C15.5059 38.9956 15.9671 39.2693 16.4514 39.2692C16.6266 39.2692 16.8047 39.2334 16.9791 39.1593C19.2757 38.1828 21.1673 36.1581 22.2165 33.5697H26.9745V37.8835C26.9745 40.2143 28.5867 42.1105 30.5683 42.1105H39.4416C40.1847 43.8696 41.4878 45.2434 43.0627 45.913C43.2007 45.9717 43.3416 46 43.4802 46C43.8632 46 44.2281 45.7835 44.4608 45.3931C44.7778 44.8613 44.7532 44.1688 44.3997 43.6699C44.0283 43.1456 43.7383 42.5399 43.5471 41.8937C44.9978 41.3296 46 39.7379 46 37.8834V31.9116C45.9999 29.5808 44.3877 27.6847 42.4061 27.6847ZM26.9744 32.3424H21.8803C21.672 32.3424 21.4838 32.488 21.4012 32.713C20.5006 35.1684 18.7595 37.0973 16.6243 38.005C16.3026 38.1421 16.1157 37.8806 16.0662 37.7975C16.0165 37.7142 15.8716 37.4184 16.0906 37.1094C16.9091 35.9541 17.5002 34.5674 17.8 33.0995C17.8373 32.9167 17.8014 32.7238 17.7024 32.5762C17.6035 32.4285 17.4525 32.3424 17.2926 32.3424H16.5938C15.1876 32.3424 14.0436 30.9968 14.0436 29.3428V17.227C14.0436 15.573 15.1876 14.2274 16.5938 14.2274H36.802C38.2082 14.2274 39.3523 15.573 39.3523 17.227V27.6846H30.5683C28.5866 27.6846 26.9744 29.5808 26.9744 31.9116V32.3424ZM42.8129 40.8448C42.6701 40.8716 42.5432 40.9671 42.4625 41.1084C42.3818 41.2496 42.3545 41.4238 42.3872 41.5896C42.5943 42.6391 43.0131 43.6302 43.598 44.4558C43.651 44.5306 43.6537 44.6089 43.6062 44.6886C43.5587 44.7683 43.495 44.7919 43.4173 44.7588C42.0032 44.1576 40.8501 42.8801 40.2535 41.2538C40.1709 41.0289 39.9826 40.8832 39.7744 40.8832H30.5683C29.162 40.8832 28.018 39.5376 28.018 37.8836V31.9116C28.018 30.2577 29.162 28.9121 30.5683 28.9121H42.406C43.8123 28.9121 44.9563 30.2577 44.9563 31.9116V37.8835H44.9564C44.9564 39.3654 44.0549 40.6107 42.8129 40.8448Z" fill="white" stroke="white"/>
<path d="M28.7832 23.2897C28.7832 21.9375 27.8479 20.8374 26.6982 20.8374C25.5486 20.8374 24.6133 21.9374 24.6133 23.2897C24.6133 24.6419 25.5485 25.7419 26.6982 25.7419C27.8479 25.7419 28.7832 24.6418 28.7832 23.2897ZM26.6983 24.5144C26.1242 24.5144 25.657 23.9649 25.657 23.2895C25.657 22.6142 26.1241 22.0647 26.6983 22.0647C27.2725 22.0647 27.7398 22.6141 27.7398 23.2895C27.7397 23.9649 27.2725 24.5144 26.6983 24.5144Z" fill="white" stroke="white"/>
<path d="M20.6562 20.8374C19.5066 20.8374 18.5713 21.9374 18.5713 23.2897C18.5713 24.6419 19.5065 25.7419 20.6562 25.7419C21.8059 25.7419 22.7412 24.6419 22.7412 23.2897C22.7412 21.9374 21.8058 20.8374 20.6562 20.8374ZM20.6562 24.5144C20.0821 24.5144 19.6148 23.9649 19.6148 23.2895C19.6148 22.6142 20.082 22.0647 20.6562 22.0647C21.2304 22.0647 21.6976 22.6141 21.6976 23.2895C21.6976 23.9649 21.2304 24.5144 20.6562 24.5144Z" fill="white" stroke="white"/>
<rect x="1" y="1" width="58" height="58" rx="29" stroke="#0EDDC9" stroke-width="2"/>
</svg>
