<svg width="45" height="45" viewBox="0 0 45 45" fill="none" xmlns="http://www.w3.org/2000/svg">
<path d="M44.1847 37.9301H41.8336V35.8667C41.8336 35.4167 41.4683 35.0514 41.0183 35.0514H39.4343V13.9786H41.0183C41.4683 13.9786 41.8336 13.6133 41.8336 13.1633V11.0999H43.1298C43.5798 11.0999 43.9451 10.7346 43.9451 10.2847V6.06241C43.9451 2.07743 29.9169 1.0249 22.4995 1.0249C15.0822 1.0249 1.05493 2.07818 1.05493 6.06241V10.2847C1.05493 10.7346 1.42021 11.0999 1.87018 11.0999H3.16568V13.1633C3.16568 13.6133 3.53096 13.9786 3.98093 13.9786H5.56497V35.0522H3.98168C3.53171 35.0522 3.16643 35.4175 3.16643 35.8675V37.9308H0.815252C0.365282 37.9308 0 38.2961 0 38.7461V40.9531C0 42.6758 2.23306 43.9753 5.19399 43.9753H39.8059C42.7669 43.9753 44.9998 42.6767 44.9998 40.9531V38.7453C45 38.2954 44.6347 37.9301 44.1847 37.9301ZM33.6769 34.7212V13.9883H37.8038V34.7212H33.6769ZM32.0463 35.0514H30.6067V13.9786H32.0463V35.0514ZM16.0231 13.9883H20.15V34.7212H16.0231V13.9883ZM21.7805 13.9786H23.2195V35.0522H21.7805C21.7805 35.0523 21.7805 13.9786 21.7805 13.9786ZM28.9769 34.7212H24.85V13.9883H28.9769V34.7212ZM2.68543 9.46851V6.06151C2.68543 5.36767 7.85739 2.65451 22.4995 2.65451C37.1425 2.65451 42.3144 5.36857 42.3144 6.06151V9.46851H41.0182H3.98168H2.68543ZM4.79693 12.348V11.0999H40.2038V12.348H4.79693ZM11.3224 13.9883V34.7212H7.19547V13.9883H11.3224ZM12.9529 13.9786H14.3926V35.0522H12.9529V13.9786ZM4.79693 36.682H40.2029V37.9301H4.79693V36.682ZM43.3695 40.9523C43.3695 41.5059 41.9485 42.3439 39.806 42.3439H5.19399C3.05146 42.3439 1.6305 41.5066 1.6305 40.9523V39.5606H3.98168H41.0182H43.3693V40.9523H43.3695Z" fill="#FA7355"/>
</svg>
