<svg width="45" height="45" viewBox="0 0 45 45" fill="none" xmlns="http://www.w3.org/2000/svg">
<path d="M42.5027 37.41L35.1677 27C36.3596 24.788 36.9556 22.3039 36.8969 19.7919C36.8383 17.2799 36.1271 14.8264 34.8332 12.6724C33.5393 10.5185 31.7073 8.73821 29.5172 7.50658C27.327 6.27495 24.8541 5.63432 22.3415 5.64767C19.8288 5.66101 17.3628 6.32785 15.1859 7.58267C13.009 8.83749 11.196 10.6371 9.92503 12.8047C8.6541 14.9723 7.969 17.4332 7.93703 19.9457C7.90506 22.4582 8.52733 24.9358 9.74269 27.135L2.49769 37.41C2.36607 37.5935 2.28785 37.8098 2.27169 38.0351C2.25553 38.2603 2.30207 38.4856 2.40616 38.686C2.51024 38.8864 2.66779 39.0541 2.86135 39.1704C3.0549 39.2867 3.27689 39.3471 3.50269 39.345H41.4977C41.7235 39.3471 41.9455 39.2867 42.139 39.1704C42.3326 39.0541 42.4901 38.8864 42.5942 38.686C42.6983 38.4856 42.7449 38.2603 42.7287 38.0351C42.7125 37.8098 42.6343 37.5935 42.5027 37.41ZM12.5027 25.7325L15.2027 29.565L14.0027 31.2675L13.0277 30.2925C12.8899 30.1557 12.7043 30.0778 12.5102 30.075C12.316 30.0778 12.1305 30.1557 11.9927 30.2925L10.0202 32.25L8.77519 31.0275L12.5027 25.7325ZM26.4377 14.4825L25.8227 15.3075C25.7306 15.4352 25.681 15.5887 25.681 15.7462C25.681 15.9037 25.7306 16.0572 25.8227 16.185L26.4377 17.01H23.1527V14.475L26.4377 14.4825ZM22.4102 21.8775L26.6777 27.9375L25.2152 29.4L23.0102 27.195C22.8707 27.062 22.6854 26.9878 22.4927 26.9878C22.3 26.9878 22.1147 27.062 21.9752 27.195L19.8977 29.25L18.3152 27.6675L22.4102 21.8775ZM17.4527 28.9125L19.3727 30.8325C19.5122 30.9655 19.6975 31.0396 19.8902 31.0396C20.0829 31.0396 20.2682 30.9655 20.4077 30.8325L22.5002 28.74L24.7052 30.945C24.8447 31.078 25.03 31.1521 25.2227 31.1521C25.4154 31.1521 25.6007 31.078 25.7402 30.945L27.5402 29.1375L33.7052 37.8825H11.1377L17.4527 28.9125ZM29.7002 29.6625L32.4827 25.7175L36.2327 31.0125L34.9802 32.25L33.0002 30.2925C32.8624 30.1557 32.6768 30.0778 32.4827 30.075C32.2885 30.0778 32.103 30.1557 31.9652 30.2925L30.9002 31.365L29.7002 29.6625ZM9.39769 20.1375C9.39722 18.1879 9.83457 16.2632 10.6774 14.5052C11.5203 12.7473 12.7472 11.2011 14.2676 9.98076C15.7879 8.7604 17.5629 7.89704 19.4615 7.4544C21.3602 7.01176 23.334 7.00114 25.2372 7.42333C27.1405 7.84551 28.9247 8.68972 30.4581 9.89365C31.9915 11.0976 33.2349 12.6305 34.0967 14.3792C34.9584 16.128 35.4165 18.0479 35.437 19.9974C35.4575 21.9468 35.0399 23.876 34.2152 25.6425L33.4652 24.615C33.346 24.4622 33.1935 24.3387 33.0193 24.2537C32.8452 24.1688 32.654 24.1246 32.4602 24.1246C32.2664 24.1246 32.0752 24.1688 31.9011 24.2537C31.7269 24.3387 31.5744 24.4622 31.4552 24.615L28.7852 28.4025L23.4227 20.7525C23.348 20.6526 23.2566 20.5664 23.1527 20.4975V18.465H27.9077C28.0414 18.4599 28.1713 18.4191 28.2839 18.3469C28.3966 18.2747 28.4878 18.1737 28.5483 18.0544C28.6087 17.935 28.6361 17.8016 28.6277 17.6681C28.6192 17.5346 28.5752 17.4058 28.5002 17.295L27.3227 15.75L28.5002 14.1825C28.5749 14.0722 28.619 13.9441 28.6278 13.8111C28.6366 13.6782 28.6098 13.5454 28.5502 13.4262C28.4907 13.3071 28.4004 13.2059 28.2888 13.1332C28.1772 13.0605 28.0482 13.0188 27.9152 13.0125H22.4177C22.2188 13.0125 22.028 13.0915 21.8874 13.2322C21.7467 13.3728 21.6677 13.5636 21.6677 13.7625V20.5125C21.5598 20.5791 21.4656 20.6656 21.3902 20.7675L16.0802 28.2675L13.5002 24.615C13.381 24.4622 13.2285 24.3387 13.0543 24.2537C12.8802 24.1688 12.689 24.1246 12.4952 24.1246C12.3014 24.1246 12.1102 24.1688 11.9361 24.2537C11.7619 24.3387 11.6094 24.4622 11.4902 24.615L10.6727 25.77C9.83166 24.0115 9.39596 22.0867 9.39769 20.1375ZM7.92769 32.25L9.50269 33.825C9.64217 33.958 9.82749 34.0321 10.0202 34.0321C10.2129 34.0321 10.3982 33.958 10.5377 33.825L12.5177 31.8525L13.1552 32.49L9.68269 37.4175C9.58552 37.5597 9.5191 37.7206 9.48769 37.89H3.94519L7.92769 32.25ZM35.3477 37.89C35.319 37.7211 35.2551 37.5601 35.1602 37.4175L31.7552 32.5875L32.5052 31.8375L34.5002 33.8175C34.6397 33.9505 34.825 34.0246 35.0177 34.0246C35.2104 34.0246 35.3957 33.9505 35.5352 33.8175L37.1102 32.2425L41.0927 37.8825L35.3477 37.89Z" fill="#FA7355"/>
</svg>
