<svg width="241" height="273" viewBox="0 0 241 273" fill="none" xmlns="http://www.w3.org/2000/svg">
<g clip-path="url(#clip0_1013_2113)">
<g filter="url(#filter0_d_1013_2113)">
<path d="M232.926 187.86C217.037 174.775 204.807 157.96 199.286 145.256C210.872 124.289 214.398 99.7487 209.189 76.3241C203.981 52.8995 190.403 32.2319 171.05 18.2688C151.697 4.30577 127.924 -1.97417 104.273 0.628524C80.6219 3.23122 58.7498 14.5341 42.8342 32.3784C26.9186 50.2226 18.0751 73.3576 17.9928 97.3644C17.9104 121.371 26.595 144.567 42.3878 162.522C58.1805 180.477 79.9746 191.933 103.607 194.701C127.24 197.469 151.055 191.355 170.503 177.527C201.139 189.096 235.221 189.775 232.926 187.86Z" fill="#6606EF"/>
</g>
<path d="M70.4131 65.7052C91.3989 48.3794 123.868 54.1546 127.656 84.9654C130.311 106.355 110.486 167.735 158.421 152.585" stroke="white" stroke-width="1.01708" stroke-miterlimit="10"/>
<path d="M75.6759 72.2055C74.4048 73.2489 72.856 73.8891 71.2247 74.0453C69.5934 74.2014 67.9529 73.8666 66.51 73.0829C65.0672 72.2993 63.8866 71.102 63.1174 69.6421C62.3481 68.1822 62.0246 66.5251 62.1877 64.8799C62.3507 63.2347 62.993 61.675 64.0335 60.3977C65.074 59.1204 66.4661 58.1827 68.0342 57.7029C69.6023 57.2231 71.2761 57.2227 72.8444 57.7017C74.4127 58.1808 75.8053 59.1178 76.8464 60.3945C77.541 61.2463 78.0619 62.2282 78.3791 63.2839C78.6963 64.3395 78.8036 65.448 78.6949 66.5456C78.5861 67.6432 78.2634 68.7083 77.7453 69.6796C77.2272 70.6509 76.5239 71.5093 75.6759 72.2055Z" fill="white"/>
<path d="M160.91 160.593C162.472 160.094 163.853 159.139 164.878 157.849C165.903 156.559 166.527 154.991 166.67 153.344C166.813 151.697 166.47 150.044 165.683 148.593C164.896 147.143 163.701 145.96 162.249 145.194C160.796 144.429 159.152 144.114 157.522 144.29C155.893 144.467 154.352 145.126 153.093 146.186C151.835 147.245 150.916 148.656 150.452 150.242C149.988 151.828 150 153.517 150.486 155.096C150.81 156.149 151.338 157.128 152.038 157.974C152.738 158.821 153.597 159.52 154.566 160.031C155.534 160.542 156.593 160.854 157.682 160.951C158.771 161.047 159.868 160.925 160.91 160.593Z" fill="white"/>
<path d="M148.651 47.1807C152.011 47.1807 154.734 44.4327 154.734 41.0428C154.734 37.6528 152.011 34.9048 148.651 34.9048C145.292 34.9048 142.568 37.6528 142.568 41.0428C142.568 44.4327 145.292 47.1807 148.651 47.1807Z" stroke="white" stroke-width="1.01708" stroke-miterlimit="10"/>
<path d="M0.220601 229.997H4.29426C4.44172 229.997 4.51545 230.09 4.51545 230.22V243.547C17.8055 234.52 24.5243 230.003 24.6718 229.997H32.3675V230.127L16.7917 240.813C21.8976 240.813 26.257 243.16 29.8698 247.853C31.769 250.662 32.737 254.005 32.6347 257.404V272.777C32.6391 272.806 32.6368 272.837 32.6278 272.865C32.6188 272.893 32.6035 272.919 32.5831 272.941C32.5626 272.963 32.5375 272.979 32.5097 272.989C32.4819 273 32.4522 273.003 32.4228 273H28.3675C28.3381 273.003 28.3084 273 28.2806 272.989C28.2528 272.979 28.2277 272.963 28.2072 272.941C28.1867 272.919 28.1714 272.893 28.1625 272.865C28.1535 272.837 28.1512 272.806 28.1556 272.777V256.846C28.1556 251.936 25.6303 248.216 20.5797 245.686C19.1631 245.205 17.686 244.93 16.1926 244.868C12.119 244.868 8.77651 246.808 6.16519 250.689C5.10833 252.405 4.53774 254.38 4.51545 256.4V272.777C4.52018 272.807 4.51771 272.838 4.50827 272.868C4.49882 272.897 4.48266 272.923 4.4611 272.945C4.43954 272.967 4.41319 272.983 4.38419 272.993C4.3552 273.002 4.32438 273.005 4.29426 273H0.220601C0.190476 273.005 0.15966 273.002 0.130666 272.993C0.101673 272.983 0.0753205 272.967 0.0537583 272.945C0.032196 272.923 0.0160337 272.897 0.00658863 272.868C-0.00285647 272.838 -0.00531708 272.807 -0.000592638 272.777V230.22C-0.000592638 230.071 0.0731387 229.997 0.220601 229.997Z" fill="#17171A"/>
<path d="M51.7407 240.813H52.5333C58.1369 240.813 62.7052 243.402 66.2381 248.579C67.8089 251.112 68.6306 254.045 68.6068 257.033C68.6068 262.854 65.8418 267.504 60.312 270.983C58.1414 272.256 55.6886 272.96 53.1785 273.028H50.9573C46.9328 273.028 43.0496 271.048 39.3078 267.086C37.0891 264.299 35.8506 260.848 35.7871 257.274V256.344C35.7871 250.932 38.5828 246.403 44.174 242.757C46.5146 241.531 49.1039 240.866 51.7407 240.813ZM40.3031 256.437V257.47C40.3031 261.301 42.2263 264.572 46.0726 267.281C47.7642 268.249 49.6596 268.797 51.6025 268.881H52.7545C56.7667 268.881 60.1215 266.711 62.8189 262.371C63.5956 260.698 64.0193 258.88 64.0631 257.033V256.902C64.0631 251.899 61.5408 248.179 56.4964 245.742C55.1119 245.253 53.659 244.99 52.1923 244.961C47.025 244.961 43.2463 247.664 40.8561 253.071C40.5306 254.165 40.3448 255.296 40.3031 256.437Z" fill="#17171A"/>
<path d="M87.6567 240.813H88.477C92.8148 240.867 96.961 242.625 100.034 245.715V241.065C100.034 240.916 100.108 240.841 100.256 240.841H104.329C104.477 240.841 104.55 240.916 104.55 241.065V272.805C104.555 272.836 104.553 272.867 104.543 272.896C104.534 272.925 104.518 272.952 104.496 272.974C104.475 272.995 104.448 273.012 104.419 273.021C104.39 273.031 104.359 273.033 104.329 273.028H100.256C100.225 273.033 100.195 273.031 100.166 273.021C100.137 273.012 100.11 272.995 100.089 272.974C100.067 272.952 100.051 272.925 100.042 272.896C100.032 272.867 100.03 272.836 100.034 272.805V268.155C96.526 271.429 92.9009 273.066 89.159 273.066H86.8733C82.8427 273.066 78.9595 271.085 75.2238 267.123C73.0007 264.339 71.7618 260.886 71.7031 257.312V256.382C71.7031 250.969 74.4957 246.44 80.0808 242.794C82.422 241.556 85.0142 240.878 87.6567 240.813ZM76.2192 256.437V257.47C76.2192 261.283 78.1546 264.553 82.0255 267.281C83.7161 268.251 85.6121 268.8 87.5554 268.881H88.7074C92.2219 268.881 95.2941 267.132 97.9238 263.636C99.2944 261.585 100.011 259.161 99.9791 256.688C99.9791 252.144 97.6443 248.56 92.9746 245.938C91.4273 245.305 89.7777 244.964 88.1083 244.933C82.9349 244.933 79.1561 247.637 76.7722 253.043C76.4398 254.145 76.2539 255.286 76.2192 256.437Z" fill="#17171A"/>
<path d="M123.564 240.813H124.348C129.638 240.813 134.05 243.169 137.583 247.881L138.145 248.811L137.924 248.942H132.947C131.803 247.706 130.425 246.716 128.893 246.031C127.362 245.345 125.709 244.978 124.034 244.952C118.861 244.952 115.082 247.655 112.698 253.061C112.363 254.163 112.174 255.304 112.136 256.456V257.488C112.136 261.32 114.056 264.59 117.896 267.3C119.586 268.271 121.483 268.82 123.426 268.899H124.578C127.448 268.899 130.197 267.61 132.827 265.031H137.905C138.053 265.031 138.126 265.124 138.126 265.254C134.366 270.431 129.994 273.019 125.011 273.019H122.772C118.747 273.019 114.864 271.038 111.122 267.077C108.899 264.293 107.66 260.84 107.602 257.265V256.335C107.602 250.923 110.394 246.393 115.979 242.748C118.327 241.524 120.922 240.862 123.564 240.813Z" fill="#17171A"/>
<path d="M141.481 230.036H145.527C145.693 230.036 145.776 230.129 145.776 230.25V245.716C148.927 242.584 153.179 240.842 157.601 240.87C164.077 240.87 168.992 243.93 172.347 250.049C173.474 252.36 174.019 254.915 173.932 257.489V272.825C173.937 272.854 173.934 272.885 173.925 272.913C173.916 272.941 173.901 272.967 173.881 272.989C173.86 273.011 173.835 273.027 173.807 273.037C173.78 273.048 173.75 273.051 173.72 273.048H169.637C169.607 273.053 169.577 273.05 169.548 273.041C169.519 273.031 169.492 273.015 169.471 272.993C169.449 272.971 169.433 272.945 169.423 272.916C169.414 272.886 169.412 272.855 169.416 272.825V256.848C169.416 251.937 166.903 248.217 161.877 245.688C160.457 245.225 158.981 244.962 157.49 244.906C153.398 244.906 150.056 246.835 147.463 250.691C146.403 252.397 145.82 254.36 145.776 256.373V272.751C145.776 272.899 145.693 272.974 145.527 272.974H141.481C141.451 272.978 141.42 272.976 141.391 272.966C141.362 272.957 141.336 272.941 141.314 272.919C141.293 272.897 141.277 272.871 141.267 272.841C141.258 272.812 141.255 272.781 141.26 272.751V230.25C141.26 230.221 141.266 230.192 141.277 230.166C141.288 230.139 141.305 230.115 141.325 230.095C141.346 230.075 141.371 230.06 141.397 230.049C141.424 230.039 141.453 230.035 141.481 230.036Z" fill="#17171A"/>
<path d="M213.452 240.813H214.226C218.572 240.854 222.728 242.614 225.802 245.715V241.065C225.802 240.916 225.876 240.841 226.023 240.841H230.097C230.244 240.841 230.318 240.916 230.318 241.065V272.805C230.323 272.836 230.32 272.867 230.311 272.896C230.301 272.925 230.285 272.952 230.263 272.974C230.242 272.995 230.216 273.012 230.187 273.021C230.158 273.031 230.127 273.033 230.097 273.028H226.023C225.993 273.033 225.962 273.031 225.933 273.021C225.904 273.012 225.878 272.995 225.856 272.974C225.835 272.952 225.818 272.925 225.809 272.896C225.8 272.867 225.797 272.836 225.802 272.805V268.155C222.287 271.429 218.665 273.066 214.936 273.066H212.687C208.656 273.066 204.773 271.085 201.037 267.123C198.819 264.337 197.58 260.885 197.517 257.312V256.382C197.517 250.969 200.309 246.44 205.894 242.794C208.23 241.559 210.816 240.881 213.452 240.813ZM202.014 256.437V257.47C202.014 261.301 203.937 264.572 207.784 267.281C209.473 268.254 211.37 268.802 213.314 268.881H214.466C217.98 268.881 221.052 267.132 223.682 263.636C225.077 261.59 225.817 259.162 225.802 256.679C225.802 252.135 223.467 248.551 218.797 245.928C217.25 245.295 215.601 244.954 213.931 244.924C208.764 244.924 204.985 247.627 202.595 253.034C202.257 254.138 202.062 255.282 202.014 256.437Z" fill="#17171A"/>
<path d="M236.862 229.997H240.816C240.964 230.047 241.037 230.13 241.037 230.248V235.121C241.037 235.289 240.964 235.372 240.816 235.372H236.862C236.715 235.372 236.641 235.289 236.641 235.121V230.248C236.635 230.081 236.709 229.997 236.862 229.997ZM236.862 240.813H240.816C240.964 240.813 241.037 240.887 241.037 241.036V272.777C241.042 272.807 241.04 272.838 241.03 272.868C241.021 272.897 241.004 272.923 240.983 272.945C240.961 272.967 240.935 272.983 240.906 272.993C240.877 273.002 240.846 273.005 240.816 273H236.862C236.832 273.005 236.801 273.002 236.772 272.993C236.743 272.983 236.717 272.967 236.695 272.945C236.674 272.923 236.658 272.897 236.648 272.868C236.639 272.838 236.636 272.807 236.641 272.777V241.036C236.635 240.887 236.709 240.813 236.862 240.813Z" fill="#17171A"/>
<path d="M184.264 267.625H188.227C188.286 267.634 188.34 267.665 188.379 267.711C188.418 267.757 188.439 267.816 188.439 267.877V272.75C188.439 272.917 188.365 273.001 188.227 273.001H184.264C184.125 273.001 184.052 272.917 184.052 272.75V267.839C184.07 267.709 184.144 267.625 184.264 267.625Z" fill="white"/>
<path d="M109.058 83.5245C75.1783 74.8569 50.1742 107.128 66.5978 136.953C85.6758 171.614 139.113 165.838 173.508 94.5914" stroke="#FF9408" stroke-width="1.01708" stroke-miterlimit="10"/>
<path d="M111.095 75.3863C112.679 75.8025 114.106 76.6825 115.195 77.9152C116.285 79.148 116.989 80.6786 117.218 82.3141C117.447 83.9496 117.192 85.617 116.484 87.1064C115.775 88.5957 114.647 89.8403 113.239 90.6835C111.831 91.5267 110.208 91.9307 108.573 91.8448C106.938 91.7588 105.365 91.1867 104.052 90.2005C102.739 89.2143 101.744 87.858 101.194 86.3025C100.643 84.747 100.56 83.0618 100.957 81.4592C101.222 80.3858 101.696 79.3762 102.351 78.4888C103.005 77.6013 103.828 76.8536 104.771 76.2889C105.713 75.7241 106.758 75.3536 107.843 75.1987C108.929 75.0438 110.034 75.1075 111.095 75.3863Z" fill="#FF9408"/>
<path d="M180.937 98.2649C181.65 96.7759 181.909 95.1072 181.683 93.4695C181.457 91.8317 180.755 90.2983 179.666 89.0626C178.577 87.827 177.15 86.9445 175.564 86.5266C173.978 86.1087 172.306 86.174 170.757 86.7144C169.208 87.2548 167.853 88.246 166.862 89.5629C165.871 90.8798 165.288 92.4634 165.188 94.1139C165.088 95.7644 165.475 97.4078 166.3 98.8368C167.124 100.266 168.35 101.416 169.822 102.143C170.804 102.628 171.87 102.912 172.961 102.979C174.052 103.047 175.145 102.896 176.178 102.535C177.211 102.175 178.163 101.612 178.98 100.879C179.797 100.146 180.462 99.258 180.937 98.2649Z" fill="#FF9408"/>
<path d="M150.56 71.4805C150.56 93.075 142.928 123.476 174.356 127.113" stroke="#0EDDC9" stroke-width="1.01708" stroke-miterlimit="10"/>
<path d="M142.246 71.4798C142.246 69.8244 142.733 68.2062 143.644 66.8297C144.555 65.4533 145.851 64.3805 147.367 63.747C148.882 63.1135 150.55 62.9477 152.159 63.2707C153.768 63.5937 155.246 64.3908 156.406 65.5614C157.566 66.7319 158.356 68.2233 158.676 69.8469C158.996 71.4705 158.832 73.1535 158.204 74.6829C157.576 76.2123 156.513 77.5195 155.149 78.4392C153.785 79.3589 152.181 79.8498 150.541 79.8498C148.341 79.8498 146.231 78.9679 144.676 77.3983C143.12 75.8286 142.246 73.6997 142.246 71.4798Z" fill="#0EDDC9"/>
<path d="M173.416 135.446C175.044 135.629 176.69 135.322 178.145 134.562C179.6 133.803 180.8 132.626 181.593 131.18C182.387 129.733 182.738 128.082 182.602 126.435C182.467 124.787 181.851 123.217 180.832 121.923C179.813 120.628 178.437 119.667 176.878 119.16C175.318 118.653 173.645 118.624 172.069 119.076C170.493 119.528 169.085 120.44 168.023 121.698C166.96 122.956 166.29 124.504 166.098 126.146C165.97 127.242 166.058 128.353 166.357 129.414C166.656 130.476 167.16 131.468 167.84 132.332C168.52 133.196 169.363 133.916 170.32 134.451C171.277 134.985 172.329 135.323 173.416 135.446Z" fill="#0EDDC9"/>
</g>
<defs>
<filter id="filter0_d_1013_2113" x="13.9922" y="0.0527344" width="223.044" height="203.299" filterUnits="userSpaceOnUse" color-interpolation-filters="sRGB">
<feFlood flood-opacity="0" result="BackgroundImageFix"/>
<feColorMatrix in="SourceAlpha" type="matrix" values="0 0 0 0 0 0 0 0 0 0 0 0 0 0 0 0 0 0 127 0" result="hardAlpha"/>
<feOffset dy="4"/>
<feGaussianBlur stdDeviation="2"/>
<feComposite in2="hardAlpha" operator="out"/>
<feColorMatrix type="matrix" values="0 0 0 0 0 0 0 0 0 0 0 0 0 0 0 0 0 0 0.25 0"/>
<feBlend mode="normal" in2="BackgroundImageFix" result="effect1_dropShadow_1013_2113"/>
<feBlend mode="normal" in="SourceGraphic" in2="effect1_dropShadow_1013_2113" result="shape"/>
</filter>
<clipPath id="clip0_1013_2113">
<rect width="241" height="273" fill="white"/>
</clipPath>
</defs>
</svg>
