<svg width="60" height="60" viewBox="0 0 60 60" fill="none" xmlns="http://www.w3.org/2000/svg">
<rect x="1" y="1" width="58" height="58" rx="29" fill="white"/>
<g clip-path="url(#clip0_1013_2241)">
<path d="M44.6979 12H38.8524C37.5833 12 36.5508 13.0326 36.5508 14.3017V20.1471C36.5508 21.4163 37.5834 22.4488 38.8524 22.4488H44.6979C45.9671 22.4488 46.9996 21.4162 46.9996 20.1471V14.3017C46.9996 13.0326 45.967 12 44.6979 12ZM45.9036 20.1472C45.9036 20.812 45.3627 21.3529 44.6979 21.3529H38.8524C38.1876 21.3529 37.6468 20.812 37.6468 20.1472V14.3017C37.6468 13.6369 38.1876 13.096 38.8524 13.096H44.6979C45.3627 13.096 45.9036 13.6369 45.9036 14.3017V20.1472Z" fill="#89AA5A"/>
<path d="M45.0862 15.0834C44.8722 14.8693 44.5251 14.8693 44.3112 15.0834L41.1913 18.2032L39.8252 16.8371C39.6111 16.623 39.2641 16.623 39.0502 16.8371C38.8361 17.0511 38.8361 17.3981 39.0502 17.6121L40.8038 19.3657C40.9108 19.4727 41.0511 19.5262 41.1913 19.5262C41.3315 19.5262 41.4717 19.4727 41.5787 19.3657L45.086 15.8584C45.3002 15.6443 45.3002 15.2973 45.0862 15.0834Z" fill="#15BE53"/>
<path d="M44.6979 24.2754H38.8524C37.5833 24.2754 36.5508 25.308 36.5508 26.5771V32.4225C36.5508 33.6917 37.5834 34.7242 38.8524 34.7242H44.6979C45.9671 34.7242 46.9996 33.6916 46.9996 32.4225V26.5771C46.9996 25.308 45.967 24.2754 44.6979 24.2754ZM45.9036 32.4226C45.9036 33.0874 45.3627 33.6283 44.6979 33.6283H38.8524C38.1876 33.6283 37.6468 33.0874 37.6468 32.4226V26.5771C37.6468 25.9123 38.1876 25.3715 38.8524 25.3715H44.6979C45.3627 25.3715 45.9036 25.9123 45.9036 26.5771V32.4226Z" fill="#89AA5A"/>
<path d="M44.6979 36.5513H38.8524C37.5833 36.5513 36.5508 37.5838 36.5508 38.8529V44.6984C36.5508 45.9676 37.5834 47.0001 38.8524 47.0001H44.6979C45.9671 47.0001 46.9996 45.9675 46.9996 44.6984V38.8529C46.9996 37.5838 45.967 36.5513 44.6979 36.5513ZM45.9036 44.6985C45.9036 45.3633 45.3627 45.9041 44.6979 45.9041H38.8524C38.1876 45.9041 37.6468 45.3633 37.6468 44.6985V38.853C37.6468 38.1882 38.1876 37.6473 38.8524 37.6473H44.6979C45.3627 37.6473 45.9036 38.1882 45.9036 38.853V44.6985Z" fill="#89AA5A"/>
<path d="M45.0862 39.6346C44.8722 39.4206 44.5251 39.4206 44.3112 39.6346L41.1913 42.7545L39.8252 41.3883C39.6111 41.1743 39.2641 41.1743 39.0502 41.3883C38.8361 41.6024 38.8361 41.9494 39.0502 42.1633L40.8038 43.9169C40.9108 44.0239 41.0511 44.0775 41.1913 44.0775C41.3315 44.0775 41.4717 44.024 41.5787 43.9169L45.086 40.4096C45.3002 40.1956 45.3002 39.8486 45.0862 39.6346Z" fill="#15BE53"/>
<path d="M24.2391 14.9229H12.548C12.2453 14.9229 12 15.1682 12 15.4708C12 15.7734 12.2453 16.0189 12.548 16.0189H24.2391C24.5417 16.0189 24.7871 15.7735 24.7871 15.4708C24.7871 15.1681 24.5417 14.9229 24.2391 14.9229Z" fill="#89AA5A"/>
<path d="M33.0074 14.9229H26.5773C26.2747 14.9229 26.0293 15.1682 26.0293 15.4709C26.0293 15.7736 26.2746 16.0189 26.5773 16.0189H33.0074C33.31 16.0189 33.5555 15.7736 33.5555 15.4709C33.5555 15.1682 33.31 14.9229 33.0074 14.9229Z" fill="#89AA5A"/>
<path d="M33.0074 18.4302H30.6691C30.3665 18.4302 30.1211 18.6755 30.1211 18.9782C30.1211 19.2809 30.3664 19.5262 30.6691 19.5262H33.0074C33.31 19.5262 33.5554 19.2809 33.5554 18.9782C33.5554 18.6755 33.31 18.4302 33.0074 18.4302Z" fill="#89AA5A"/>
<path d="M17.2244 18.4302H12.548C12.2453 18.4302 12 18.6755 12 18.9781C12 19.2808 12.2453 19.5262 12.548 19.5262H17.2244C17.5271 19.5262 17.7725 19.2808 17.7725 18.9781C17.7725 18.6754 17.5271 18.4302 17.2244 18.4302Z" fill="#89AA5A"/>
<path d="M28.331 18.4302H19.5627C19.2601 18.4302 19.0146 18.6755 19.0146 18.9782C19.0146 19.2809 19.26 19.5262 19.5627 19.5262H28.3309C28.6336 19.5262 28.879 19.2809 28.879 18.9782C28.879 18.6755 28.6336 18.4302 28.331 18.4302Z" fill="#89AA5A"/>
<path d="M24.2391 27.1982H12.548C12.2454 27.1982 12 27.4436 12 27.7463C12 28.049 12.2453 28.2943 12.548 28.2943H24.2391C24.5417 28.2943 24.7871 28.049 24.7871 27.7463C24.7871 27.4436 24.5417 27.1982 24.2391 27.1982Z" fill="#89AA5A"/>
<path d="M33.0074 27.1982H26.5773C26.2747 27.1982 26.0293 27.4436 26.0293 27.7463C26.0293 28.049 26.2746 28.2943 26.5773 28.2943H33.0074C33.31 28.2943 33.5555 28.049 33.5555 27.7463C33.5555 27.4436 33.31 27.1982 33.0074 27.1982Z" fill="#89AA5A"/>
<path d="M33.0074 30.7056H30.6691C30.3665 30.7056 30.1211 30.9509 30.1211 31.2536C30.1211 31.5563 30.3664 31.8016 30.6691 31.8016H33.0074C33.31 31.8016 33.5554 31.5563 33.5554 31.2536C33.5554 30.9509 33.31 30.7056 33.0074 30.7056Z" fill="#89AA5A"/>
<path d="M17.2244 30.7056H12.548C12.2454 30.7056 12 30.9509 12 31.2536C12 31.5563 12.2453 31.8016 12.548 31.8016H17.2244C17.5271 31.8016 17.7725 31.5563 17.7725 31.2536C17.7725 30.9509 17.5271 30.7056 17.2244 30.7056Z" fill="#89AA5A"/>
<path d="M28.331 30.7056H19.5627C19.2601 30.7056 19.0146 30.9509 19.0146 31.2536C19.0146 31.5563 19.26 31.8016 19.5627 31.8016H28.3309C28.6336 31.8016 28.879 31.5563 28.879 31.2536C28.879 30.9509 28.6336 30.7056 28.331 30.7056Z" fill="#89AA5A"/>
<path d="M24.2391 39.4741H12.548C12.2454 39.4741 12 39.7195 12 40.0222C12 40.3248 12.2453 40.5702 12.548 40.5702H24.2391C24.5417 40.5702 24.7871 40.3249 24.7871 40.0222C24.787 39.7195 24.5417 39.4741 24.2391 39.4741Z" fill="#89AA5A"/>
<path d="M33.0074 39.4741H26.5773C26.2747 39.4741 26.0293 39.7195 26.0293 40.0222C26.0293 40.3248 26.2746 40.5702 26.5773 40.5702H33.0074C33.31 40.5702 33.5555 40.3249 33.5555 40.0222C33.5555 39.7195 33.31 39.4741 33.0074 39.4741Z" fill="#89AA5A"/>
<path d="M34.7105 40.0273H32.3723C32.0696 40.0273 31.8242 40.2727 31.8242 40.5754C31.8242 40.878 32.0696 41.1234 32.3723 41.1234H34.7105C35.0131 41.1234 35.2585 40.8781 35.2585 40.5754C35.2585 40.2727 35.0131 40.0273 34.7105 40.0273Z" fill="#89AA5A"/>
<path d="M17.2244 42.9814H12.548C12.2453 42.9814 12 43.2268 12 43.5295C12 43.8321 12.2453 44.0775 12.548 44.0775H17.2244C17.5271 44.0775 17.7725 43.8322 17.7725 43.5295C17.7725 43.2268 17.5271 42.9814 17.2244 42.9814Z" fill="#89AA5A"/>
<path d="M28.331 42.9814H19.5627C19.2601 42.9814 19.0146 43.2268 19.0146 43.5295C19.0146 43.8321 19.26 44.0775 19.5627 44.0775H28.3309C28.6336 44.0775 28.879 43.8322 28.879 43.5295C28.879 43.2268 28.6336 42.9814 28.331 42.9814Z" fill="#89AA5A"/>
<path d="M43.9165 30.8661L42.5503 29.4999L43.9165 28.1338C44.1305 27.9198 44.1305 27.5727 43.9165 27.3588C43.7024 27.1447 43.3554 27.1447 43.1415 27.3588L41.7753 28.7249L40.4091 27.3588C40.1951 27.1447 39.8481 27.1447 39.6342 27.3588C39.4201 27.5728 39.4201 27.9198 39.6342 28.1338L41.0003 29.4999L39.6342 30.8661C39.4201 31.0801 39.4201 31.4271 39.6342 31.6411C39.7411 31.7481 39.8814 31.8016 40.0216 31.8016C40.1618 31.8016 40.3021 31.7481 40.4091 31.6411L41.7752 30.2749L43.1414 31.6411C43.2484 31.7481 43.3887 31.8016 43.5289 31.8016C43.6691 31.8016 43.8093 31.7481 43.9163 31.6411C44.1305 31.427 44.1305 31.08 43.9165 30.8661Z" fill="#FB1D06"/>
</g>
<rect x="1" y="1" width="58" height="58" rx="29" stroke="#89AA5A" stroke-width="2"/>
<defs>
<clipPath id="clip0_1013_2241">
<rect width="35" height="35" fill="white" transform="translate(12 12)"/>
</clipPath>
</defs>
</svg>
