<svg width="47" height="47" viewBox="0 0 47 47" fill="none" xmlns="http://www.w3.org/2000/svg">
<path d="M28.4868 44.3892C20.7646 43.7376 11.9357 40.8496 4.86912 36.6613L2.77334 35.42C3.08536 34.6917 3.26596 33.9304 3.44196 33.1891C3.49422 32.9667 3.54725 32.7452 3.60258 32.5259C3.76474 31.8919 3.94458 30.8584 4.15285 29.6632C4.45257 27.942 4.82531 25.8 5.16192 24.939L9.76541 13.1692C9.86609 12.9123 9.95754 12.6356 10.0513 12.3527C10.3003 11.5967 10.5585 10.814 11.0412 10.3908C11.3132 10.1516 11.6675 9.97372 12.0095 9.81656C12.0495 9.79892 12.0871 9.77746 12.1217 9.75292L21.2311 2.79392C21.6876 2.44355 22.3209 2.44815 22.7712 2.80925L27.3394 6.45474C27.6283 6.6855 27.7989 7.02973 27.8066 7.39927C27.8143 7.7688 27.6598 8.11993 27.3809 8.36373L24.4666 10.9068C23.9717 11.3384 23.2247 11.3115 22.7612 10.8508C22.4953 10.5855 22.3647 10.2206 22.4016 9.84722C22.4392 9.47462 22.6398 9.14112 22.9526 8.93336L23.2108 8.76086L22.357 7.48666L22.0995 7.6584C21.4025 8.12146 20.9552 8.86436 20.8722 9.69619C20.7892 10.528 21.082 11.3437 21.6745 11.9348C22.7082 12.9668 24.3798 13.022 25.478 12.0613L27.9288 9.92235L28.6827 11.0509L24.0785 14.9885L18.5781 14.3023C18.6619 13.9098 18.758 13.5195 18.8702 13.1331L17.3946 12.7061C16.8789 14.4763 16.6407 16.3079 16.6829 18.1517C16.706 19.1415 16.812 20.1274 16.915 21.0811C17.0349 22.202 17.1487 23.2608 17.1417 24.3333C17.121 27.5449 15.8737 30.5433 13.8056 32.3519L14.8185 33.5049C16.2825 32.2246 17.3669 30.4973 18.0094 28.5216C18.2415 28.4442 18.5366 28.4495 18.8264 28.4741C19.8354 28.5638 20.8153 28.8398 21.7352 29.253C21.3602 29.8541 21.0543 30.4958 20.8268 31.172L22.284 31.6603C22.4823 31.0708 22.7543 30.5126 23.0886 29.9905C23.1071 30.0028 23.1271 30.012 23.1447 30.0243L23.8817 28.9517C25.3297 27.334 27.4631 26.2063 29.9447 25.836C33.6605 25.2802 37.115 26.5513 38.9757 29.1457L40.226 28.2533C39.4544 27.1776 38.4538 26.2983 37.2995 25.6313C39.5259 23.7829 42.7484 23.1174 45.4958 24.0696L46 22.6214C42.5355 21.4177 38.4346 22.3914 35.8009 24.9168C33.9718 24.2214 31.8768 23.996 29.718 24.3195C26.8444 24.7473 24.3682 26.0767 22.6828 27.9895C21.5193 27.4214 20.2566 27.0634 18.9609 26.9476C18.791 26.9323 18.6089 26.9254 18.4229 26.9269C18.5827 26.0936 18.6727 25.2303 18.678 24.3441C18.6857 23.1833 18.562 22.0318 18.4421 20.9178C18.343 19.9955 18.2407 19.0418 18.2192 18.1157C18.2008 17.346 18.2438 16.5785 18.333 15.8172L24.2245 16.5517C24.2583 16.554 24.2906 16.5563 24.3221 16.5563C24.5043 16.5563 24.6826 16.4911 24.8217 16.3715L30.2014 11.7715C30.4972 11.5193 30.5564 11.0869 30.3412 10.7649L28.9932 8.74706C29.223 8.32693 29.3552 7.85696 29.3444 7.36477C29.3268 6.53984 28.9448 5.77087 28.3 5.25567L23.7327 1.61019C22.7274 0.80826 21.3133 0.795993 20.2943 1.57799L11.5922 8.25716L11.3078 8.45113C10.8967 8.64203 10.4294 8.88583 10.0275 9.23849C9.23128 9.93692 8.89083 10.965 8.59187 11.8727C8.5081 12.128 8.4251 12.3787 8.33441 12.6118L3.73092 24.3816C3.33821 25.386 2.98238 27.4276 2.63885 29.401C2.44441 30.5165 2.2615 31.5706 2.11394 32.1479C2.05553 32.3756 2.00097 32.6056 1.9464 32.8356C1.73121 33.7449 1.52755 34.6028 1.10333 35.3326C0.892748 35.696 1.01418 36.1614 1.37538 36.3753L4.08291 37.9799C11.3401 42.2802 20.4141 45.2471 28.3569 45.9172C28.9725 45.9693 29.7479 46 30.6333 46C35.0515 46 42.1789 45.2287 45.5604 42.448L44.5836 41.2651C41.0914 44.137 32.3755 44.7158 28.4868 44.3892Z" fill="#89AA5A" stroke="#89AA5A"/>
</svg>
