<svg width="294" height="237" viewBox="0 0 294 237" fill="none" xmlns="http://www.w3.org/2000/svg">
<path d="M293.063 45.0219C291.985 43.351 290.132 42.3425 288.143 42.3425H39.2179C37.458 42.3425 35.7906 43.1343 34.6784 44.4989C33.5663 45.8629 33.127 47.6556 33.4814 49.3792L56.5773 161.652C57.1378 164.375 59.5343 166.329 62.3139 166.329H237.46C239.762 166.329 241.851 164.98 242.798 162.881L293.481 50.6085C294.299 48.7959 294.142 46.6928 293.063 45.0219ZM233.678 154.615H67.0881L63.9549 139.383H191.909C195.144 139.383 197.766 136.76 197.766 133.526C197.766 130.292 195.144 127.67 191.909 127.67H61.6726C61.6298 127.67 61.5888 127.675 61.5466 127.676L58.0157 110.512H183.569C186.804 110.512 189.426 107.89 189.426 104.656C189.426 101.422 186.804 98.7993 183.569 98.7993H55.6063L51.813 80.3593H178.437C181.671 80.3593 184.293 77.7367 184.293 74.5027C184.293 71.2687 181.671 68.6462 178.437 68.6462H49.403L46.4015 54.0557H279.074L233.678 154.615Z" fill="#6904F2"/>
<path d="M35.926 31.4873C39.0997 30.8624 41.1653 27.783 40.5404 24.6093L36.6235 4.7245C36.0829 1.97894 33.6753 0 30.877 0H5.85657C2.62199 0 0 2.62257 0 5.85657C0 9.09057 2.62199 11.7131 5.85657 11.7131H26.0618L29.048 26.8735C29.598 29.6653 32.0466 31.5991 34.7881 31.5991C35.1635 31.5986 35.5441 31.5622 35.926 31.4873Z" fill="#6904F2"/>
<path d="M97.2789 178.353C81.1376 178.353 68.0054 191.485 68.0054 207.627C68.0054 223.768 81.1376 236.9 97.2789 236.9C113.421 236.9 126.552 223.767 126.552 207.627C126.552 191.485 113.421 178.353 97.2789 178.353ZM97.2789 225.187C87.5962 225.187 79.7185 217.31 79.7185 207.627C79.7185 197.945 87.5962 190.067 97.2789 190.067C106.962 190.067 114.839 197.945 114.839 207.627C114.839 217.31 106.962 225.187 97.2789 225.187Z" fill="#ECE3FD"/>
<path d="M201.212 178.353C185.071 178.353 171.938 191.485 171.938 207.627C171.938 223.768 185.071 236.9 201.212 236.9C217.353 236.9 230.485 223.767 230.485 207.627C230.485 191.485 217.353 178.353 201.212 178.353ZM201.212 225.187C191.529 225.187 183.652 217.31 183.652 207.627C183.652 197.945 191.529 190.067 201.212 190.067C210.895 190.067 218.772 197.945 218.772 207.627C218.772 217.31 210.895 225.187 201.212 225.187Z" fill="#ECE3FD"/>
<path d="M206.665 80.3593H227.195C230.429 80.3593 233.051 77.7367 233.051 74.5027C233.051 71.2687 230.429 68.6461 227.195 68.6461H206.665C203.431 68.6461 200.809 71.2687 200.809 74.5027C200.809 77.7367 203.431 80.3593 206.665 80.3593Z" fill="#ECE3FD"/>
</svg>
