<svg width="183" height="182" viewBox="0 0 183 182" fill="none" xmlns="http://www.w3.org/2000/svg">
<rect x="0.5" width="182" height="182" rx="91" fill="#FF9408"/>
<path fill-rule="evenodd" clip-rule="evenodd" d="M104.357 97.3452C105.773 95.501 107.499 93.8979 109.463 92.6023C112.973 90.2845 117.169 88.9511 122.145 88.1278C122.529 88.0626 122.925 88.147 123.244 88.3627C123.564 88.5784 123.781 88.9075 123.849 89.2777C123.917 89.648 123.829 90.029 123.605 90.3369C123.381 90.645 123.04 90.8546 122.656 90.9199C118.014 91.6984 114.235 92.8976 111.116 94.9559C108.449 96.7532 106.284 99.1569 104.812 101.954C116.761 103.108 123.826 101.954 128.95 98.3744C134.075 94.7948 137.473 88.6289 141.948 79.7516L137.854 79.9484C128.802 80.3511 118.896 80.7986 112.694 86.0427C110.987 87.5098 109.432 89.1343 108.052 90.893C106.704 92.6097 105.464 94.4027 104.339 96.2624V97.3452H104.357ZM101.832 41.3694C106.626 41.3694 111.224 43.2051 114.614 46.4726C118.003 49.7403 119.908 54.172 119.908 58.793C119.908 63.4141 118.003 67.8458 114.614 71.1135C111.224 74.381 106.626 76.2167 101.832 76.2167C78.056 76.2078 78.056 41.3694 101.832 41.3694ZM93.9686 56.7616L95.2962 53.898H100.328C100.258 53.6793 100.144 53.4758 99.9939 53.2984C99.8288 53.0965 99.6313 52.9213 99.409 52.7793C99.1657 52.6311 98.9036 52.5138 98.6291 52.4303C98.3291 52.3383 98.0157 52.293 97.7007 52.2961H93.9872L95.3148 49.3966H109.705L108.377 52.2961H104.877C105.02 52.398 105.151 52.5151 105.267 52.6451C105.399 52.7537 105.52 52.8736 105.629 53.0031C105.713 53.1447 105.787 53.2911 105.852 53.4416C105.91 53.5673 105.95 53.6996 105.973 53.8353H109.742L108.405 56.7258H105.629C105.41 57.2415 105.095 57.7144 104.701 58.1219C104.299 58.5725 103.837 58.9697 103.327 59.3031C102.794 59.6625 102.221 59.9628 101.619 60.198C101.022 60.4299 100.398 60.5921 99.7618 60.6813L107.347 68.2163H101.368L94.6278 61.0571V58.3724H97.6079C97.8952 58.3722 98.1805 58.3269 98.4527 58.2382C98.7287 58.1506 98.9911 58.0271 99.2326 57.8713C99.4641 57.7271 99.6709 57.549 99.8453 57.3433C100.006 57.1586 100.129 56.946 100.207 56.7169L93.9686 56.7616ZM38.6273 104.853H53.2495C53.9463 104.853 54.6146 105.12 55.1073 105.595C55.6 106.07 55.8768 106.714 55.8768 107.386V136.416C55.8671 137.082 55.5859 137.717 55.0943 138.184C54.6026 138.651 53.9399 138.913 53.2495 138.913H38.6273C37.9369 138.913 37.2742 138.651 36.7825 138.184C36.2909 137.717 36.0098 137.082 36 136.416V107.386C36 106.714 36.2768 106.07 36.7695 105.595C37.2623 105.12 37.9305 104.853 38.6273 104.853ZM59.8782 136.076V107.592H73.1356C78.7709 108.567 84.4062 111.511 90.0415 114.93H100.402C105.044 115.207 107.523 119.771 102.983 122.769C99.3626 125.329 94.5814 125.186 89.6887 124.756C86.3094 124.604 86.1609 128.971 89.6887 128.989C90.9049 129.078 92.2418 128.801 93.4023 128.801C99.5111 128.801 104.543 127.673 107.625 123.02L109.176 119.539L124.531 112.192C132.218 109.757 137.677 117.507 132.023 122.93C121.313 130.467 109.857 136.966 97.8214 142.332C89.3452 147.307 80.869 147.137 72.3929 142.332L59.8782 136.067V136.076ZM101.916 36C107.979 35.9953 113.813 38.2371 118.21 42.2618C122.608 46.2866 125.232 51.7864 125.541 57.6238C125.85 63.4612 123.819 69.1897 119.87 73.6247C115.92 78.0597 110.353 80.8619 104.32 81.4519V91.0362C104.794 90.3829 105.249 89.7655 105.741 89.1659C107.231 87.262 108.91 85.5026 110.754 83.9128C117.717 78.0155 128.18 77.5412 137.733 77.1116C139.933 77.0132 142.087 76.9147 144.232 76.7447C144.493 76.7282 144.754 76.7743 144.993 76.8789C145.342 77.043 145.61 77.3339 145.737 77.6879C145.864 78.0419 145.841 78.4301 145.671 78.7672C140.425 89.2196 136.712 96.3788 130.631 100.647C124.828 104.71 117.123 106.017 104.292 104.737V108.012C109.069 108.48 113.766 109.524 118.274 111.118L109.51 115.306H108.006C107.531 114.576 106.935 113.926 106.242 113.382C104.739 112.214 102.91 111.504 100.987 111.341C100.805 111.333 100.622 111.333 100.439 111.341H91.1556C89.893 110.59 88.6304 109.856 87.3585 109.167C91.2204 108.305 95.1668 107.843 99.1305 107.789V100.844C95.4989 101.219 91.8269 100.968 88.2869 100.102C86.1471 99.5243 84.154 98.5279 82.432 97.1743C80.7099 95.8209 79.2961 94.1395 78.2788 92.2354L78.2231 92.1548L74.064 83.9128C73.96 83.7086 73.8992 83.4865 73.885 83.2595C73.8708 83.0324 73.9034 82.8049 73.9812 82.5901C74.0589 82.3753 74.1801 82.1775 74.3377 82.0083C74.4954 81.839 74.6863 81.7016 74.8995 81.604C75.1729 81.4736 75.4771 81.415 75.7815 81.434L89.6423 82.2573H89.8651H89.9116C92.4925 82.5705 95.3241 82.9105 97.8957 85.0851L99.1305 86.2754V81.4071C93.1492 80.7179 87.6666 77.8535 83.8027 73.3989C79.9387 68.9443 77.985 63.2358 78.3405 57.4393C78.6961 51.6429 81.3341 46.1961 85.7156 42.2114C90.0972 38.2268 95.8918 36.005 101.916 36ZM116.77 44.5463C113.353 41.2523 108.856 39.2023 104.047 38.7457C99.2373 38.2891 94.4124 39.454 90.3941 42.042C86.3759 44.6301 83.4128 48.4811 82.0099 52.9389C80.6071 57.3966 80.851 62.1854 82.7004 66.4892C84.5498 70.793 87.8901 74.3456 92.1521 76.5416C96.4142 78.7375 101.334 79.441 106.074 78.5323C110.814 77.6235 115.08 75.1587 118.146 71.5577C121.212 67.9567 122.888 63.4425 122.888 58.7841C122.891 56.1395 122.352 53.5203 121.302 51.077C120.252 48.6336 118.712 46.4143 116.77 44.5463ZM99.1305 97.3452V97.0768C98.701 96.5689 98.2011 96.1202 97.645 95.7434C96.2746 94.9106 94.748 94.3451 93.1516 94.0789C92.9627 94.0401 92.7834 93.9658 92.6243 93.8602C92.4651 93.7547 92.329 93.6201 92.2238 93.4638C92.1187 93.3076 92.0465 93.1329 92.0113 92.9498C91.9761 92.7666 91.9788 92.5787 92.019 92.3965C92.0592 92.2144 92.1363 92.0415 92.2458 91.8882C92.3553 91.7347 92.4951 91.6035 92.6571 91.5021C92.8192 91.4008 93.0004 91.3312 93.1903 91.2973C93.3804 91.2634 93.5754 91.2659 93.7644 91.3047C95.6673 91.6488 97.487 92.3317 99.1305 93.3182V92.9602C99.0655 92.7723 98.9912 92.5933 98.9169 92.4054C98.1853 90.6145 97.0315 89.0122 95.5469 87.7251C93.7922 86.2396 91.5455 85.9353 89.4845 85.7205H89.4381L78.6502 85.0762L81.4354 90.6335C82.2361 92.1228 83.3455 93.4377 84.6949 94.4968C86.0444 95.5558 87.6051 96.3365 89.2803 96.7904C92.498 97.5499 95.8305 97.7499 99.1212 97.381L99.1305 97.3452Z" fill="white"/>
<path fill-rule="evenodd" clip-rule="evenodd" d="M104.476 97.3453C105.891 95.501 107.617 93.8979 109.582 92.6023C113.091 90.2845 117.287 88.9511 122.264 88.1278C122.648 88.0626 123.043 88.147 123.362 88.3627C123.682 88.5784 123.899 88.9075 123.967 89.2777C124.035 89.648 123.947 90.029 123.723 90.3369C123.5 90.645 123.158 90.8546 122.774 90.9199C118.132 91.6984 114.354 92.8976 111.234 94.9559C108.568 96.7532 106.402 99.1569 104.93 101.954C116.879 103.108 123.944 101.954 129.068 98.3744C134.193 94.7948 137.591 88.6289 142.066 79.7516L137.972 79.9484C128.92 80.3511 119.014 80.7986 112.812 86.0427C111.105 87.5098 109.55 89.1343 108.171 90.893C106.823 92.6097 105.582 94.4027 104.457 96.2624V97.3453H104.476ZM101.95 41.3694C106.744 41.3694 111.342 43.2051 114.732 46.4726C118.122 49.7403 120.026 54.172 120.026 58.793C120.026 63.4141 118.122 67.8458 114.732 71.1135C111.342 74.381 106.744 76.2167 101.95 76.2167C78.1743 76.2078 78.1743 41.3694 101.95 41.3694ZM94.0869 56.7616L95.4145 53.898H100.446C100.376 53.6793 100.262 53.4758 100.112 53.2984C99.9471 53.0965 99.7496 52.9213 99.5273 52.7793C99.2839 52.6311 99.0218 52.5138 98.7474 52.4303C98.4473 52.3383 98.1339 52.293 97.819 52.2961H94.1055L95.4331 49.3966H109.823L108.495 52.2961H104.995C105.139 52.398 105.269 52.5151 105.385 52.6451C105.517 52.7537 105.638 52.8736 105.747 53.0031C105.831 53.1447 105.905 53.2911 105.97 53.4416C106.028 53.5673 106.068 53.6996 106.091 53.8353H109.86L108.523 56.7258H105.747C105.528 57.2415 105.214 57.7144 104.819 58.1219C104.417 58.5725 103.955 58.9697 103.445 59.3031C102.912 59.6625 102.339 59.9628 101.737 60.198C101.14 60.4299 100.517 60.5922 99.88 60.6813L107.465 68.2163H101.486L94.746 61.0571V58.3724H97.7262C98.0134 58.3722 98.2988 58.3269 98.571 58.2382C98.847 58.1506 99.1094 58.0271 99.3509 57.8713C99.5824 57.7271 99.7891 57.5491 99.9636 57.3433C100.124 57.1586 100.247 56.946 100.326 56.7169L94.0869 56.7616ZM102.034 36C108.098 35.9953 113.931 38.2371 118.329 42.2618C122.726 46.2866 125.35 51.7864 125.659 57.6238C125.968 63.4612 123.937 69.1897 119.988 73.6247C116.038 78.0597 110.471 80.8619 104.438 81.4519V91.0362C104.912 90.3829 105.367 89.7655 105.859 89.1659C107.349 87.262 109.028 85.5026 110.872 83.9128C117.835 78.0155 128.298 77.5412 137.851 77.1116C140.051 77.0132 142.205 76.9147 144.35 76.7447C144.611 76.7282 144.873 76.7743 145.111 76.8789C145.461 77.043 145.728 77.3339 145.855 77.6879C145.983 78.0419 145.959 78.4301 145.789 78.7672C140.543 89.2196 136.83 96.3788 130.749 100.647C124.947 104.71 117.241 106.017 104.411 104.737V108.012C109.187 108.48 113.885 109.524 118.392 111.118L109.628 115.306H108.124C107.649 114.576 107.053 113.926 106.36 113.382C104.858 112.214 103.028 111.504 101.106 111.341C100.923 111.333 100.74 111.333 100.558 111.341H91.2739C90.0113 110.59 88.7487 109.856 87.4768 109.167C91.3387 108.305 95.285 107.843 99.2487 107.789V100.844C95.6171 101.219 91.9452 100.968 88.4051 100.102C86.2654 99.5243 84.2722 98.5279 82.5502 97.1743C80.8282 95.8209 79.4144 94.1395 78.3971 92.2354L78.3414 92.1548L74.1822 83.9128C74.0782 83.7086 74.0174 83.4865 74.0032 83.2595C73.989 83.0324 74.0217 82.8049 74.0994 82.5901C74.1772 82.3753 74.2984 82.1775 74.456 82.0083C74.6136 81.839 74.8046 81.7016 75.0178 81.604C75.2912 81.4736 75.5953 81.415 75.8997 81.434L89.7606 82.2573H89.9834H90.0298C92.6108 82.5705 95.4423 82.9105 98.014 85.0851L99.2487 86.2754V81.4071C93.2675 80.7179 87.7849 77.8535 83.9209 73.3989C80.057 68.9443 78.1032 63.2358 78.4588 57.4393C78.8143 51.6429 81.4523 46.1961 85.8339 42.2114C90.2155 38.2268 96.01 36.005 102.034 36ZM116.888 44.5463C113.471 41.2523 108.974 39.2023 104.165 38.7457C99.3556 38.2891 94.5307 39.454 90.5124 42.042C86.4941 44.6301 83.5311 48.4811 82.1282 52.9389C80.7253 57.3967 80.9693 62.1854 82.8187 66.4892C84.668 70.793 88.0084 74.3456 92.2704 76.5416C96.5325 78.7375 101.453 79.441 106.192 78.5323C110.932 77.6235 115.199 75.1587 118.265 71.5577C121.33 67.9567 123.006 63.4425 123.006 58.7841C123.009 56.1395 122.47 53.5203 121.42 51.077C120.371 48.6336 118.83 46.4143 116.888 44.5463ZM99.2487 97.3453V97.0768C98.8192 96.5689 98.3194 96.1202 97.7633 95.7434C96.3928 94.9106 94.8662 94.3451 93.2699 94.0789C93.0809 94.0401 92.9017 93.9658 92.7425 93.8602C92.5834 93.7547 92.4473 93.6201 92.3421 93.4638C92.2369 93.3076 92.1647 93.1329 92.1296 92.9498C92.0944 92.7666 92.097 92.5787 92.1373 92.3965C92.1775 92.2144 92.2545 92.0415 92.364 91.8882C92.4735 91.7347 92.6133 91.6035 92.7754 91.5021C92.9375 91.4008 93.1187 91.3312 93.3086 91.2973C93.4986 91.2634 93.6936 91.2659 93.8826 91.3047C95.7856 91.6488 97.6053 92.3317 99.2487 93.3182V92.9603C99.1837 92.7723 99.1095 92.5933 99.0352 92.4054C98.3034 90.6145 97.1497 89.0122 95.6652 87.7251C93.9105 86.2396 91.6638 85.9353 89.6028 85.7205H89.5564L78.7685 85.0762L81.5536 90.6335C82.3543 92.1228 83.4637 93.4377 84.8132 94.4968C86.1626 95.5558 87.7232 96.3365 89.3985 96.7904C92.6162 97.5499 95.9488 97.7499 99.2395 97.381L99.2487 97.3453Z" fill="#FFE3BC"/>
</svg>
