<svg width="183" height="182" viewBox="0 0 183 182" fill="none" xmlns="http://www.w3.org/2000/svg">
<rect x="0.895996" width="182" height="182" rx="91" fill="#F1C12E"/>
<g clip-path="url(#clip0_592_1803)">
<path d="M120.875 79.9999H94.75V89.6249C94.75 96.4484 89.1984 102 82.375 102C75.5516 102 70 96.4484 70 89.6249V68.7249L58.8453 75.4281C55.5281 77.4046 53.5 80.9968 53.5 84.8468V92.9765L39.75 100.917C37.1203 102.43 36.2094 105.798 37.7391 108.428L51.4891 132.25C53.0016 134.88 56.3703 135.773 59 134.261L76.7719 124H100.25C106.317 124 111.25 119.067 111.25 113H114C117.042 113 119.5 110.542 119.5 107.5V96.4999H120.875C123.161 96.4999 125 94.6609 125 92.3749V84.1249C125 81.839 123.161 79.9999 120.875 79.9999ZM146.261 73.5718L132.511 49.7499C130.998 47.1203 127.63 46.2265 125 47.739L107.228 57.9999H89.6625C87.6 57.9999 85.5891 58.5843 83.8359 59.6671L78.0781 63.2593C76.4625 64.2562 75.5 66.0265 75.5 67.9171V89.6249C75.5 93.4234 78.5766 96.4999 82.375 96.4999C86.1735 96.4999 89.25 93.4234 89.25 89.6249V74.4999H120.875C126.186 74.4999 130.5 78.814 130.5 84.1249V89.0234L144.25 81.0828C146.88 79.5531 147.773 76.2015 146.261 73.5718Z" fill="white"/>
</g>
<g clip-path="url(#clip1_592_1803)">
<path d="M120.875 79.9999H94.75V89.6249C94.75 96.4484 89.1984 102 82.375 102C75.5516 102 70 96.4484 70 89.6249V68.7249L58.8453 75.4281C55.5281 77.4046 53.5 80.9968 53.5 84.8468V92.9765L39.75 100.917C37.1203 102.43 36.2094 105.798 37.7391 108.428L51.4891 132.25C53.0016 134.88 56.3703 135.773 59 134.261L76.7719 124H100.25C106.317 124 111.25 119.067 111.25 113H114C117.042 113 119.5 110.542 119.5 107.5V96.4999H120.875C123.161 96.4999 125 94.6609 125 92.3749V84.1249C125 81.839 123.161 79.9999 120.875 79.9999ZM146.261 73.5718L132.511 49.7499C130.998 47.1203 127.63 46.2265 125 47.739L107.228 57.9999H89.6625C87.6 57.9999 85.5891 58.5843 83.8359 59.6671L78.0781 63.2593C76.4625 64.2562 75.5 66.0265 75.5 67.9171V89.6249C75.5 93.4234 78.5766 96.4999 82.375 96.4999C86.1735 96.4999 89.25 93.4234 89.25 89.6249V74.4999H120.875C126.186 74.4999 130.5 78.814 130.5 84.1249V89.0234L144.25 81.0828C146.88 79.5531 147.773 76.2015 146.261 73.5718Z" fill="white"/>
</g>
<defs>
<clipPath id="clip0_592_1803">
<rect width="110" height="110" fill="white" transform="translate(37 36)"/>
</clipPath>
<clipPath id="clip1_592_1803">
<rect width="110" height="110" fill="white" transform="translate(37 36)"/>
</clipPath>
</defs>
</svg>
