<svg width="182" height="182" viewBox="0 0 182 182" fill="none" xmlns="http://www.w3.org/2000/svg">
<rect width="182" height="182" rx="91" fill="#0EDDC9"/>
<path d="M135.207 75.2109C139.997 75.6044 143.675 78.8051 144.41 83.5552C145.215 88.7502 146 97.1707 146 110.25C146 127.631 144.613 137.501 143.638 142.294C143.178 144.55 141.175 146 138.873 146C134.824 146 127.021 146 113 146C98.9788 146 91.176 146 87.1275 146C84.8246 146 82.8218 144.55 82.3622 142.294C81.3868 137.501 80 127.631 80 110.25C80 97.1707 80.7851 88.7502 81.5895 83.5552C82.3251 78.8051 86.0027 75.6044 90.7935 75.2109C95.3499 74.8369 102.397 74.5 113 74.5C123.603 74.5 130.65 74.8369 135.207 75.2109Z" fill="white" fill-opacity="0.5"/>
<path d="M106.809 37.2891C111.656 37.8521 115.226 41.3052 115.98 46.1252C117.138 53.5417 118.5 67.2994 118.5 91C118.5 120.021 116.458 135.431 115.248 142.017C114.808 144.406 112.719 146 110.29 146C105.453 146 95.6217 146 77.25 146C58.8783 146 49.0472 146 44.2096 146C41.7808 146 39.6915 144.406 39.2524 142.017C38.0418 135.431 36 120.021 36 91C36 67.2994 37.3617 53.5417 38.5204 46.1252C39.2735 41.3052 42.8445 37.8521 47.6904 37.2891C53.2667 36.6412 62.5092 36 77.25 36C91.9908 36 101.233 36.6412 106.809 37.2891Z" fill="white"/>
<path d="M55.25 63.5C55.25 60.4624 57.7124 58 60.75 58H93.75C96.7877 58 99.25 60.4624 99.25 63.5C99.25 66.5377 96.7877 69 93.75 69H60.75C57.7124 69 55.25 66.5377 55.25 63.5Z" fill="#0EDDC9"/>
<path d="M55.25 91C55.25 87.9624 57.7124 85.5 60.75 85.5H93.75C96.7877 85.5 99.25 87.9624 99.25 91C99.25 94.0377 96.7877 96.5 93.75 96.5H60.75C57.7124 96.5 55.25 94.0377 55.25 91Z" fill="#0EDDC9"/>
<path d="M62.2991 131.926C62.1168 127.195 65.2323 123.192 69.9554 122.86C71.9461 122.72 74.3614 122.625 77.2514 122.625C80.1414 122.625 82.557 122.72 84.5477 122.86C89.2708 123.192 92.3863 127.195 92.204 131.926C92.0318 136.391 91.6881 141.881 91.0014 146H63.5014C62.815 141.881 62.4713 136.391 62.2991 131.926Z" fill="#0EDDC9"/>
</svg>
