<svg width="72" height="72" viewBox="0 0 72 72" fill="none" xmlns="http://www.w3.org/2000/svg">
<rect width="72" height="72" rx="36" fill="white"/>
<path d="M49.1834 40.5641C49.9432 41.312 50.085 42.8612 49.0638 43.8989C48.043 44.9362 46.3877 44.8694 45.6274 44.1216L44.8906 43.3853L45.8757 44.6066C46.4641 45.3365 46.2108 46.518 45.3084 47.2456C44.4061 47.9733 43.198 47.9713 42.6093 47.2411L42.307 46.866C42.8956 47.5958 42.642 48.7773 41.7394 49.5049C40.8378 50.232 39.6292 50.23 39.0406 49.5005L38.4181 48.7294C38.9918 49.4606 38.7357 50.6307 37.8397 51.3536C36.993 52.0364 35.5202 51.7197 34.8554 51.0751C35.2616 50.7146 36.7989 48.9456 35.0484 46.9545C34.6381 46.5433 34.0882 46.2639 33.5281 46.1623C33.4646 45.4612 33.1612 44.7884 32.6439 44.2701C32.1314 43.7565 31.4694 43.4469 30.7553 43.3821C30.6509 42.7658 30.359 42.1841 29.9013 41.7258C29.3249 41.1488 28.5595 40.829 27.7444 40.8251C27.6356 40.2207 27.3471 39.6497 26.8982 39.2001C25.8964 38.2991 24.9091 38.1864 24.1163 38.3617C23.6813 36.6652 23.7464 35.1924 23.1362 34.5825C22.0613 33.5076 20.4734 31.9283 20.4734 31.9283L28.7298 23.6719C28.7298 23.6719 29.7194 24.551 31.0014 25.6912C31.3419 25.9941 31.8154 26.2167 32.3271 26.3806L26.6963 32.3124C26.0274 32.9863 24.7171 35.3766 26.7066 37.3575C28.696 39.3383 31.0733 38.0386 31.747 37.373L34.6941 34.6587C35.834 35.0835 40.2941 36.6437 43.7912 35.1734L49.1834 40.5641ZM34.3194 47.6363C33.8049 47.1207 33.0609 46.9762 32.4155 47.1988C32.7085 46.4507 32.5537 45.5677 31.9498 44.9624C31.3503 44.3618 30.4762 44.2032 29.7314 44.4862C29.941 43.7773 29.7663 42.9785 29.2075 42.4184C28.5247 41.7339 27.4856 41.6229 26.687 42.085C26.957 41.3463 26.7967 40.486 26.2047 39.8926C25.3907 39.0769 24.069 39.0753 23.253 39.8898L22.575 40.4491C21.759 41.2632 21.7576 42.5848 22.5719 43.4008C23.1127 43.9421 23.8763 44.1243 24.5674 43.9479C23.9951 44.7616 24.0712 45.8925 24.798 46.621C25.609 47.4336 26.9231 47.4377 27.7397 46.6331C27.6259 47.2802 27.8178 47.9699 28.3172 48.4703C28.9499 49.1046 29.8891 49.2464 30.6591 48.8958C30.4703 49.523 30.6231 50.2307 31.1179 50.7269C31.8356 51.4462 32.9999 51.4471 33.7187 50.7294L34.3165 50.2368C35.0358 49.52 35.037 48.3554 34.3194 47.6363ZM41.2528 26.3402C39.9705 27.4807 37.1563 25.0546 35.0129 25.8185C33.7002 26.2865 33.3488 26.7082 32.977 27.0978L27.4011 32.9957C26.3885 34.0083 26.3885 35.6505 27.4011 36.663C28.4142 37.6764 30.0561 37.6764 31.0692 36.6633L34.486 33.5163C36.1102 34.2339 41.0689 35.7026 44.1289 33.8989L48.4688 38.2621C48.8816 36.5997 48.5181 35.8322 49.1181 35.2313C50.1935 34.1564 52.3998 31.9394 52.3998 31.9394L44.1426 23.683C44.1426 23.683 42.5354 25.2003 41.2528 26.3402Z" fill="#FF9408"/>
<path opacity="0.5" d="M56.1896 28.8883L53.3773 31.7793L44.2447 22.8948L47.0574 20.0039L56.1896 28.8883ZM48.2472 22.8799C48.2472 22.3231 47.7956 21.8717 47.2385 21.8717C46.682 21.8717 46.2307 22.323 46.2307 22.8799C46.2307 23.4367 46.682 23.888 47.2385 23.888C47.7959 23.888 48.2472 23.4373 48.2472 22.8799ZM28.4398 22.8909L19.3079 31.7754L16.4956 28.8844L25.6274 20L28.4398 22.8909ZM26.4548 22.8763C26.4548 22.3195 26.0034 21.8681 25.4466 21.8681C24.8898 21.8681 24.4384 22.3194 24.4384 22.8763C24.4384 23.4331 24.8898 23.8844 25.4466 23.8844C26.0034 23.8844 26.4548 23.4328 26.4548 22.8763Z" fill="#FF9408"/>
</svg>
