<svg width="72" height="72" viewBox="0 0 72 72" fill="none" xmlns="http://www.w3.org/2000/svg">
<rect width="72" height="72" rx="36" fill="white"/>
<path fill-rule="evenodd" clip-rule="evenodd" d="M39.8858 37.8459C40.2977 37.3094 40.7997 36.843 41.3712 36.4661C42.3921 35.7919 43.6128 35.404 45.0604 35.1645C45.1722 35.1455 45.2872 35.17 45.3801 35.2328C45.4731 35.2955 45.5363 35.3913 45.556 35.499C45.5757 35.6067 45.5502 35.7175 45.4851 35.8071C45.4201 35.8967 45.3207 35.9577 45.209 35.9767C43.8586 36.2032 42.7594 36.552 41.8519 37.1508C41.0762 37.6737 40.4463 38.3729 40.0181 39.1866C43.494 39.5224 45.5493 39.1866 47.0401 38.1453C48.5309 37.1039 49.5194 35.3102 50.8212 32.7277L49.6301 32.785C46.9969 32.9021 44.1152 33.0323 42.311 34.5579C41.8143 34.9847 41.362 35.4572 40.9607 35.9689C40.5685 36.4683 40.2078 36.9899 39.8804 37.5309V37.8459H39.8858ZM39.1511 21.562C40.5458 21.562 41.8832 22.096 42.8694 23.0466C43.8555 23.9972 44.4095 25.2864 44.4095 26.6307C44.4095 27.975 43.8555 29.2642 42.8694 30.2148C41.8832 31.1654 40.5458 31.6994 39.1511 31.6994C32.2345 31.6968 32.2345 21.562 39.1511 21.562ZM36.8636 26.0397L37.2498 25.2067H38.7136C38.6931 25.1431 38.6601 25.0839 38.6164 25.0323C38.5684 24.9735 38.5109 24.9226 38.4462 24.8813C38.3755 24.8382 38.2992 24.804 38.2194 24.7797C38.1321 24.753 38.0409 24.7398 37.9493 24.7407H36.869L37.2552 23.8972H41.4414L41.0552 24.7407H40.037C40.0786 24.7703 40.1167 24.8044 40.1504 24.8422C40.1887 24.8738 40.2239 24.9087 40.2558 24.9463C40.2801 24.9876 40.3017 25.0301 40.3206 25.0739C40.3374 25.1105 40.3492 25.149 40.3557 25.1885H41.4522L41.0633 26.0293H40.2558C40.1919 26.1793 40.1004 26.3169 39.9857 26.4355C39.8688 26.5665 39.7344 26.6821 39.586 26.7791C39.431 26.8836 39.2643 26.971 39.089 27.0394C38.9155 27.1069 38.7341 27.1541 38.5489 27.18L40.7554 29.372H39.0161L37.0554 27.2894V26.5083H37.9223C38.0059 26.5083 38.0889 26.4951 38.1681 26.4693C38.2484 26.4438 38.3247 26.4079 38.3949 26.3626C38.4623 26.3206 38.5224 26.2688 38.5732 26.209C38.62 26.1552 38.6557 26.0934 38.6785 26.0267L36.8636 26.0397ZM20.7643 40.0301H25.018C25.2207 40.0301 25.4151 40.1077 25.5585 40.2459C25.7018 40.384 25.7823 40.5714 25.7823 40.7668V49.2121C25.7795 49.4058 25.6977 49.5903 25.5547 49.7262C25.4117 49.8621 25.2189 49.9384 25.018 49.9384H20.7643C20.5635 49.9384 20.3707 49.8621 20.2276 49.7262C20.0846 49.5903 20.0028 49.4058 20 49.2121V40.7668C20 40.5714 20.0805 40.384 20.2239 40.2459C20.3672 40.1077 20.5616 40.0301 20.7643 40.0301ZM26.9464 49.1131V40.8267H30.8031C32.4424 41.1105 34.0818 41.967 35.7212 42.9615H38.7352C40.0856 43.0422 40.8067 44.3699 39.486 45.242C38.4327 45.9865 37.0418 45.9449 35.6185 45.8199C34.6355 45.7757 34.5923 47.0461 35.6185 47.0513C35.9723 47.0773 36.3613 46.9966 36.6989 46.9966C38.476 46.9966 39.9398 46.6686 40.8364 45.3149L41.2875 44.3022L45.7545 42.1648C47.9908 41.4567 49.5788 43.7112 47.934 45.2888C44.8184 47.4814 41.4857 49.3719 37.9844 50.9329C35.5186 52.3803 33.0528 52.3309 30.587 50.9329L26.9464 49.1105V49.1131ZM39.1755 20C40.9395 19.9986 42.6365 20.6508 43.9157 21.8216C45.1949 22.9925 45.9584 24.5924 46.0482 26.2906C46.1381 27.9887 45.5474 29.6552 44.3984 30.9454C43.2494 32.2356 41.6299 33.0507 39.875 33.2224V36.0105C40.0127 35.8205 40.145 35.6409 40.2882 35.4664C40.7216 34.9126 41.2101 34.4008 41.7466 33.9383C43.7722 32.2227 46.8159 32.0847 49.595 31.9597C50.2351 31.9311 50.8617 31.9025 51.4856 31.853C51.5617 31.8482 51.6376 31.8616 51.707 31.8921C51.8086 31.9398 51.8866 32.0244 51.9236 32.1274C51.9604 32.2304 51.9536 32.3433 51.9042 32.4414C50.3782 35.4821 49.2979 37.5647 47.5289 38.8065C45.841 39.9884 43.5993 40.3685 39.8669 39.9962V40.9491C41.2565 41.0852 42.6229 41.3887 43.9342 41.8524L41.3847 43.0708H40.9472C40.809 42.8584 40.6357 42.6693 40.434 42.5111C39.9969 42.1713 39.4648 41.9647 38.9054 41.9175C38.8523 41.9149 38.7991 41.9149 38.746 41.9175H36.0453C35.678 41.6988 35.3107 41.4854 34.9407 41.2849C36.0641 41.0342 37.2122 40.8998 38.3652 40.884V38.8638C37.3088 38.9729 36.2406 38.8998 35.2107 38.6477C34.5883 38.4798 34.0084 38.1899 33.5075 37.7962C33.0065 37.4024 32.5952 36.9133 32.2993 36.3594L32.2831 36.336L31.0732 33.9383C31.0429 33.8789 31.0252 33.8143 31.0211 33.7482C31.0169 33.6822 31.0265 33.616 31.0491 33.5535C31.0717 33.491 31.1069 33.4335 31.1528 33.3842C31.1987 33.335 31.2542 33.295 31.3162 33.2666C31.3958 33.2287 31.4842 33.2116 31.5728 33.2172L35.605 33.4567H35.6699H35.6834C36.4342 33.5478 37.2579 33.6467 38.006 34.2793L38.3652 34.6256V33.2093C36.6252 33.0088 35.0303 32.1756 33.9062 30.8797C32.7822 29.5838 32.2138 27.9231 32.3172 26.2369C32.4207 24.5507 33.1881 22.9661 34.4627 21.807C35.7374 20.6478 37.4231 20.0015 39.1755 20ZM43.4967 22.4862C42.5026 21.5279 41.1946 20.9316 39.7954 20.7987C38.3963 20.6659 36.9927 21.0048 35.8237 21.7577C34.6548 22.5106 33.7928 23.6309 33.3847 24.9277C32.9766 26.2245 33.0476 27.6176 33.5856 28.8696C34.1236 30.1216 35.0953 31.1551 36.3352 31.7939C37.575 32.4327 39.0064 32.6374 40.3852 32.373C41.7641 32.1087 43.0052 31.3916 43.8971 30.3441C44.789 29.2965 45.2765 27.9833 45.2765 26.6281C45.2774 25.8588 45.1206 25.0968 44.8152 24.386C44.5097 23.6752 44.0617 23.0296 43.4967 22.4862ZM38.3652 37.8459V37.7678C38.2403 37.6201 38.0949 37.4895 37.9331 37.3799C37.5344 37.1376 37.0903 36.9731 36.6259 36.8957C36.571 36.8844 36.5188 36.8628 36.4725 36.8321C36.4262 36.8014 36.3866 36.7622 36.356 36.7167C36.3254 36.6713 36.3044 36.6205 36.2942 36.5672C36.284 36.5139 36.2847 36.4592 36.2964 36.4062C36.3081 36.3533 36.3305 36.303 36.3624 36.2584C36.3943 36.2137 36.4349 36.1756 36.4821 36.1461C36.5292 36.1166 36.5819 36.0963 36.6372 36.0865C36.6925 36.0766 36.7492 36.0774 36.8042 36.0886C37.3578 36.1887 37.8871 36.3874 38.3652 36.6744V36.5703C38.3463 36.5156 38.3247 36.4635 38.3031 36.4088C38.0903 35.8879 37.7546 35.4217 37.3227 35.0473C36.8123 34.6151 36.1587 34.5266 35.5591 34.4642H35.5456L32.4073 34.2767L33.2176 35.8934C33.4505 36.3266 33.7732 36.7091 34.1658 37.0172C34.5584 37.3253 35.0124 37.5524 35.4997 37.6845C36.4358 37.9054 37.4052 37.9636 38.3625 37.8563L38.3652 37.8459Z" fill="#FF9408"/>
<path fill-rule="evenodd" clip-rule="evenodd" d="M39.9389 37.8459C40.3508 37.3094 40.8528 36.843 41.4243 36.4661C42.4452 35.7919 43.6659 35.404 45.1135 35.1645C45.2253 35.1455 45.3403 35.17 45.4332 35.2328C45.5261 35.2955 45.5894 35.3913 45.6091 35.499C45.6288 35.6067 45.6033 35.7175 45.5382 35.8071C45.4731 35.8967 45.3738 35.9577 45.2621 35.9767C43.9117 36.2032 42.8125 36.552 41.905 37.1508C41.1293 37.6737 40.4994 38.3729 40.0712 39.1866C43.5471 39.5224 45.6024 39.1866 47.0931 38.1453C48.5839 37.1039 49.5724 35.3102 50.8742 32.7277L49.6832 32.785C47.0499 32.9021 44.1683 33.0323 42.3642 34.5579C41.8674 34.9847 41.4151 35.4572 41.0138 35.9689C40.6216 36.4683 40.2609 36.9899 39.9335 37.5309V37.8459H39.9389ZM39.2043 21.562C40.5988 21.562 41.9363 22.096 42.9225 23.0466C43.9086 23.9972 44.4626 25.2864 44.4626 26.6307C44.4626 27.975 43.9086 29.2642 42.9225 30.2148C41.9363 31.1654 40.5988 31.6994 39.2043 31.6994C32.2876 31.6968 32.2876 21.562 39.2043 21.562ZM36.9167 26.0397L37.3029 25.2067H38.7667C38.7462 25.1431 38.7132 25.0839 38.6695 25.0323C38.6215 24.9735 38.564 24.9226 38.4994 24.8813C38.4286 24.8382 38.3523 24.804 38.2725 24.7797C38.1852 24.753 38.094 24.7398 38.0024 24.7407H36.9221L37.3083 23.8972H41.4945L41.1083 24.7407H40.0901C40.1317 24.7703 40.1698 24.8044 40.2035 24.8422C40.2418 24.8738 40.2771 24.9087 40.3089 24.9463C40.3331 24.9876 40.3548 25.0301 40.3737 25.0739C40.3905 25.1105 40.4023 25.149 40.4088 25.1885H41.5053L41.1164 26.0293H40.3089C40.245 26.1793 40.1535 26.3169 40.0388 26.4355C39.9219 26.5665 39.7875 26.6821 39.6391 26.7791C39.4841 26.8836 39.3174 26.971 39.1421 27.0394C38.9685 27.1069 38.7872 27.1541 38.602 27.18L40.8085 29.372H39.0692L37.1085 27.2894V26.5083H37.9754C38.059 26.5083 38.142 26.4951 38.2212 26.4693C38.3015 26.4438 38.3778 26.4079 38.448 26.3626C38.5154 26.3206 38.5755 26.2688 38.6263 26.209C38.6731 26.1552 38.7088 26.0934 38.7316 26.0267L36.9167 26.0397ZM39.2286 20C40.9926 19.9986 42.6896 20.6508 43.9688 21.8216C45.248 22.9925 46.0115 24.5924 46.1013 26.2906C46.1912 27.9887 45.6005 29.6552 44.4515 30.9454C43.3025 32.2356 41.683 33.0507 39.9281 33.2224V36.0105C40.0658 35.8205 40.1981 35.6409 40.3413 35.4664C40.7747 34.9126 41.2632 34.4008 41.7997 33.9383C43.8253 32.2227 46.869 32.0847 49.648 31.9597C50.2881 31.9311 50.9147 31.9025 51.5386 31.853C51.6147 31.8482 51.6909 31.8616 51.76 31.8921C51.8619 31.9398 51.9396 32.0244 51.9766 32.1274C52.0136 32.2304 52.0066 32.3433 51.9572 32.4414C50.4313 35.4821 49.351 37.5647 47.582 38.8065C45.8941 39.9884 43.6524 40.3685 39.92 39.9962V40.9491C41.3096 41.0852 42.676 41.3887 43.9873 41.8524L41.4378 43.0708H41.0003C40.8621 42.8584 40.6888 42.6693 40.4871 42.5111C40.05 42.1713 39.5179 41.9647 38.9585 41.9175C38.9054 41.9149 38.8522 41.9149 38.7991 41.9175H36.0984C35.7311 41.6988 35.3638 41.4854 34.9938 41.2849C36.1172 41.0342 37.2652 40.8998 38.4183 40.884V38.8638C37.3618 38.9729 36.2937 38.8998 35.2638 38.6477C34.6414 38.4798 34.0615 38.1899 33.5606 37.7962C33.0596 37.4024 32.6483 36.9133 32.3524 36.3594L32.3362 36.336L31.1263 33.9383C31.096 33.8789 31.0783 33.8143 31.0742 33.7482C31.0701 33.6822 31.0796 33.616 31.1022 33.5535C31.1248 33.491 31.16 33.4335 31.2059 33.3842C31.2518 33.335 31.3073 33.295 31.3693 33.2666C31.4489 33.2287 31.5373 33.2116 31.6259 33.2172L35.6581 33.4567H35.723H35.7365C36.4873 33.5478 37.311 33.6467 38.0591 34.2793L38.4183 34.6256V33.2093C36.6783 33.0088 35.0834 32.1756 33.9593 30.8797C32.8353 29.5838 32.2669 27.9231 32.3703 26.2369C32.4738 24.5507 33.2412 22.9661 34.5158 21.807C35.7905 20.6478 37.4762 20.0015 39.2286 20ZM43.5498 22.4862C42.5557 21.5279 41.2476 20.9316 39.8485 20.7987C38.4494 20.6659 37.0458 21.0048 35.8769 21.7577C34.7079 22.5106 33.8459 23.6309 33.4378 24.9277C33.0297 26.2245 33.1007 27.6176 33.6387 28.8696C34.1767 30.1216 35.1484 31.1551 36.3883 31.7939C37.6281 32.4327 39.0594 32.6374 40.4383 32.373C41.8172 32.1087 43.0583 31.3916 43.9502 30.3441C44.8421 29.2965 45.3296 27.9833 45.3296 26.6281C45.3305 25.8588 45.1737 25.0968 44.8683 24.386C44.5628 23.6752 44.1148 23.0296 43.5498 22.4862ZM38.4183 37.8459V37.7678C38.2934 37.6201 38.148 37.4895 37.9862 37.3799C37.5875 37.1376 37.1434 36.9731 36.679 36.8957C36.624 36.8844 36.5719 36.8628 36.5256 36.8321C36.4793 36.8014 36.4397 36.7622 36.4091 36.7167C36.3785 36.6713 36.3575 36.6205 36.3473 36.5672C36.3371 36.5139 36.3378 36.4592 36.3495 36.4062C36.3612 36.3533 36.3836 36.303 36.4155 36.2584C36.4474 36.2137 36.488 36.1756 36.5352 36.1461C36.5823 36.1166 36.635 36.0963 36.6903 36.0865C36.7456 36.0766 36.8023 36.0774 36.8573 36.0886C37.4109 36.1887 37.9402 36.3874 38.4183 36.6744V36.5703C38.3994 36.5156 38.3778 36.4635 38.3562 36.4088C38.1433 35.8879 37.8077 35.4217 37.3758 35.0473C36.8654 34.6151 36.2118 34.5266 35.6122 34.4642H35.5987L32.4604 34.2767L33.2707 35.8934C33.5036 36.3266 33.8263 36.7091 34.2189 37.0172C34.6115 37.3253 35.0655 37.5524 35.5528 37.6845C36.4889 37.9054 37.4583 37.9636 38.4156 37.8563L38.4183 37.8459Z" fill="#F8BC3B"/>
</svg>
