<svg width="72" height="72" viewBox="0 0 72 72" fill="none" xmlns="http://www.w3.org/2000/svg">
<rect width="72" height="72" rx="36" fill="white"/>
<path opacity="0.5" d="M33.0896 45.618C33.115 46.1952 33.3577 46.7449 33.9001 46.9437C34.3423 47.1057 35.0131 47.25 36 47.25C36.9869 47.25 37.6577 47.1057 38.0999 46.9437C38.6423 46.7449 38.885 46.1952 38.9104 45.618C38.951 44.6944 39 42.9226 39 39.75C39 36.5773 38.951 34.8056 38.9104 33.882C38.885 33.3048 38.6423 32.755 38.0999 32.5563C37.6577 32.3943 36.9869 32.25 36 32.25C35.0131 32.25 34.3423 32.3943 33.9001 32.5563C33.3577 32.755 33.115 33.3048 33.0896 33.882C33.049 34.8056 33 36.5773 33 39.75C33 42.9226 33.049 44.6944 33.0896 45.618Z" fill="#6606EF"/>
<path opacity="0.5" d="M42.0896 45.618C42.115 46.1952 42.3577 46.7449 42.9001 46.9437C43.3423 47.1057 44.0131 47.25 45 47.25C45.9868 47.25 46.6577 47.1057 47.0998 46.9437C47.6423 46.7449 47.885 46.1952 47.9104 45.618C47.951 44.6944 48 42.9226 48 39.75C48 36.5773 47.951 34.8056 47.9104 33.882C47.885 33.3048 47.6423 32.755 47.0998 32.5563C46.6577 32.3943 45.9868 32.25 45 32.25C44.0131 32.25 43.3423 32.3943 42.9001 32.5563C42.3577 32.755 42.115 33.3048 42.0896 33.882C42.049 34.8056 42 36.5773 42 39.75C42 42.9226 42.049 44.6944 42.0896 45.618Z" fill="#6606EF"/>
<path opacity="0.5" d="M24.0896 45.618C24.115 46.1952 24.3576 46.7449 24.9001 46.9437C25.3423 47.1057 26.0131 47.25 27 47.25C27.9869 47.25 28.6577 47.1057 29.0998 46.9437C29.6423 46.7449 29.885 46.1952 29.9104 45.618C29.951 44.6944 30 42.9226 30 39.75C30 36.5773 29.951 34.8056 29.9104 33.882C29.885 33.3048 29.6423 32.755 29.0998 32.5563C28.6577 32.3943 27.9869 32.25 27 32.25C26.0131 32.25 25.3423 32.3943 24.9001 32.5563C24.3576 32.755 24.115 33.3048 24.0896 33.882C24.049 34.8056 24 36.5773 24 39.75C24 42.9226 24.049 44.6944 24.0896 45.618Z" fill="#6606EF"/>
<path d="M36 34.125C43.0558 34.125 47.216 33.9721 49.3021 33.8617C50.2675 33.8105 51 33.0115 51 32.0446V30.2914C51 29.6169 50.7826 28.9551 50.3049 28.4788C47.5025 25.6852 41.062 22.0849 36.6975 21.1321C36.2363 21.0315 35.7637 21.0315 35.3025 21.1321C30.938 22.0849 24.4976 25.6852 21.6951 28.4788C21.2173 28.9551 21 29.6169 21 30.2914V32.0446C21 33.0115 21.7324 33.8105 22.6979 33.8617C24.7841 33.9721 28.9442 34.125 36 34.125Z" fill="#6606EF"/>
<path d="M21.268 46.093C21.4629 45.5272 22.0294 45.2699 22.6269 45.236C24.1787 45.1478 27.9776 45 36 45C44.0224 45 47.8214 45.1478 49.3731 45.236C49.9705 45.2699 50.537 45.5272 50.732 46.093C50.8763 46.5122 51 47.1263 51 48C51 48.8738 50.8763 49.4878 50.732 49.907C50.537 50.4728 49.9705 50.7302 49.3731 50.7641C47.8214 50.8522 44.0224 51 36 51C27.9776 51 24.1787 50.8522 22.6269 50.7641C22.0294 50.7302 21.4629 50.4728 21.268 49.907C21.1236 49.4878 21 48.8738 21 48C21 47.1263 21.1236 46.5122 21.268 46.093Z" fill="#6606EF"/>
<path d="M36 31.5C37.6569 31.5 39 30.1569 39 28.5C39 26.8431 37.6569 25.5 36 25.5C34.3431 25.5 33 26.8431 33 28.5C33 30.1569 34.3431 31.5 36 31.5Z" fill="white"/>
</svg>
