<svg width="72" height="72" viewBox="0 0 72 72" fill="none" xmlns="http://www.w3.org/2000/svg">
<rect width="72" height="72" rx="36" fill="white"/>
<path d="M48.0563 31.6939C49.3629 31.8012 50.3659 32.6741 50.5665 33.9696C50.7859 35.3864 51 37.6829 51 41.25C51 45.9904 50.6218 48.682 50.3557 49.9891C50.2304 50.6046 49.6842 51 49.0561 51C47.952 51 45.8239 51 42 51C38.1761 51 36.048 51 34.9439 51C34.3158 51 33.7696 50.6046 33.6442 49.9891C33.3782 48.682 33 45.9904 33 41.25C33 37.6829 33.2141 35.3864 33.4335 33.9696C33.6341 32.6741 34.6371 31.8012 35.9437 31.6939C37.1863 31.5919 39.1083 31.5 42 31.5C44.8917 31.5 46.8137 31.5919 48.0563 31.6939Z" fill="#0EDDC9" fill-opacity="0.5"/>
<path d="M40.3117 21.3516C41.6333 21.5051 42.6072 22.4469 42.8126 23.7614C43.1286 25.7841 43.5 29.5362 43.5 36C43.5 43.9149 42.9431 48.1175 42.613 49.9136C42.4932 50.5651 41.9234 51 41.261 51C39.9417 51 37.2605 51 32.25 51C27.2395 51 24.5583 51 23.239 51C22.5766 51 22.0068 50.5651 21.887 49.9136C21.5569 48.1175 21 43.9149 21 36C21 29.5362 21.3714 25.7841 21.6874 23.7614C21.8928 22.4469 22.8667 21.5051 24.1883 21.3516C25.7091 21.1749 28.2298 21 32.25 21C36.2702 21 38.7909 21.1749 40.3117 21.3516Z" fill="#0EDDC9"/>
<path d="M26.25 28.5C26.25 27.6716 26.9216 27 27.75 27H36.75C37.5785 27 38.25 27.6716 38.25 28.5C38.25 29.3284 37.5785 30 36.75 30H27.75C26.9216 30 26.25 29.3284 26.25 28.5Z" fill="white"/>
<path d="M26.25 36C26.25 35.1716 26.9216 34.5 27.75 34.5H36.75C37.5785 34.5 38.25 35.1716 38.25 36C38.25 36.8284 37.5785 37.5 36.75 37.5H27.75C26.9216 37.5 26.25 36.8284 26.25 36Z" fill="white"/>
<path d="M28.1725 47.1616C28.1228 45.8713 28.9724 44.7796 30.2606 44.689C30.8035 44.6509 31.4622 44.625 32.2504 44.625C33.0386 44.625 33.6974 44.6509 34.2403 44.689C35.5284 44.7796 36.3781 45.8713 36.3284 47.1616C36.2814 48.3793 36.1877 49.8766 36.0004 51H28.5004C28.3132 49.8766 28.2194 48.3793 28.1725 47.1616Z" fill="white"/>
</svg>
