<svg width="72" height="72" viewBox="0 0 72 72" fill="none" xmlns="http://www.w3.org/2000/svg">
<path d="M36 72C55.8823 72 72 55.8823 72 36C72 16.1178 55.8823 0 36 0C16.1178 0 0 16.1178 0 36C0 55.8823 16.1178 72 36 72Z" fill="#F7BC3E"/>
<path d="M38.3587 24.8796C40.6936 23.8025 43.2941 24.446 44.1558 26.3139C44.7237 27.5453 44.4295 29.0204 43.393 30.2267L44.3825 32.3719L41.339 31.7191C39.0427 32.7049 36.5306 32.0498 35.6868 30.2204C34.8252 28.3527 36.0238 25.9567 38.3587 24.8796ZM41.0933 30.8079L41.2343 30.7429L42.7542 31.0687L42.2821 30.0453L42.5054 29.8155C43.4418 28.852 43.7495 27.6598 43.3088 26.7045C42.6625 25.3033 40.6171 24.8648 38.7493 25.7265C36.8814 26.5881 35.8873 28.4287 36.5337 29.8298C37.18 31.231 39.2254 31.6695 41.0933 30.8079Z" fill="#F9D078"/>
<path d="M37.5713 21.8873C36.6711 20.9812 35.483 20.4177 34.2119 20.2937C32.9407 20.1696 31.6661 20.4931 30.6078 21.2081C29.5495 21.9232 28.7739 22.985 28.4146 24.2107C28.0554 25.4363 28.135 26.7489 28.6397 27.9221C28.6923 28.0311 28.7096 28.1538 28.689 28.2732L28.2063 30.5939C28.1877 30.6829 28.1916 30.775 28.2174 30.8622C28.2432 30.9494 28.2903 31.0287 28.3544 31.0931C28.407 31.1454 28.4696 31.1864 28.5384 31.2137C28.6073 31.2411 28.6808 31.2541 28.7549 31.2523H28.8646L31.2127 30.7804C31.3321 30.7661 31.4531 30.7831 31.5639 30.8298C32.7371 31.3346 34.0496 31.4141 35.2753 31.0548C36.5009 30.6955 37.5628 29.92 38.2778 28.8617C38.993 27.8035 39.3163 26.5289 39.1924 25.2577C39.0684 23.9865 38.5049 22.7984 37.5988 21.8982L37.5713 21.8873ZM31.498 26.3146C31.3896 26.3146 31.2834 26.2824 31.1933 26.2222C31.103 26.1619 31.0327 26.0762 30.9912 25.976C30.9497 25.8758 30.9388 25.7654 30.96 25.6589C30.9811 25.5526 31.0334 25.4548 31.1101 25.378C31.1868 25.3013 31.2846 25.249 31.391 25.2279C31.4975 25.2068 31.6077 25.2176 31.7079 25.2591C31.8083 25.3006 31.8939 25.3709 31.9543 25.4612C32.0145 25.5515 32.0467 25.6575 32.0467 25.7661C32.0467 25.9115 31.9889 26.0511 31.886 26.154C31.7831 26.2569 31.6436 26.3146 31.498 26.3146ZM33.6925 26.3146C33.584 26.3146 33.4779 26.2824 33.3877 26.2222C33.2975 26.1619 33.2272 26.0762 33.1856 25.976C33.1441 25.8758 33.1333 25.7654 33.1545 25.6589C33.1756 25.5526 33.2279 25.4548 33.3046 25.378C33.3814 25.3013 33.479 25.249 33.5855 25.2279C33.6919 25.2068 33.8022 25.2176 33.9025 25.2591C34.0027 25.3006 34.0885 25.3709 34.1487 25.4612C34.2089 25.5515 34.2411 25.6575 34.2411 25.7661C34.2411 25.9115 34.1833 26.0511 34.0805 26.154C33.9776 26.2569 33.838 26.3146 33.6925 26.3146ZM35.8871 26.3146C35.7785 26.3146 35.6725 26.2824 35.5822 26.2222C35.492 26.1619 35.4217 26.0762 35.3802 25.976C35.3387 25.8758 35.3278 25.7654 35.3489 25.6589C35.3702 25.5526 35.4223 25.4548 35.4991 25.378C35.5758 25.3013 35.6736 25.249 35.78 25.2279C35.8865 25.2068 35.9968 25.2176 36.097 25.2591C36.1972 25.3006 36.2829 25.3709 36.3431 25.4612C36.4035 25.5515 36.4357 25.6575 36.4357 25.7661C36.4357 25.9115 36.3779 26.0511 36.275 26.154C36.1721 26.2569 36.0325 26.3146 35.8871 26.3146Z" fill="white"/>
<path d="M42.0624 39.6332C42.0624 40.8016 42.5221 41.9221 43.3404 42.7483C44.1587 43.5745 45.2686 44.0385 46.4258 44.0385C47.583 44.0385 48.6928 43.5745 49.5112 42.7483C50.3294 41.9221 50.7892 40.8016 50.7892 39.6332C50.7892 38.4649 50.3294 37.3443 49.5112 36.5182C48.6928 35.692 47.583 35.2278 46.4258 35.2278C45.2686 35.2278 44.1587 35.692 43.3404 36.5182C42.5221 37.3443 42.0624 38.4649 42.0624 39.6332ZM52.6592 51.5906H39.5691C39.4037 51.5906 39.2452 51.5242 39.1283 51.4062C39.0114 51.2882 38.9457 51.1281 38.9457 50.9613V49.0732C38.9457 48.2387 39.274 47.4384 39.8585 46.8482C40.443 46.258 41.2357 45.9265 42.0624 45.9265H50.7892C51.6158 45.9265 52.4085 46.258 52.993 46.8482C53.5775 47.4384 53.9059 48.2387 53.9059 49.0732V50.9613C53.9059 51.1281 53.8401 51.2882 53.7233 51.4062C53.6064 51.5242 53.4478 51.5906 53.2825 51.5906H52.6592Z" fill="white"/>
<path d="M25.6218 40.9158C26.6138 40.9158 27.5651 40.5218 28.2664 39.8204C28.9678 39.119 29.3618 38.1678 29.3618 37.1758C29.3618 36.1838 28.9678 35.2327 28.2664 34.5312C27.5651 33.8298 26.6138 33.4358 25.6218 33.4358C24.6299 33.4358 23.6786 33.8298 22.9772 34.5312C22.2758 35.2327 21.8818 36.1838 21.8818 37.1758C21.8818 38.1678 22.2758 39.119 22.9772 39.8204C23.6786 40.5218 24.6299 40.9158 25.6218 40.9158ZM25.6218 42.1625C24.2993 42.1625 23.0309 41.6371 22.0956 40.702C21.1605 39.7668 20.6351 38.4983 20.6351 37.1758C20.6351 35.8533 21.1605 34.5848 22.0956 33.6497C23.0309 32.7145 24.2993 32.1891 25.6218 32.1891C26.9444 32.1891 28.2128 32.7145 29.1479 33.6497C30.0831 34.5848 30.6085 35.8533 30.6085 37.1758C30.6085 38.4983 30.0831 39.7668 29.1479 40.702C28.2128 41.6371 26.9444 42.1625 25.6218 42.1625ZM31.8552 48.3959V46.5259C31.8552 46.03 31.6582 45.5543 31.3075 45.2037C30.9567 44.8529 30.4811 44.6559 29.9852 44.6559H21.2584C20.7625 44.6559 20.2868 44.8529 19.9361 45.2037C19.5854 45.5543 19.3884 46.03 19.3884 46.5259V48.3959C19.3884 48.5613 19.3228 48.7198 19.2058 48.8367C19.0889 48.9536 18.9303 49.0192 18.7651 49.0192C18.5998 49.0192 18.4412 48.9536 18.3243 48.8367C18.2073 48.7198 18.1417 48.5613 18.1417 48.3959V46.5259C18.1417 45.6993 18.4701 44.9066 19.0546 44.3221C19.6391 43.7376 20.4318 43.4092 21.2584 43.4092H29.9852C30.8117 43.4092 31.6046 43.7376 32.189 44.3221C32.7735 44.9066 33.1018 45.6993 33.1018 46.5259V48.3959C33.1018 48.5613 33.0362 48.7198 32.9193 48.8367C32.8024 48.9536 32.6439 49.0192 32.4785 49.0192C32.3133 49.0192 32.1547 48.9536 32.0377 48.8367C31.9209 48.7198 31.8552 48.5613 31.8552 48.3959Z" fill="#F9D078"/>
</svg>
